/* XPM */
static const char *collection[] = {
/* columns rows colors chars-per-pixel */
"64 64 239 2 ",
"   c #19150F",
".  c #1D1812",
"X  c #1E1915",
"o  c #241B15",
"O  c #2B1E15",
"+  c #241E19",
"@  c #2B1E18",
"#  c #2E2017",
"$  c #25201B",
"%  c #2C221B",
"&  c #332216",
"*  c #33241B",
"=  c #3B261A",
"-  c #35281E",
";  c #3C291D",
":  c #2D2721",
">  c #322823",
",  c #342A23",
"<  c #3D2D22",
"1  c #3C3228",
"2  c #432B1D",
"3  c #4B2E1E",
"4  c #4E311F",
"5  c #53321E",
"6  c #422E22",
"7  c #4C2F20",
"8  c #443125",
"9  c #4B3425",
"0  c #433529",
"q  c #4B3629",
"w  c #45382C",
"e  c #4C3A2C",
"r  c #543523",
"t  c #5A3622",
"y  c #543926",
"u  c #5C3A25",
"i  c #533C2C",
"p  c #5B3D2B",
"a  c #463C32",
"s  c #4C3D32",
"d  c #533F31",
"f  c #583F31",
"g  c #643C25",
"h  c #693E27",
"j  c #6A3E26",
"k  c #623E2A",
"l  c #26540A",
"z  c #29560C",
"x  c #2C5A0E",
"c  c #305C0F",
"v  c #2D5711",
"b  c #2E5C11",
"n  c #315E13",
"m  c #395719",
"M  c #3D5C1B",
"N  c #336114",
"B  c #366318",
"V  c #3A631B",
"C  c #3C681C",
"Z  c #42581E",
"A  c #42641E",
"S  c #494A22",
"D  c #4A4C23",
"F  c #56442A",
"G  c #5C412D",
"H  c #5D4A2D",
"J  c #4C5523",
"K  c #465B21",
"L  c #585728",
"P  c #4B4135",
"I  c #544233",
"U  c #5B4332",
"Y  c #584838",
"T  c #5C493A",
"R  c #5D503E",
"E  c #63422D",
"W  c #6B422B",
"Q  c #6A452A",
"!  c #74452A",
"~  c #7C4A2D",
"^  c #695A2D",
"/  c #624532",
"(  c #6B4631",
")  c #654A36",
"_  c #6B4A34",
"`  c #644C3A",
"'  c #6B4E3A",
"]  c #734D34",
"[  c #774D34",
"{  c #67523B",
"}  c #6C513C",
"|  c #745235",
" . c #7A5236",
".. c #73533C",
"X. c #7B563B",
"o. c #765A3C",
"O. c #7D593E",
"+. c #476924",
"@. c #566528",
"#. c #53712D",
"$. c #53732D",
"%. c #597934",
"&. c #636831",
"*. c #786537",
"=. c #667836",
"-. c #5A4D40",
";. c #604E40",
":. c #6A5442",
">. c #6A5543",
",. c #725641",
"<. c #755942",
"1. c #7C5C43",
"2. c #795E4A",
"3. c #7B614C",
"4. c #7E6451",
"5. c #824D2F",
"6. c #834E31",
"7. c #865435",
"8. c #845B3D",
"9. c #8B5C3D",
"0. c #935B38",
"q. c #995E39",
"w. c #87653D",
"e. c #9A623C",
"r. c #A3643D",
"t. c #A8693F",
"y. c #835E43",
"u. c #905F41",
"i. c #846146",
"p. c #8C6444",
"a. c #84644A",
"s. c #8A6749",
"d. c #8C6A4D",
"f. c #976745",
"g. c #936C4C",
"h. c #817642",
"j. c #977249",
"k. c #9C724D",
"l. c #846953",
"z. c #8C6C52",
"x. c #926E53",
"c. c #986E51",
"v. c #8D7055",
"b. c #8C725A",
"n. c #947354",
"m. c #9B7554",
"M. c #977658",
"N. c #957A5C",
"B. c #9B7B5B",
"V. c #A36741",
"C. c #AC6C42",
"Z. c #B06F44",
"A. c #A8754C",
"S. c #B87649",
"D. c #A37B55",
"F. c #A77A56",
"G. c #A37D5B",
"H. c #B77C52",
"J. c #977961",
"K. c #9C7D62",
"L. c #C17D4D",
"P. c #62813D",
"I. c #768E4C",
"U. c #909356",
"Y. c #A5815D",
"T. c #A98459",
"R. c #B78659",
"E. c #9D8364",
"W. c #A48463",
"Q. c #AB8563",
"!. c #AC8964",
"~. c #A48869",
"^. c #AB8D6B",
"/. c #B38C67",
"(. c #AC916E",
"). c #AE986F",
"_. c #B99567",
"`. c #B5926C",
"'. c #BA946C",
"]. c #AA8D72",
"[. c #AC9674",
"{. c #B59774",
"}. c #BB9672",
"|. c #B49C7B",
" X c #BB9D7B",
".X c #98A96B",
"XX c #B8A36C",
"oX c #ADAF74",
"OX c #BBA87A",
"+X c #AAB479",
"@X c #CA8553",
"#X c #C88656",
"$X c #D18D58",
"%X c #C58E63",
"&X c #C4976A",
"*X c #D69666",
"=X c #C79D73",
"-X c #C29E74",
";X c #E09E66",
":X c #C8A57B",
">X c #D7A776",
",X c #E4AA75",
"<X c #EAB077",
"1X c #BA9F80",
"2X c #BCA683",
"3X c #B9BA84",
"4X c #C5A883",
"5X c #CCAC83",
"6X c #D2AF87",
"7X c #C6B687",
"8X c #D7B689",
"9X c #D7BD95",
"0X c #E9BD87",
"qX c #F4BC83",
"wX c #E4BE91",
"eX c #BDC189",
"rX c #C3C38F",
"tX c #DCC499",
"yX c #E7C38C",
"uX c #F7C68C",
"iX c #E4C696",
"pX c #F7CD94",
"aX c #EED09B",
"sX c #FAD49A",
"dX c #F9D79A",
"fX c #DFD0AC",
"gX c #E3D3AE",
"hX c #E8D5AA",
"jX c #F7DBA2",
"kX c #FAE3A4",
"lX c #F9E6A8",
"zX c #FAECAC",
"xX c #EDE2BB",
"cX c #F9EDB3",
"vX c #FAF2B3",
"bX c #FAF4BD",
"nX c #FAF5C3",
"mX c #FAF8C9",
"MX c #FBFAD1",
/* pixels */
"B N B b b x x l n N N x n N n N N n x n x b b N N x b n b b N x N b x B x N N n x N N N n N B N x B x N B b N z b N x N b N x x ",
"n B x N x z b N n z x b b x b b n n x n x n b n x z N B B +.$.$.$.$.+.N n N x n B B b N x N x x z N x x x z B N b N b x x x x N ",
"x B b N x B b N x n b b b b b N N n n b n b n +.%.I..X+X+X3X7X7X7X:XoXoX+X.XP.+.N x N x N N x b x B x N N z x b N x x x N x N N ",
"b B b B b B b N n B B b b b b b N b N B C I..XeX3X2X{.E.n.n.B.M.n.g.d.n.~.{.OX:XoXI.+.N N N N x N b N N N x x B x N n x N N N x ",
"N x N N x N z x x n b b N b b b x n +.U.3X7X).W.G.!.}.-X:X:X6X5X6X:X'./.G.g.O.i.B.}.OXU.$.b x x N N N N b x N x x N N x b N x x ",
"N x B N b n b x N n n b b N N x n I.eX7X~.W.}.8X9X9X6X:X}.'._./.}.}._.-X:X-X-XQ.i.| 1.!.-XU.+.n x N N N N x N x N N x x N x b N ",
"n N x N N N x N b b b B b b N P.+X7X^./.5X9X8X6X-XG.g.g.p.p.p.p.p.y. .X.9.p.D./.'.T.i.( o.T.XX=.V x x N n x b b x b b N N N x x ",
"b b b N N b x x x x b N b V I.rX(.Q.5XtX8X-XG.f.g.B.(.|.{.(.^.^.~.W.Y.W.B.z.X. .9.D./.Y.o.p O._.U.A b x x n N b x x x N x x x N ",
"b b n N x b N x x n N x +..X2XB.}.tXtX-Xg.p.E.[.2XOX5X9XtXtXiXiXiX9X6X:X`.G.B.n.i.]  .m.!.n.( U D.T.@.b b x N b b n l N x x x x ",
"x B n b n z N b n b n %.3X|.M.:XtX5Xk.y.E.OX2X7XtXhXnXnXnXbXjXiXjXlXlXlXjXyX:XB.g.d.y.Q 9.F.Y.X.i p.R.=.x N b n N b b N x x N N ",
"b x b n b n N b N b %.rX[.G.6XtX}.9.v.|.2XtXxXmXnXbXbXvXvXlXiX|.6XdXkXlXkXjXdXpX>Xm.i.i.] ( m.T.1.i X.T.@.n b b b x n N b N N N ",
"b b B N x N x x x +.3X[.B.6XtX!.9.~.2X7XxXMXmXbXvXvXvXzXzXaX9X(.G.0XdXkXjXdXsXsXpX0X&Xy.8.O.k y.T.i.9 ] j.@.n b b N N z b n b N ",
"b N N N N N x b C +X[.n.6X9XG.i.[.2XtXnXMXnXvXvXzXzXzXzXjX6X8X{.s.=XuXdXpXpXpXdXpXuXuX>Xp.] X.p 8.G.y.9 ] j.+.N n n b b n b b n ",
"N N x N N x x n U.OXd.:X9XD.s.[.OXhXMXMXnXvXzXzXzXlXzXkXwX1X:X~.d.Q.>XuXuXuXuXuX0X0XqX<X*Xf.( | p 8.F.o.2 X.w.M n b N b b x n b ",
"x x x n n x z I.7Xs.'.9XG.O.[. XhXmXmXbXvXzXlXzXlXlXkXpX5X[.:XK.v.W./.qXuXuXuXuX>X<X<X<X;X$X0.p _ r 8.D.G 2 w.*.n n b x b b b x ",
"B N N b N N +.+XN.Y.8X`.O.].{.hXmXnXcXlXlXlXlXlXkXdXpX6X].B.}.N.n.W.D.*XqXqXqX<X>X,X;X*X$X#XS.[ y Q r f.g.6 i e.@.n b x N b b b ",
"N N b x b n U.).d.5X X .E.{.iXmXnXcX9X5X8X8XyXyXpXyX=X/.K.Q.`.z.a.n.n.F.&X%X,X*X%XR.F.!.z.S.@XC.W y k k k...*  .*.m x x b x b N ",
"x b B x x $.OXa./.8Xs.a.(.6XbXbXvXlXwX`.4X4X|.`.!.'.!.~. X4X X(.^.Q.M.z.z.D./.].(.K.[.l._ @X$XS.q.r p r X.D.i 8 9.@.n n x x n z ",
"b n n x n U.!.d.5X!.| E.'.kXbXcXlXkXiX`.4X{.N.N.v.~.7XtXaXyX:X'.>X>X>X&XT.n.2.a.z.{.J.9 9.@X@XZ.t.~ 2 p 9 g.1.* ] *.m b b n b b ",
"N x b n %.OX1.^.5XO.v.W.8XcXzXlXkXkXyX|.v.W.N.M.OXtXiX6X}.^.^./.B.M.F.R.&X%Xd.' l.J...a.9.L.S.Z.C.q.r 9 r ( x.q 8 8.K b b v x N ",
"b b n n U.!.i.4XW...E.`.jXlXkXlXkXkXyX~.b.l.b.{.iX:X(.~.E.N.Y._.Y.B.n.a.i.A.#Xg.,.` a.n.7.S.S.Z.C.t. .; p 9 g.1.* ] ^ n b b N N ",
"N b x C XXa.x.OXX.a.B.6XkXjXdXdXdXdXyXB.z.K. X8X X{.(.N.v.v.n.M.d.a.1.k.k.p.p.R.p.U :.a. .Z.Z.C.C.r.q.r 9 y <.g.; 9 | Z b b b b ",
"B z b %.XX..!.{._ N.D.aXjXdXpXpXdXdX0XG.z.|.tX{. X:Xn.M.K.(.2X{.i.c.n.i.m.R.f.9.H...U :.[ C.C.C.C.r.q.! ; y i g.9 * | J b b N n ",
"x x n I.T...-XB.} M.`.jXjXdXpXpXpXyX=XG.K.9X{.^.:X:Xv.~.2X9XhX(.p | d.1.a.k.k.X.9.A.' q [ e.r.t.r.e.0.6.2 9 9 y.( % ( L b b b n ",
"b N n ).n.1.4Xa.o.s.:XkXjXdXpXuXqX,XQ.J.4X>XN.'.Q.D.W.7XgXxXfX!.p u ] | o.o.y.X.E 9.y.I ` [ q.q.q.0.7.6.r 2 9 1.i.% 9 / m x x n ",
"x b C XX1.d. X..a.y.8XdXdXpXuX<X>X}.K.J.5XQ.B._.x.W.OXfXxXfXiX}.( k ( E / o.1.../ p f.U 8 U W 6.0.7.7.5.g * 8 / a.- ; Q M b b B ",
"l b +.XX_ M.(./ d.i.0XpXuXqX,X&X[.b.4.W.,Xz.G.n.z.a./.5X9XhXpX/.! u p 9 q _ ..o._ 9 7._ , I ) y j 6.6.~ j & 6 U x.8 - ( K v x N ",
"x b $._.U b.W./ s.y.,XqX,X%X{.].b.l.3.'.&Xd.d.z.M.3.D.!.4X5X6XY.( G 9 * U ) 1.' _ i k ( , T ,.U 9 r W ! g # 8 q s.9 * ] Z x b b ",
"B b =.-XU B.W.U i.y.%X&X X2X X~.~.E.z.'.F.m.s.z.d.y.s.G.(.=X=Xm.i q q 9 ' <.o...' G y ] e ,.1.M.v.I 6 9 t # 8 q d.i * ] J b n N ",
"b b =.:XU B.B.U 1.8.#Xc.2.2.a.d.l.a.,.Y.i.k.8.1.<./ ..s.G.&X>Xm.; < e f T ` } ../ G 9 Q q } <.<...G * * 4 O 9 q s.i % ( J b b b ",
"n b =.-XU J.E.U 1.X.#X*Xk.) ..) :.:.` F.8.1.O.} ..) o.a.Y.k.%XG.* f f U U T <.U p / 9 ( ; 8 s d d o O 4 u # 9 q d.i % ( J b N b ",
"N x $.-XG z.W.U <.| #X*X*XF.y.1.a.` U g.f./ X./ y.y.1.n./.p.k.n.i :.6 q U } ,.i / I y O.> 1 ` T q ; r j u O 9 i x.9 % ( J B x b ",
"b x +.'.U 2.W.U o._ S.@X@X#XH.9.y.,.f X.f./ | p ..p.2.1.d.f.8...q 6 q I U <.` i } I k ..% I ` < 3 t g j r o 8 i x.8 * ( J n n N ",
"b b +.&X' } W./ } p V.L.L.@X#XS.9...i / f.E ( / p X.y.' } <.9.E ; 8 I I ` } I ) ' 9 ] e , 8 6 t g g j j 3 o 6 U 1.* , E J b N b ",
"x x A _.1.f B._ U G 9.H.@X@XL.S.C.7.) d 8. .p _ U _ ..1.<.,.) ) - s I ' 1.i I ) I r X., * ; t j j j j j 2 * 8 :.1.+ < p K b b b ",
"n b V T.f.9 M.1.G }  .H.@X@XS.Z.C.0./ f ) u.u ] 8.X._ / o...U U s { ' <.) q G U 9 ] i o * 3 g W W W j g & < 8 a.) o q F K N n x ",
"x b b h.A.8 2.g.i } E H.$X#XS.Z.C.V. .) 8 ( ! y 8.f.E Q ] X.y.:.2.' } U i p U 6 E ..> * 2 g j W W j j t O q e x.9 + G F V b b N ",
"N b b &.R.p ) m.G / G f.$X$XS.Z.C.t.[ U 0 6 ( E 9 ] _ / / / / U I ` e 0 / U 8 r X.< < e 2 j W W j j g 2 % q ` y.% % i J b n b n ",
"N n b +.T...q g.X.i ( ( @X$X@XS.r.q.] ` d :.e ( W 9 p G U U i i e d I ` d 6 p o.q 1 0 { 2 g j j g k t O 0 q l.) X e F K b n b b ",
"N n b n h.k.6 ' g.i ( y 0.@XL.C.0.0.] ) 3.b.w - G ( p 7 6 8 q f I I q 8 y ] ' 1 8 U I Y ; g g g g u 2 % I Y x.< $ U F m n b b b ",
"n n N N @.A.E 9 f...q E r V.S.V.V.q.W <.b.I I e 0 q / ] Q i 6 i q r E ] ..I , a s p U , = u k k u 3 o e e 3.' X w G D n n b N b ",
"n n b b n h.p.6 ( p.e G 9 k t.C.t.r.] T 9 I } ,.Y * , q G ..} ) } ..U 0 % % e T :.I < o * r k u 3 O > Y I d.6 + ` F M b b n x b ",
"n n b b b @.k.E 6 y.1.9 E 6 ! r.t.q.( < = 7 r p u 9 0 1 > > 0 < % > w * O 2 3 2 * O O o * r r 2 O + Y s z.' o a U D N b x n x x ",
"x n b N b V *.9.6 p p._ 9 p 2 ! q.q.6.! ! ! ! ! ~ W 3 ; q s ,.i < s I ; r t t t 4 3 3 2 2 9 2 # X P s 2.i.* : ` F M V n n n N n ",
"x N n b x x K p.( * ( y.p y p ; g 7.q.0.7.5.~ ~ ~ ! g 2 8 U } G 0 :.8 u W k k u t r t t 4 ; O . a I ;.x.9 X Y G D x n N n n N N ",
"n n b n x x x &.w.i * / O.i y i * t 5.7.6.5.~ ~ ! ! W r ; i <.G e I 7 W W g k g t r r 3 = O X P Y Y n./ o a ) S v x b B c x x n ",
"n b n x b b n M *.8.6 * ( 1.i 9 y = 3 W ! ! ! ! ! W W g 3 < ) p * * r j g g u u r 3 ; & o + Y I ;.z.G O 1 ` F m N N n N N N n N ",
"n x b b N b N b +.*. .; * p X.U ; y ; & 3 g j j g j j g t 2 ; ; o = t u t r 5 5 2 & o   > -.P :.z./ O > :.i Z B b b n n N N c x ",
"n n n l x z x b z K w. .; @ i ..U < 9 9 * & 2 5 t u g g u t ; * & 4 r 5 4 3 2 = O . $ P -.I 3.z./ @ , :.G S b n n x n n N b N n ",
"n n x n b n N b n n @.w.X.8 o < ' ' q 6 q 6 # O = 3 5 t t 5 = O = 3 2 = & O o . % P R I ` d.1.q o 1 } G S n n b N x n n N x n x ",
"b n n n n n n n n b b +.w.8.9 + * U ..' 8 ; 6 8 - % O O & & O o O o .   . $ 1 Y T I Y 4.a.G * X a ` p D N N x x N B x n N x b b ",
"b b n n n n b n v v n b Z *.| i % o 8 _ X.U < * < 9 e q 8 1 < < 1 1 w s Y Y I I T 3.z.,.< o : -.) y Z B n x b N x x x N N b N x ",
"b x x n x n n x z n n b b M L  .( 6 o o 6 / ' ) i e 0 8 8 q e e e e w q s I 2.z.2._ 6 o + s :.U S m b N N N N x n x N x N b x x ",
"n n x x N b x n n n b n n v v J o.] p < o o * 9 G ...._ ( _ U ) { :.<.a.1.1...i * o + a ,.' i S M b n n B x B x n x N N N x x x ",
"x b n n N x n n b z n n z z b x M @.| ] E q * + o * ; 6 9 y i G G i q q - % + + > P :.} G S m n n x n n n x n x B N N b x x x N ",
"n n n N x n n n n b n n b b b x z n M L ^ | | / I 0 > $ + o o X X X X $ : 1 Y :.{ ) F S m n x n x n n n x N x N z n x b N b x n ",
"z N n n n n N n n n n n n n z n n x n n M L L ^ X.X.' ' ` ` Y I I T ` ` ) ' ) H D D M b N b n n N N n N b n B b N N N x N x b B ",
"x x x n z n n z n n n x N n x b N n b x b b n m Z J L H H H H H H H H H L J Z M b x b z n N n n n n x n N N N b b b n n N x N x ",
"b x b n n n n x N b z x x n n l N b b x n n n n n n n v m M M m K M m m n x l n B x x b n b x n x n n n N n b N z n n N n x x b ",
"b x b n n n n x N b z x x n n l N b b x n n n n n n n v m M M m K M m m n x l n B x x b n b x n x n n n N n b N z n n N n x x b ",
"b x b n n n n x N b z x x n n l N b b x n n n n n n n v m M M m K M m m n x l n B x x b n b x n x n n n N n b N z n n N n x x b ",
"b x b n n n n x N b z x x n n l N b b x n n n n n n n v m M M m K M m m n x l n B x x b n b x n x n n n N n b N z n n N n x x b ",
"b x b n n n n x N b z x x n n l N b b x n n n n n n n v m M M m K M m m n x l n B x x b n b x n x n n n N n b N z n n N n x x b ",
"b x b n n n n x N b z x x n n l N b b x n n n n n n n v m M M m K M m m n x l n B x x b n b x n x n n n N n b N z n n N n x x b "
};
