/* XPM */
static const char *enemysola[] = {
/* columns rows colors chars-per-pixel */
"46 64 213 2 ",
"   c #121D0E",
".  c #0F0B15",
"X  c #110D16",
"o  c #140E19",
"O  c #190F1D",
"+  c #131416",
"@  c #151B15",
"#  c #1B1916",
"$  c #14131B",
"%  c #1B131B",
"&  c #161A1C",
"*  c #1C1B1C",
"=  c #22161D",
"-  c #25191E",
";  c #2A1B1F",
":  c #15260D",
">  c #192E0D",
",  c #183608",
"<  c #1B330C",
"1  c #1E3C0A",
"2  c #172113",
"3  c #192414",
"4  c #1B2C12",
"5  c #19231A",
"6  c #19291B",
"7  c #1E3212",
"8  c #203E0E",
"9  c #22271A",
"0  c #203313",
"q  c #223B13",
"w  c #22341A",
"e  c #253C1B",
"r  c #293F1E",
"t  c #1C0F20",
"y  c #1E1121",
"u  c #171B22",
"i  c #1A1A24",
"p  c #191D24",
"a  c #221325",
"s  c #221B23",
"d  c #2D1C20",
"f  c #261429",
"g  c #2B162D",
"h  c #2A1A2D",
"j  c #311E21",
"k  c #331A34",
"l  c #371C37",
"z  c #3C1D3C",
"x  c #1A2424",
"c  c #1C2926",
"v  c #1C242A",
"b  c #1E2B2C",
"n  c #1F312E",
"m  c #1F2931",
"M  c #2C2224",
"N  c #252428",
"B  c #222C2B",
"V  c #2C2A2A",
"C  c #352222",
"Z  c #3B2524",
"A  c #3E2825",
"S  c #312E2C",
"D  c #223728",
"F  c #22332E",
"G  c #35312E",
"H  c #212D33",
"J  c #2E2A3C",
"K  c #3D213B",
"L  c #223334",
"P  c #233933",
"I  c #2B3A33",
"U  c #25353A",
"Y  c #263B3B",
"T  c #293C3E",
"R  c #383632",
"E  c #401F3E",
"W  c #422B26",
"Q  c #462D28",
"!  c #492F29",
"~  c #4D322B",
"^  c #51352C",
"/  c #41203F",
"(  c #423E36",
")  c #1B4404",
"_  c #1D4B03",
"`  c #1F4209",
"'  c #214E05",
"]  c #21430C",
"[  c #244B0B",
"{  c #284D0F",
"}  c #245206",
"|  c #285606",
" . c #265409",
".. c #29560B",
"X. c #2C5A0D",
"o. c #305E0F",
"O. c #254412",
"+. c #294C12",
"@. c #294419",
"#. c #2D4C1A",
"$. c #2C5312",
"%. c #2F5C11",
"&. c #315716",
"*. c #315E12",
"=. c #30531A",
"-. c #345B1B",
";. c #346215",
":. c #386617",
">. c #366418",
",. c #39661A",
"<. c #3C6A1D",
"1. c #284239",
"2. c #2A453B",
"3. c #2B4A3E",
"4. c #35483B",
"5. c #396020",
"6. c #3F6D20",
"7. c #49453B",
"8. c #524C3F",
"9. c #416E22",
"0. c #447225",
"q. c #487629",
"w. c #2E3742",
"e. c #2C3D43",
"r. c #3A3145",
"t. c #452142",
"y. c #492446",
"u. c #4D264A",
"i. c #4B2849",
"p. c #51274D",
"a. c #53284E",
"s. c #552A51",
"d. c #5B2C55",
"f. c #5F2E58",
"g. c #4B3551",
"h. c #622F5A",
"j. c #65315C",
"k. c #68325E",
"l. c #6D3562",
"z. c #713765",
"x. c #733866",
"c. c #763A69",
"v. c #793B6A",
"b. c #2B4443",
"n. c #2D4D44",
"m. c #2F4848",
"M. c #324449",
"N. c #324E4B",
"B. c #2E5144",
"V. c #2F5148",
"C. c #345542",
"Z. c #31544A",
"A. c #375A49",
"S. c #345C4D",
"D. c #3D4852",
"F. c #3C5553",
"G. c #3C5B53",
"H. c #36624E",
"J. c #3A6048",
"K. c #366351",
"L. c #396453",
"P. c #3A6B54",
"I. c #3C6B57",
"U. c #3D7257",
"Y. c #3F785A",
"T. c #5A5647",
"R. c #445358",
"E. c #605C4B",
"W. c #45684C",
"Q. c #5A624E",
"!. c #446D54",
"~. c #436D58",
"^. c #42745A",
"/. c #477558",
"(. c #437B5B",
"). c #4C7C5A",
"_. c #57775A",
"`. c #686452",
"'. c #66765B",
"]. c #74755C",
"[. c #4C7861",
"{. c #746F71",
"}. c #817D63",
"|. c #46815F",
" X c #4D815D",
".X c #478260",
"XX c #4B8562",
"oX c #4E8A64",
"OX c #548A65",
"+X c #538C65",
"@X c #5D8964",
"#X c #569066",
"$X c #589167",
"%X c #55936A",
"&X c #5A956A",
"*X c #5E9A6C",
"=X c #6F886F",
"-X c #629B6E",
";X c #639E70",
":X c #65A373",
">X c #6AA776",
",X c #6FAC7A",
"<X c #77A27B",
"1X c #72AE7B",
"2X c #72B07C",
"3X c #75B27D",
"4X c #77B47F",
"5X c #8E8A6B",
"6X c #9B9875",
"7X c #A7A37C",
"8X c #79B780",
"9X c #7AB881",
"0X c #B7B58A",
/* pixels */
">.<.;.X. . .X.;.;.*...X.X.*.<.,... .X.X.[ ] _ ) ) +.+.] [ =.=.[ ' X.6.0.;. . .%.*... .%.>.;.",
"%.;.,.*...X.;.*.*.%.X.;.*.X.;.:.X.%.>.%.3 @ @ @ @ @ @ @ @ @ @ @ `  .;.<.;. . .*.<.;.....*.*.",
"X.X.;.;.X.;.:.*.*.*.*.,.;...X.*.;.+.3 3 W.@X@X@X@X@X@X@X@X@X).H.6   q ,.;. . .;.9.<.X. .X.;.",
"X.} } X.*.:.;.;.<.;.X.;.:. .)  .+.e I 4.-X9X4X2X8X8X8X3X:X1X,X%X2.B N O.;.X...%.6.9.X. .;.<.",
">.} _  .%.;.X.;.<.>.%.;.,.X._ _ 4 2.&X2X4X8X1X:X2X3X1X1XoX:X4X1X.XF.J # &.;.X...;.:.....>.<.",
"<. .)  .;.;.X.X.,.,.;.;.<.>.[ @ W.;X1X3X4X4X4X3X4X=X{.3X1X3X3X,X.XR.g.r.# =.%. .X.%...*.,.,.",
"<...} *.<.<.X. .X.,.9.<.0.0.-.+ _.4X4X3X*X%X;X4X4X<X=X&X3X4X>X%X(.I.R.g.$ =.*.}  .X.;.<.6.:.",
";.X.X.%.*.;.X. . .>.<.%. .+.e F OX4X2X:XXXoX:X4X4X8X,X*X3X>X%X^.Y.Y.G.r.$ +.X.}  ...;.0.,. .",
";.*.;.;.X.X.X. ...;.;. ._ , & P.&X>X:XXXY.%X,X,X,X,X,X,X,X&X^.F.U.U.G.e.u O.....X...*.6.;.' ",
"<.:.9.6.*. . ...*.;.X...;.#.& H.(.(.(.(.Z.L.|.|..X.X.XXXXX+X[.D.I.S.M.w.$ ] X.>.6.;...X. ...",
"*...>.,.X.}  .*.;.%.X.*.6.=.$ x x x P U.P.Z.Y c c c c c c P.[.D.M.e.U H $ 1 ..,.0.;. .}  .%.",
"X.' X.;.X. ...;.;.X.*.>.6.#.X X R G u S.^.S.m $ 7.T.T.7.$ 2.G.D.e.H v u $ ,  .;.<.;. .} X.;.",
"%.' } *.;.:.:.<.%.X.6.<.X.] @ + E.T.u S.XX^.Y & ].6X7X5Xp L N.F.M.v $ x x > ) ..;.*...X.;.,.",
";. . .;.>.>.;.*. ...9.,.} _ [ @ 7.( B &X;X+XC.& T.6X0X6Xs n.^.^.N.v b S.K.x > ..*.;.X.%.;.,.",
">.X...;.>.;.X. .} ..<.;.' ' { @ * * c (.2.!.+XA.V S R G $ A.^.N.b.b.2.Y K.c > ..;.;.X.*.;.;.",
"*.%.;.,.%. ._ _  ...%.X.X.%.$.@ n b x P.x W.>X+XC.L b P 2. X[.b.e.m.b.U N.x 7 *.<.%...;.*...",
"%.;.<.9.;.....X.*.....X.;.>...+ 3.3.P (.1.!.:X>X%X~.G.^.XX%X/.e.e.e.b.b.U x q %.:... .;.;. .",
"%.;.<.0.*.X.*.;.;.....%.<.,.{ @ b n.(.;X-XOXXX-X-X-X;X;X*XG.U U e.e.b.b.& O.X.X.*. . .;.*. .",
"X.;.>.,.....;.>.;.X.*.>.<.;.} ) 5 u I ].4.Q.'.B N W.>X-XL.Y H e.e.v u 5 1 ' .... .}  ..... .",
" .;.<.;.X.X.,.,.%.%.%.%.X. .'  .3 . V 5XV `.}.o X F !.XXK.Y H e.H u # @.X. .' '  .X.,.;. .} ",
"..*.>.X...X.:.,.X.X.;.;.X.} ' ..7 + V }.V T.].$ X . b I.I.b.U e.$ o 9 -.{ ' } } ..;.<.>. . .",
",.%...} '  .X.,.*. .,.9.;. .} ;.>.< o & $ & & X X X x N.P.N.e.e.$ y y $ + O.%.%.;.;.>.;.X.*.",
"9.%. .....X. .>.6.X.X.*.;.<.<.,.X.< s 8.* 7.T.$ ( M c K.I.N.U i o f z z z 9 2 4 >.%.....%.>.",
"9.X.} X.%.X.' *.<.......%.6.6.,...< N _.4._.=X2.'.W.3.I.S.Y p o a z u.s.f.z g M @...} } %.,.",
";.X. .;.;...)  .X. .X.X...;.;.,.X., x H.Y..X.X(.;X+XU.K.b.p o y z u.s.h.c.j.d.y.y O.[ _ *.,.",
"*.;.*.>.;... ..... .*.*...X.X.;.X...] & B.P.S.m.U.Y.K.Y u o a l y.s.j.c.v.c.l.s.u.s <  .*.,.",
"*.,.>.;.*...%.;.%.X.%.%.X.*.%.%...X.[ + x b c x b F c p o a k z u.f.l.v.v.v.c.l.s.a > ..*.;.",
"*.<.,.%.X...<.9.<.>. .} *.9.6..._ { 7 a a a O X X X o y y k z t.p.f.l.c.z.c.v.x.d.l 9 ] X...",
"..X.X. . .X.;.>.>.,.X...;.;.>.....0 y t.z z k o o o a z l z t.a.a.a.f.l.h.x.v.x.f.d.l @ ....",
" .}  ...*.;.*.X.;.<.%.X.*...X...4 f t.t.f k t.z E z t.p.p.p.p.s.a.t.l k k.c.c.c.z.f.l @ *.X.",
"..) ..,.0.0.*. .%.<.%.X.%._ ' 4 M z y.E O g y.y.y.u.a.d.l.f.s.s.a.t.g y s.x.d.y.x.j.l 5 ,.,.",
"....>.,.<.<.*.%.$.+.] 1 ` ] 8 & h t.y.z O k u.p.s.f.h.j.c.k.d.s.u.z f y y.s.K h d.i.g @ #.*.",
" .X.<.<.;.%...&.w & @ @ @ @ & L p h t.t.y k s.h.x.v.v.c.v.v.l.s.t.l a t z f v U L i $ $ + O.",
"_ X.6.<.X.1 + @ 4.).).).).)./.^.n.B f / y z h.x.v.v.v.v.v.v.l.s.t.l f o y o b S.K.S.1.v + 1 ",
"..%.>.;.1 6 2.C. X*X*X*X*X*X&XoXI.1.p f o z j.v.v.v.c.z.v.l.j.s.u.z g O o X v S.+X+XI.Y $ 1 ",
"*.%.*.+.D 3.|.oX+X#X&XXX)./././.P.2.v o X z j.v.v.v.x.l.l.f.s.s.a.z g y o X F ~.-X:X).b.$ O.",
":.X...@ J.#X+X^.K./.+XS.Y H H Y Y v $ + X z j.v.v.v.v.x.h.u.y.a.u.z f y o $ C.*X-X-X!.L @ #.",
"*.X.$.@ B.I.S.K.L 1.^.K.c $ $ $ $ $ @ ] @ t.c.v.v.v.v.c.z.d.t.l z k f a o A.OX*X&X(.2.& +.,.",
";.%.&.@ 3.S.b.P & F P.V.p @ < 7 0 7 O.$.@ / l.v.l.z.x.k.h.a.y.z l f t i C.XX*X&XoXK.L @ %.;.",
"<.;.&.@ 3.Z.H 5 + F H.L $ :  .X.;.X.,.*.@ l s.f.a.h.k.s.p.u.t.z f O $ F +X&X&X+X^.2.x 4 ....",
"<.;.%.@ 1.2.+ [ : b B.$ X 4 *.;.;...:.*.@ k / a h / p.a.p.y.l O o o P ^.#X&XXXP.n.u : _ '  .",
";.X.$.@ $ & + +.4 $ & $ e $.;.:.:.X.:.%.@ O a ; % y k p.u.h = = $ P P.#X&X*XXXI.S.x : _  .X.",
".._ ..@.q < q >.#.q 7 e >.;.;.;.:.:.&.7 * = - d = % y k k a = ; $ 3.^.~.).$X XK.H.x < ..*.,.",
"} ' %.;.X...;.0.,... .%.0.0.;...,.,.` + d C C j j = % % % ; j d $ B.H.Y K.XX~.n.H.b w $.X.*.",
" . .*.X. ...;.,.X.} ..;.9.6.X.X.<.;., % Z W W Z j d j C Z Z Z C % 3.3.u S.U.3.x S.n.b @  ...",
"..%.*.} _ ..;..._ ' *.9.:... .;.q.q # W ~ ~ Q Z C - % = Z Q Q Z % 2.2.$ Y L.2.$ L V.L @ [ } ",
"<.>.%.X.*.*... . . .;.0.*. . ...,.7 = ~ ^ ^ ! Z ; % X o ; Q ~ W ; F c $ L n.L $ u 2.b @ )  .",
"9.;.X.*.,.X.}  .;.*.;.6.*.X.*.%.,.q = ~ ^ ~ Q C % o + @ o A ^ ~ Q - o $ m U v + @ H x   _ X.",
"<.X...;.,..._ X.0.<.;.:.*.;.0.<.<.r = ~ ^ ! Z ; ; % @ 1 + A ^ ^ Q C - o $ b v @ $.5 : )  .>.",
"%.X.:.<.,.%.X.;.<.,.X... .X.9.q.e c B - ~ ~ Z ; % 3 ) ) 1 9 C ^ ~ W C ; $ e #.]  .] [ %.>.>.",
"X.*.,.<.,.;.;.>.;.*.X. ... .;.9.2 b b.p C W Z ; o <  ._  .2 = A ~ ~ A j + O.;...' ..X.;.>.%.",
";.;.,.<.<.,.;.;.X...X. .o. . .*.@ L Z.U u M C = @ <  .}  .2 $ - W ~ W j % 1  .} } ..X.;.*.' ",
"*.X.X.;.,.;.......;.,.,.0.>.....@ p U U b.R j # O.' X.X. .2 i L & C Z j d % 7 X.*.X. . ... .",
"....*.;.;.*.%... .;.<.<.<.;. . .O.5 v b.n.L % @ $.X.,.;. .1 3 p $ ; Z j j % 7 ;.>.*._ ' *.>.",
"_ ..,.;...*.,.*...*.<.<.;. ._ X.<.7 u V.Z.L $ @ &.<.0.,...| , X $ d d s M % w ,.,.*._ ' 6.q.",
"X.%.,.,.;.*.>.9.6.;.:.<.*. .X.<.*.4 x K.K.b.v @ -.<.<.;.%.X.8 & v v u u L u w *.;.;.%.%.9.0.",
"%.*.;.>.*.X.%.<.9.>.,.,.X...;.6.;.> x K.K.n.b @ -.<.;.;.;.*. .1 @ p H Y T U v 3 %.%.X.%.,.,.",
"*.;.;.*... . .*.<.<.<.;...+.7 w 7 @ u B.K.Z.H @ 5.<.%.*.,.,..._ + L B.Z.V.b.b @ .. . .X.X...",
"X.*.:.:.*.....*.,.;.X.' ] @.B x c b n n.K.S.Y @ -.<.;.;.<.,.[ 1 x C.(.U.P.S.L 5 O.[ X.*. ._ ",
"..*.,.<.:.X.X.;.,.%.' _ : I  XS.(.(.P.P.K.K.2.@ $.,.:.;.:.*.q & B.(.+XXXU.K.V.H $ ] ;.;.} _ ",
" .%.,.9.<.*.X.;.,...) ' 3 F H.Y S.L.S.S.n.m.L + [ X.:.;.X.> c b.Y S.P.S.K.n.b.H $ ] ;.>. . .",
"..X.;.,.;... .X.,.*...<.9 u L p b L L L b v p + _ ' ..X. .2 u L v L L b L b v p + [ ;.*...%.",
"%.%.*.*.X. ...;.<.;.;.9.w @ @ @ @ @ @ @ @ @ @ 2 [ }  ... .4 @ @ @ @ @ @ @ @ @ @ @ +.:.;.%.>.",
";.*.X... . .X.,.<.;.<.0.%.[ $.-.[ ) [ $.$.$.&.&.X.X.....X.X...$.$.$.[ [ -.$._ [ $.;.,.>.;.<."
};
