/* XPM */
static const char *zombie_resized[] = {
/* columns rows colors chars-per-pixel */
"46 64 213 2 ",
"   c #121D0E",
".  c #0F0B15",
"X  c #110D16",
"o  c #140E19",
"O  c #190F1D",
"+  c #131416",
"@  c #151B15",
"#  c #1B1916",
"$  c #14131B",
"%  c #1B131B",
"&  c #161A1C",
"*  c #1C1B1C",
"=  c #22161D",
"-  c #25191E",
";  c #2A1B1F",
":  c #15260D",
">  c #192E0D",
",  c #183608",
"<  c #1B330C",
"1  c #1E3C0A",
"2  c #172113",
"3  c #192414",
"4  c #1B2C12",
"5  c #19231A",
"6  c #19291B",
"7  c #1E3212",
"8  c #203E0E",
"9  c #22271A",
"0  c #203313",
"q  c #223B13",
"w  c #22341A",
"e  c #253C1B",
"r  c #293F1E",
"t  c #1C0F20",
"y  c #1E1121",
"u  c #171B22",
"i  c #1A1A24",
"p  c #191D24",
"a  c #221325",
"s  c #221B23",
"d  c #2D1C20",
"f  c #261429",
"g  c #2B162D",
"h  c #2A1A2D",
"j  c #311E21",
"k  c #331A34",
"l  c #371C37",
"z  c #3C1D3C",
"x  c #1A2424",
"c  c #1C2926",
"v  c #1C242A",
"b  c #1E2B2C",
"n  c #1F312E",
"m  c #1F2931",
"M  c #2C2224",
"N  c #252428",
"B  c #222C2B",
"V  c #2C2A2A",
"C  c #352222",
"Z  c #3B2524",
"A  c #3E2825",
"S  c #312E2C",
"D  c #223728",
"F  c #22332E",
"G  c #35312E",
"H  c #212D33",
"J  c #2E2A3C",
"K  c #3D213B",
"L  c #223334",
"P  c #233933",
"I  c #2B3A33",
"U  c #25353A",
"Y  c #263B3B",
"T  c #293C3E",
"R  c #383632",
"E  c #401F3E",
"W  c #422B26",
"Q  c #462D28",
"!  c #492F29",
"~  c #4D322B",
"^  c #51352C",
"/  c #41203F",
"(  c #423E36",
")  c #1B4404",
"_  c #1D4B03",
"`  c #1F4209",
"'  c #214E05",
"]  c #21430C",
"[  c #244B0B",
"{  c #284D0F",
"}  c #245206",
"|  c #285606",
" . c #265409",
".. c #29560B",
"X. c #2C5A0D",
"o. c #305E0F",
"O. c #254412",
"+. c #294C12",
"@. c #294419",
"#. c #2D4C1A",
"$. c #2C5312",
"%. c #2F5C11",
"&. c #315716",
"*. c #315E12",
"=. c #30531A",
"-. c #345B1B",
";. c #346215",
":. c #386617",
">. c #366418",
",. c #39661A",
"<. c #3C6A1D",
"1. c #284239",
"2. c #2A453B",
"3. c #2B4A3E",
"4. c #35483B",
"5. c #396020",
"6. c #3F6D20",
"7. c #49453B",
"8. c #416E22",
"9. c #447225",
"0. c #487629",
"q. c #2E3742",
"w. c #2C3D43",
"e. c #3A3145",
"r. c #452142",
"t. c #492446",
"y. c #4D264A",
"u. c #4B2849",
"i. c #51274D",
"p. c #53284E",
"a. c #552A51",
"s. c #5B2C55",
"d. c #5F2E58",
"f. c #4B3551",
"g. c #622F5A",
"h. c #65315C",
"j. c #68325E",
"k. c #6D3562",
"l. c #713765",
"z. c #733866",
"x. c #763A69",
"c. c #793B6A",
"v. c #2B4443",
"b. c #2D4D44",
"n. c #2F4848",
"m. c #324449",
"M. c #324E4B",
"N. c #2E5144",
"B. c #2F5148",
"V. c #345542",
"C. c #31544A",
"Z. c #375A49",
"A. c #345C4D",
"S. c #3D4852",
"D. c #3C5553",
"F. c #3C5B53",
"G. c #36624E",
"H. c #3A6048",
"J. c #366351",
"K. c #396453",
"L. c #3A6B54",
"P. c #3C6B57",
"I. c #3D7257",
"U. c #3E7459",
"Y. c #3F785A",
"T. c #5A5647",
"R. c #445358",
"E. c #605C4B",
"W. c #45684C",
"Q. c #5A624E",
"!. c #446D54",
"~. c #436D58",
"^. c #42745A",
"/. c #477558",
"(. c #437B5B",
"). c #4C7C5A",
"_. c #57775A",
"`. c #686452",
"'. c #66765B",
"]. c #74755C",
"[. c #4C7861",
"{. c #746F71",
"}. c #817D63",
"|. c #46815F",
" X c #4D815D",
".X c #52865F",
"XX c #478260",
"oX c #4B8562",
"OX c #4E8A64",
"+X c #548A65",
"@X c #538C65",
"#X c #5D8964",
"$X c #569066",
"%X c #589167",
"&X c #55936A",
"*X c #5A956A",
"=X c #5E9A6C",
"-X c #6F886F",
";X c #629B6E",
":X c #639E70",
">X c #65A373",
",X c #6AA776",
"<X c #6FAC7A",
"1X c #77A27B",
"2X c #72AE7B",
"3X c #72B07C",
"4X c #77B47F",
"5X c #8E8A6B",
"6X c #9B9875",
"7X c #A7A37C",
"8X c #79B780",
"9X c #7AB881",
"0X c #B7B58A",
/* pixels */
";.>.%. ...*.%. .} ;.9.6.X.' [ &.&.[ ] +.+.) ) ` ] [ ..X.} ..,.<.*.X.X...*.;.;...}  .X.;.<.;.",
"*.*.....;.<.*.} } ;.<.;. .] @ & & @ @ & & @ @ @ @ 3 %.>.*.X.>.;.X.*.;.X.%.*.*.;.X...;.,.;.%.",
";.X.} X.6.8.;. . .;.,.q   6 H.).#X#X#X#X#X#X#X#X#XW.3 3 +.;.*.....;.,.*.%.*.*.>.;.X.;.;.....",
"<.;. .X.8.6.*...%.*.O.N B 2.&X<X2X>X4X8X8X4X2X4X9X;X4.I e +.} )  .>.;.X.;.<.;.;.>.*...} } X.",
"<.>.....>.;...X.;.&.* J D.XX2X4X>XOX2X2X4X3X>X2X8X4X3X*X2.4 _ _ X.,.;.%.>.<.;.X.;.*.} _ } >.",
",.,.*...%.X. .*.=.* e.f.R.XX,X4X4X2X4X{.-X4X4X4X4X4X4X2X:XW.@ [ >.<.;.;.,.,.X...;.;. .) ..<.",
">.6.<.;.X. .} *.=.% f.R.P.(.&X,X4X4X*X-X1X4X4X:X&X=X4X4X4X_.+ -.9.9.<.8.,.X.} %.<.<.*.} ..<.",
" .,.9.;... .} ..+.& e.F.U.I.~.%X,X4X=X,X8X4X4X>XOXoX>X3X4X+XF e +. .%.<.>...} X.;.*.*.X.X.;.",
"' ;.6.*...X.....O.u q.F.I.I.D.^.*X<X<X<X<X<X<X<X&XU.oX>X,X*XL.& < _  .;.;... ...X...;.;.*.;.",
".. .....;.6.>.X.] & q.m.A.P.R.[.@XoXoXXXXX|.|.|.K.C.(.(.(.(.G.& #.;.....;.*... . .*.6.8.>.<.",
"%. .} } ;.9.,..., $ H U w.m.S.[.L.c c c c c c Y B.L.I.P x c x $ =.6.*...%.;.%.} } X.,.;...*.",
";...} } ;.6.;.} , + u v H q.S.F.2.$ 7.T.T.7.$ m A.U.A.u G R X X #.6.>.*.X.;.;... .X.;...' X.",
",.;.X...*.;...) > x x $ v m.D.M.L p 5X7X6X].% Y ~.oXA.u T.E.+ @ ] X.<.6...%.<.>.>.>.*.} ' %.",
",.;.%.X.;.*...> x J.A.b v M.^.^.b.s 6X0X6XT.* V.@X:X%Xc ( 7.@ [ ' } ,.8... .*.;.>.>.;. . .;.",
";.;.*.X.;.;...> c J.Y 2.v.v.M.^.Z.$ G R S V Z.@X!.2.(.c * * @ [ } } ;.<...}  ...;.;.;...X.;.",
"..*.;...*.<.*.7 x M.U v.n.w.v.[. X2.P b L V.@X>XW.x L.x b n @ $.%.....%...} _ _ } %.,.;.%.*.",
"} ;.;. ...>.%.q x U v.v.w.w.w./.%XoX^.F.~.&X,X>X!.1.(.P 3.3.+ ..>.;.X.....*.X.....;.9.<.;.%.",
"} *.;.}  .*.X.X.O.& v.v.w.w.U U K.=X:X:X;X;X;XoX+X;X:X(.b.b @ [ ,.<.*.....;.;.*...*.9.<.;.X.",
"} ....} } } ....' 1 5 u v w.w.H Y K.;X,XW.c B '.Q.4.].I & 5 ) ' ;.<.>.*...;.>.;.....,.,.;...",
"} } ;.,.X.} ' ' } ..@.* u H w.H Y J.oX!.F . o }.`.V 5XV . 3 } '  .X.%.%.%.%.,.,.X...;.<.;.} ",
" . .>.<.*...} } ' { 5.9 o & w.U v.P.P.b . X $ ].T.V }.V + 7 ..' } ..;.;...X.,.>... .X.,.*...",
";.X.;.>.;.;.%.%.O.+ $ y y & T w.M.L.C.x X X X % % $ * o < ;.;.}  .;.8.,. .%.,...} ' } ..%.,.",
">.X.....*.;.4 2 9 l z l f o i U M.P.J.c M ( $ T.7.* T.s < X.,.<.<.;.*.X...6.>. .......} %.8.",
",.%.} } ..@.M g z d.a.y.l a o p Y J.P.3.W.'.2.-X_.4._.N < ..,.6.6.*.......6.*.' ..%.X.} %.8.",
",.*._ ' O.y t.s.h.x.g.a.y.l y o p v.J.I.@X:X(.XX|.U.G.x < ..,.;.;...X.X.} X.} _ ..;.;.} X.;.",
",.;.} < s y.a.j.x.c.x.h.a.t.z a o u T J.Y.I.n.A.L.N.& ] ..X.;.X.%...*.*.} .... ...;.>.*.;.*.",
";.*...> a a.k.x.c.c.c.k.d.y.z k a o p c F b x c b x + [ X...%.%.%.X.%.%...%.;.*...*.;.>.<.*.",
"..X.] 9 l s.l.c.x.l.x.k.d.i.t.z k y y o X X X O a a a 0 [ _ ..6.8.*.}  .>.<.8.<.....%.,.<.*.",
"....@ l s.d.l.c.l.g.k.d.i.p.p.r.z z z a o o o k z z r.y 0 ....;.;.;...X.,.>.>.;... . .X.X...",
"X.%.@ l d.l.x.c.x.j.k l t.p.a.i.i.i.i./ z E z r.k f r.r.f 4 ..X...*.X.%.<.;.X.*.;.*... .}  .",
",.,.5 l h.l.t.s.l.a.y g r.p.a.a.d.k.s.p.y.t.t.t.g y E t.z M 4 ' _ %...%.<.*.} *.9.9.,..._ ..",
"*.#.@ g u.s.h K a.t.y f z y.a.s.j.x.h.g.d.a.i.y.k % z t.r.h & 8 ] ` 1 ] +.$.%.*.<.<.,.;.....",
"O.+ $ $ i L U v f z O f l t.a.k.c.c.c.c.c.l.g.a.k y r.t.g u L & & & & & + w &...%.;.<.<.X.} ",
"8 + v 1.A.J.A.b o y o f l r.a.k.c.c.c.c.c.c.z.g.l y / f B b.^./.).).).).).4.@ + , X.<.<.X._ ",
"1 $ Y P.@X+XA.v X o O g z y.a.h.k.c.l.x.c.c.c.h.l o f p 1.P.OX*X=X=X=X=X=X XV.2.6 1 ;.>.%...",
"O.$ v.).>X;X~.L X o y g z p.a.a.d.k.k.z.c.c.c.h.l X o v 2.L.^./.).).oX*X$X@XOX|.3.D +.*.%.*.",
"#.@ L !.;X;X=XV.$ o y f l y.p.t.y.g.z.c.c.c.c.h.K X + & v Y U H H Y A.@X/.J.U.$X$XH.@ ..X.>.",
",.+.& 2.(.%X=X@XZ.o a f k z l t.s.l.x.c.c.c.c.x.r.@ ] @ $ & & % $ c J.^.1.L J.A.P.N.@ $.X.*.",
";.*.@ L J.OX*X=X.XV.i t f l l t.p.g.j.z.l.k.c.k.K @ $.O.7 0 7 < @ p B.L.F & P v.A.3.@ &.%.;.",
"....4 c 1.^.@X%X*X@XF & O f l t.y.i.a.j.g.p.d.a.l @ &.,.X.;.X.} : & L G.F + 2 H C.3.@ *.;.<.",
"} ' _ : u b.L.oX*X%X^.P o o O l t.i.p.i.E g a / k @ *.>...;.;.*.4 X + N.b : ] + 2.1.@ %.;.<.",
"..} _ : x A.P.oX=X*X@XL.P $ - = h y.i.k % % ; a O @ %.>.X.>.>.;.$.e + & $ 4 +.+ & & @ $...;.",
",.*...< x G.J.oX%X).~.^.3.$ ; - a k k y % - d - = # 7 &.:.:.;.;.;.>.e 7 q #.;.q < q @..._ ..",
"*...$.w b G.b.~.oXJ.Y G.N.$ d j ; * * % - j j C C d + ] ,.,...;.9.9.*. ...,.9.;...X.;.%.' } ",
".. .@ b n.A.x 3.I.A.u 3.3.% C A A Z C j d j Z W Q Z % , ;.<.X.X.6.8.;...} X.,.;...} ..*. .} ",
"} [ @ L B.P & 2.K.T & 2.2.% Z Q Q A = % - C A Q ~ ~ W # q 0.;.} ..>.8.*.' _ ..;..._ } *.X...",
" .) @ H 1.u $ L b.L & c B ; W ~ Q ; o X % ; Z ~ ^ ^ ~ = 7 ,...}  .*.9.;. .} } ..*.*.X.%.,.<.",
"X.`   x H @ + v U m $ X - Q ~ ^ A o + + o % C Q ~ ^ ~ = q ,.%.*.X.*.8.;.*.;. .} %.,.*...;.8.",
">. .) : 5 $.@ v b $ o - C Q ^ ^ A @ 1 @ % ; j A ~ ^ ~ * r <.<.9.;.*.>.;.<.9.X._ ..,.;...X.<.",
">.;.%.[ ]  .] #.e $ ; C W ~ ^ C 9 1 ) ` 3 % ; A ~ ~ - B c e 0.8... ...X.,.<.;...%.,.<.>.X.*.",
"%.>.;.X...' ..;.O.+ j A ! ~ A = 3 } _ } < o ; A W C p v.b 2 8.;. .| } X.*.;.>.;.;.,.<.,.*.X.",
"' *.;.....} } ..1 % j W ! W - $ 3  .} } > @ = C M u U C.L @ *. . .o. .X...X.;.;.,.<.<.,.;.;.",
" ... .} X.*.X.7 % d j A C * P i 2  ...X.' ] % j R v.U U p @ ....>.9.,.,.;.......;.,.;...X.*.",
";.*.' _ *.>.;.7 % d j Z ; $ p 3 1  .*.,.X.$.@ % F b.v.c 5 O. .} ;.<.<.<.;. ...%.*.;.;.*.....",
"0.6.[ _ *.,.,.w % M - M d & X < | ..,.9.,.&.@ $ L B.B.u 7 <..._  .;.<.<.*...*.,.*...;.,..._ ",
"9.8.%.%.;.;.*.w u L & u v v + 8 X.*.;.<.<.-.@ v v.J.G.x 4 *.<...} *.<.>.;.6.8.>.*.;.,.,.%...",
",.,.*.X.%.%.3 v U T Y H p & 1 ..*.;.;.;.<.-.@ b b.J.J.x > ;.6.;...X.<.,.,.8.<.%.X.*.;.>.*.%.",
"...... . ...@ b v.C.C.B.L + _ ..,.,.*.%.<.5.@ H B.J.b.u @ 7 w 0 +...;.<.<.<.*. .} ..*.;.;.*.",
"_  .*.X.' O.5 P A.L.I.(.V.x 1 [ ,.<.;.;.<.-.@ P A.J.b.n b c x B @.] ' X.;.,.*.....*.>.>.*.X.",
"_ } ;.;.] + H B.J.I.oX@X(.B.& q *.>.>.>.:.$.@ 2.J.J.L.L.(./.A. X1.: _ ' %.>.;.X.X.>.<.,.*...",
" . .;.;.] $ H v.B.J.A.L.A.Y v.c > X.;.>.X.[ + L n.b.A.A.K.A.Y G.F 3 ' ) ..>.;.X.*.<.8.,.*. .",
"*...*.;.] + p v b L b L L v L u 2 } ....' ` + p v b L L L n p L u w ,...*.,.X. ...;.,.;.X...",
";.%.;.>.+.@ @ @ @ @ @ @ @ @ @ @ >  .....} [ 3 @ @ @ @ @ @ @ @ @ @ w 8.;.;.<.;... .X.*.*.%.X.",
"<.;.>.,.;.$.[ ` $.-.[ [ $.$.$...X.X.....X.X.&.&.$.$.$.[ ) [ -.$.' %.9.,.;.<.,.X.} } ....*.;."
};
