/* XPM */
static const char *exit[] = {
/* columns rows colors chars-per-pixel */
"64 64 219 2 ",
"   c #1D0F0F",
".  c #1D1017",
"X  c #1E141B",
"o  c #221216",
"O  c #2B1515",
"+  c #21161B",
"@  c #2D1718",
"#  c #22191E",
"$  c #321716",
"%  c #341A17",
"&  c #391B17",
"*  c #351B18",
"=  c #391C18",
"-  c #36211F",
";  c #2E3E1A",
":  c #31361D",
">  c #323E1D",
",  c #241A22",
"<  c #2D1C23",
"1  c #2A1F28",
"2  c #311F28",
"3  c #2D242C",
"4  c #312126",
"5  c #342E23",
"6  c #34242C",
"7  c #39262D",
"8  c #3C2C2E",
"9  c #393726",
"0  c #372B33",
"q  c #3D2B32",
"w  c #3E3134",
"e  c #3F333D",
"r  c #432116",
"t  c #4A2417",
"y  c #44231C",
"u  c #4C241A",
"i  c #4E2A1D",
"p  c #52251B",
"a  c #56291D",
"s  c #5A2B1E",
"d  c #4A2923",
"f  c #43342F",
"g  c #5D3123",
"h  c #422D34",
"j  c #433236",
"k  c #4A3336",
"l  c #4C3D34",
"z  c #44343A",
"x  c #4A353A",
"c  c #46383C",
"v  c #4C3A3D",
"b  c #583B37",
"n  c #533C3E",
"m  c #602D20",
"M  c #623223",
"N  c #6B3222",
"B  c #623B2D",
"V  c #733523",
"C  c #7C3B26",
"Z  c #773928",
"A  c #653C32",
"S  c #305E0F",
"D  c #2E4E15",
"F  c #2F411A",
"G  c #304F16",
"H  c #33431C",
"J  c #324B19",
"K  c #2F5214",
"L  c #2F5D11",
"P  c #315315",
"I  c #305E12",
"U  c #316012",
"Y  c #3B4322",
"T  c #46432D",
"R  c #49472F",
"E  c #4A4430",
"W  c #55443A",
"Q  c #7F402A",
"!  c #784331",
"~  c #4B3D42",
"^  c #443C49",
"/  c #553E41",
"(  c #4D4043",
")  c #4E424C",
"_  c #534143",
"`  c #5B4344",
"'  c #584548",
"]  c #5C4549",
"[  c #5D494B",
"{  c #46475A",
"}  c #574C56",
"|  c #634947",
" . c #614649",
".. c #634B4B",
"X. c #6A4E4E",
"o. c #655547",
"O. c #6B514D",
"+. c #654E51",
"@. c #684F52",
"#. c #665154",
"$. c #6B5354",
"%. c #63525A",
"&. c #6A585C",
"*. c #6D5B5D",
"=. c #725654",
"-. c #745957",
";. c #755C5B",
":. c #7A5E5C",
">. c #716353",
",. c #7D615E",
"<. c #575665",
"1. c #655A65",
"2. c #6D5C63",
"3. c #725F67",
"4. c #6C6168",
"5. c #7D6462",
"6. c #766469",
"7. c #7B6A6D",
"8. c #696978",
"9. c #776B72",
"0. c #7A7279",
"q. c #823C26",
"w. c #863F28",
"e. c #85432B",
"r. c #8A452B",
"t. c #8B462C",
"y. c #92452D",
"u. c #94482D",
"i. c #9A4B2E",
"p. c #884B35",
"a. c #954B31",
"s. c #9C4E31",
"d. c #8B513C",
"f. c #9D5234",
"g. c #A24C2D",
"h. c #A3512F",
"j. c #A44F31",
"k. c #A45334",
"l. c #A95736",
"z. c #A75836",
"x. c #AA5836",
"c. c #A35738",
"v. c #A55A3A",
"b. c #AB5C3A",
"n. c #B05836",
"m. c #B35D3A",
"M. c #AE603D",
"N. c #B3623E",
"B. c #BA643E",
"V. c #BE683F",
"C. c #C0683F",
"Z. c #A85E40",
"A. c #866257",
"S. c #82635F",
"D. c #8D7253",
"F. c #AE6342",
"G. c #B46542",
"H. c #BB6641",
"J. c #B36945",
"K. c #BD6B44",
"L. c #BF6E49",
"P. c #BF7048",
"I. c #836662",
"U. c #866964",
"Y. c #8A6B66",
"T. c #866D69",
"R. c #8C6D69",
"E. c #906F67",
"W. c #916F68",
"Q. c #8E706A",
"!. c #927167",
"~. c #94736C",
"^. c #99776D",
"/. c #9B786E",
"(. c #826D71",
"). c #847175",
"_. c #897678",
"`. c #8C7679",
"'. c #8D797C",
"]. c #937973",
"[. c #9D7B71",
"{. c #917A7D",
"}. c #C36C43",
"|. c #C06B44",
" X c #C67146",
".X c #C37249",
"XX c #C87349",
"oX c #C9754B",
"OX c #CD784D",
"+X c #CE7A50",
"@X c #91827E",
"#X c #6E7080",
"$X c #747584",
"%X c #7A7984",
"&X c #8F7F82",
"*X c #967E82",
"=X c #987F82",
"-X c #8E8186",
";X c #968485",
":X c #9B8285",
">X c #9B888A",
",X c #9B8C8D",
"<X c #9F9190",
"1X c #A38789",
"2X c #A3898C",
"3X c #AA8D8D",
"4X c #AB8F90",
"5X c #A59695",
"6X c #AC9494",
"7X c #AE9A9A",
"8X c #B39595",
"9X c #B79997",
"0X c #B89A97",
"qX c #B59B9A",
"wX c #B99B99",
"eX c #B2A19F",
"rX c #BBA19F",
"tX c #BAA4A4",
"yX c #C0A2A3",
/* pixels */
"L L L I I L I I L L L I I I Y W W | | | | v k ] ....] | | | ` n k ( [ _ | | | | ` ] j v | | ] | ..` 9 K I L L I I I I I I I I I ",
"I L I I I I I I I I I I I H O./././.^./.^...x U.~.~.R.W.I.T.@X5X&X`.qX,X].U.R.~.W.W.x ..~.~.R.~.~.R.] 9 P I I L L L I I S I I I ",
"I L L I I L L I I I I L L Y E.^.~.~.~.~.^...h I.R.U.I.5.,XeXrX9X:X{.8XwXtX7X7.-.U.U.j ..U.Y.R.R.Y.U.:.j P U L L L L I I I I I I ",
"L L L L I L I I I I I I I Y R.~.~.~.~.~.~...h -.;.).*.;X9X8X3X1X3.%.{.3X8X9X2X%.(.:.j ' :.I.U.U.5.:.:.c P I L I I L L L L I I I ",
"L U L L I I I I I I I I I Y U.~.~.Q.R.Y.Y.] 2 q 7.tX2X(.:X*X2.z , X q %.`.2X`.'.wX<Xw 7 / n j h j / x 6 P U L L L L I I L I I I ",
"L I I L I I I L L I I I I Y Y.Q.Y.Y.U.U.I.n z '.{.3X3X2.) 0 X o O O o . 3 ~ } =X6X*X'.4.Y.Y.k 4 X.~.=.4 P L L L I L I I I I I L ",
"L L I I I I U L I I I I L 9 -.U.U.U.U.U.S.*.,XwX:X2.} 3 . O y V N C N & $ . , ~ 2.(.8XqX{.Y.;.n ~.Q.U.x D L L L I I I U I I L L ",
"L I I I L I I I I S L L L : X.I.I.S.I.S.5.,X9X3X(.3 . O a V f.H.f.G.k.C u.m = o , %.1X8X7X).$.n Y.U.U.v D L I I I I I I I I I I ",
"I L I I L I L L L L I I L 9 ] @.+.+.X.;.6X:X(.%.3 O p N k.x.K. XM..Xx.e.H.k.a.s @ , ) _.`.7X&.q +.$.$.j G I I I I I I I I I I I ",
"L L L I I L L L L I I I J f x n v v 0 _.rX1Xz + O N s.f.B.N.K.OXb.|.x.t.}.N.K.t.a $ + 3 ).wX<Xq n n n 7 G I I I I L L L I I I I ",
"I I I I I L L L I I I I Y S.~.R.R.R.~ ;XwX:X0 O V F.|.f.N.N..XoXx.V.x.t.}.G.K.e.%.~ O # (.9X5Xv R.!.U.v G L L L I L L L I I I I ",
"I I I I I I L I U I I U Y U.Q.U.U.U.~ _.:X(.3 * k.L.}.f..XG.K.XXz.B.x.r.V.c.=.} %X$X# + 2.:X>Xv I.R.U._ D L L L I I I I I I I I ",
"I I I I I I L I U U U U Y U.R.R.R.U.v 4.).1.1 = k.K.}.k..XN.k. Xf.G.b.A A.6.<.{ 8.$X# X } '.0.z I.U.U._ D I L L L I L I I I I I ",
"I I I I L L L L I L I I Y U.R.R.U.U.v >XwX;X3 = z.K.}.c.oXN.x. Xz.oXb.~ <.{ { { $X$X# , `.rX7X~ I.U.U._ G I L L I I L L I I I I ",
"I I I L L L I L L L I U Y S.Q.R.R.I.v ;XwX:X3 = k.K.V.f..XN..XOXx.XXb.Z a.Z b e $X8.+ , `.9X7X~ ,.Y.U.v G I L L I L L L I L L L ",
"L L L L L I I L L L I L H S.R.U.U.:.k ;XwX:X6 * k.N.x.a..XN..XOXz.}.b.e.v.v.G.e.} ) = , `.9X7X~ I.Y.U.v D L L L L L L L L L L L ",
"L L L L L I I L L I I L Y I.Q.U.I.,.~ ;XwX:X6 % u.b.k.t.K.N..X Xx.OXb.t.z.c.}.f.M Z u # `.9X7X~ 5.Y.I.v G I L I I I I I L L L L ",
"L L L L L L L L L I I I Y ,.R.I.S.=.z ).2X7.3 $ u.b.g.r.x.x.K.}.z.H.x.w.g.c.H.k.k.l.a # `.wX7X~ :.U.:.k G L I I I I I I L L L L ",
"L L L L L L L I I I I I > -.U.I.I.,.z 4.2X3., * s.N.k.t.k.k.K.}.z.n.x.e.h.c.H.k.G.V.m # `.wX7X~ :.U.I.v D L I I I I L L L I L I ",
"L I L L L L L I L I I I > [ :.;.;.;.z ,XyX:X3 = k.G.n.s.m.k.P.}.z.m.x.t.N.v.N.k.J.}.M # '.wX7X~ *.:.;.v G I I I L L L L L L L L ",
"L I I L L I I I G Y Y Y 9 h x x x z 6 ;X9X*X3 = z.K.m.c.}.m.K.XXz.m.c.t.|.G.K.z.G.}.M # `.0X7Xw j x k q 9 Y Y H P I I L L L L L ",
"I I I L L L I H l Y.~.W.E.W.W.R.R.S.v ;XwX*X3 = z.K.|.b. XB.K.XXz.|.b.t.}.G.XXb.G.}.M # `.wX7Xv :.~.E.R.W.W.E.O.5 P I I L L I I ",
"L I I L L L L H S.~.Y.R.R.R.Y.Y.R.R.~ ;XwX*X3 = z.K.}.b. XB..X Xz.oXJ.r.|.G.XXk.x.}.M # '.wX7X_ U.R.Y.Y.R.R.R.U.j P I I L L I L ",
"L L L L L L L H I.R.Y.R.R.R.R.U.U.I.v ;XwX*X3 = k.d.p.c. XB..X}.z..XJ.r.|.N.K.c.z.|.M # {.wX7X( I.U.U.U.R.R.R.I.j P I L L L L L ",
"I L L L L L L H =.R.U.R.R.R.Y.U.U.I.~ ;XwX;X3 = s.%.} p.XXB..X}.x.XXG.r.B.v.K.x.b.|.M # '.wX7X( ,.U.U.I.U.U.U.:.8 P I I L L L L ",
"L L L L L L L > X.U.U.U.U.Y.U.I.I.I.~ ;X9X*X3 & C 0.8.! }.B..X}.b.}.M.e.k.c.H.x.N.|.M # `.wX7X~ ,.U.U.I.I.,.I.,.j K I I I L I L ",
"L L L L L L L ; ' =.$.$.+.$.;.I.I.I.~ ;X9X*X3 O d 8.<.g a.t.Z..Xb.|.M.Q z.k.K.x.v.n.s # `.wX7X~ :.I.I.=...#.$.#.w K L L I I L L ",
"L L J 9 R R R l x v v h k 7 q :.I.:.z ;XwX*X3 o - D.D.A.B d g N.N. XM.e.x.c.K.x.f.g.a # `.wX7X~ :.I.$.7 h x h v k E R R T 9 P L ",
"L L H ..~.W.~.~.~.~.~.S.W.| q :.I.,.c ;XwX:X3 o @ >.o.y y % p k.N. XM.w.b.v.}.k.u.g.a # `.wX7X~ -.I.=.7 :.R.S.~.~.~.~.~.R.v P L ",
"I L F $.Q.R.Y.Y.U.R.R.Q.R.X.7 =.S.I.~ ;XwX*X3 O N 1.<.u C V q.m.b.K.b.e.k.v.}.k.i.x.s # `.wX7X~ ;.I.-.q -.R.Q.R.Y.R.R.R.U.k P L ",
"I L F ` U.Y.R.R.Q.R.R.Y.U...7 -.I.5.~ ;XwX*X3 = s.#.{ m i.i.k.}.M.K.b.e.k.k.}.c.b.|.M # `.wXqX~ :.,.=.q X.Y.R.Q.R.Q.R.U.:.j G L ",
"L L ; x [ +...$.$.$.$.#.+.v 6 [ +...z ;X9X*X3 * k.d.p.r.m.m.K.oXG.}.b.r.B.v.H.k.N.|.M # `.wXqXc [ ..' 6 ~ #.#.$.$.$.$...[ q G L ",
"L L H k h q j 2 < h / / ` ` / ` ` n 0 ;X9X*X3 * k.G.|.i.B.B.oX XG.K.v.r.C.N.H.k.b.|.M # '.wX7Xz / ` ` / ` ` ` 7 < 2 v n 7 < D L ",
"L L H X.Y.:.~.v 7 Y./.^.[.[.[.[.[.^._ ;X9X*X3 = k.G.K.i.V.B.oX XM..Xv.e.|.N.K.k.b.|.M # `.9X7X_ ~.[.[.[.[.[.[.:.4 X.^.~.-.8 D L ",
"L L H :.Q.U.U.$.k ^.~.~.~.~.~.~.~.~._ ;X0X*X3 % k.G.K.i.K.B..X}.x.oXF.e.|.M.H.k.N.oXM # `.9X7X_ R.^.~.~.~.~.^.R.k Y.U.I.R.n D I ",
"L L H $.I.,.-.] h E.~.~.~.~.~.~.Q.R.~ ;X9X:X3 $ r.v.K.s.K.B..X}.z.XXJ.r.|.b.N.s.G.+XM # {.wX7X( Y.~.~.~.~.~.~.,.h ,.:.5.;.8 G I ",
"I L F q x x j 4 k Y.R.U.I.I.U.U.U.S.v ;X9X:X3 % y.s.V.k.K.B.}.}.z.oXJ.t.}.b.N.s.b.OXM # {.wX7X( I.R.Y.Y.U.Y.R.X.7 j x x q < P I ",
"I L H ..I.S.:.-.U.U.I.S.I.I.U.I.S.,.~ ;X0X*X3 = k.k.B.f.K.B..X}.z.OXJ.t. XB.K.k.b.oXM # {.wX7X( I.U.Y.U.U.U.U.I.S.=.S.I.:.q G I ",
"I L H :.~.Q.~.~.R.I.I.S.-.` S.S.I.,.v ;X9X*X3 = z.k.m.k.|.N.XXoXz.}.J.t.XXG.}.k.N.+Xg # {.wX7X~ ,.U.U.U.I.U.U.U.U.R.R.U.;.8 D I ",
"L I H =.R.U.U.U.U.I.I.:./ 7 =.:.S.I.~ ;X9X{.3 = z.m.V.x. XG.G.}.z.K.J.t.oXG.XXk.d.J.g # `.8X7Xv ;.U.U.U.U.I.I.I.I.I.U.S.-.w D U ",
"I L ; / $.$.$.$.$.$.$.+.v 7 ..+.+.+.c ;X6X*X3 = z.K.}.x. XN.b.XXz.oXJ.t.XXG.J.! 4.#.y # 7.4X7Xc ..$.$.$.$.$.$.$.$.$.$.+...7 D L ",
"J T W n n n h 2 j n k n n x n n n x 6 2.6.} , = z.K.}.b. XN.J.OXz. XJ.e.N.a.O.} $X$X+ X ~ 6.6.0 v n n n n n n v 7 4 v n n n l > ",
"j Y.[./././.S.7  .~.U.~.~.~.~.~.~.U.v '.6X).3 = z.K.}.b. XB..X Xz.H.F.b 7.4.<.{ 8.$X# # 6.2X,X~ U.~.R.~.~.~.~.U.h n ^./././.^...",
"` /.~.~.~.~.Q.j ..R.R.U.R.R.U.U.R.U.~ ;XwX*X3 = z.K.}.v.oXK..X}.z.}.J.j ) e ^ { #X$X# , '.9X7X~ :.Y.R.R.R.R.R.I.j =.[.~.~.~.^.;.",
"` ~.Q.Q.Q.~.Y.j [ R.R.R.R.R.R.R.R.U.v ,XrX:X6 % k.K.|.f.K.N..X}.k. XM.V q.C A h 8.8.+ , {.8X7X~ $.;.:.:.:.:.=.$.j =.~.~.Q.~.~.;.",
"n U.Y.R.R.Y.I.j ` R.U.Y.R.R.R.R.Y.I.z 0.>X6.1 $ u.b.B.s.K.x..X}.k.oXb.r.x.v.K.t.^ ~ = # &.'.;X0 x | n 6 4 x  .v < O.R.R.Q.Y.U.$.",
"v U.Y.Y.U.U.I.h _ U.U.U.U.U.U.U.U.I.z 9.:X6.3 % f.z.x.a.K.z.x.B.k..Xb.q.k.v.}.f.Z w.p X 2.;X-Xq =.^.~.` k ~.[.I.4 ..R.R.Y.U.U.$.",
"j :.U.I.I.I.=.q [ U.I.I.U.U.I.I.U.I.v ;X9X*X6 O i.z.k.a.H.k.k.z.i.}.x.q.k.c.}.s.u.g.a # '.wX7X~ I.U.W.=.| ~.R.I.k n I.Y.I.I.I.[ ",
"8 $.,.:.:.=.$.h ` ,.:.,.,.-.-.,.,.:.c ;X8X'.3 O a.s.i.u.N.k.s.j.r.x.a.e.x.c.K.i.u.i.a # `.9X6Xv :.5.5.../ U.5.;.x x :.:.:.:.;.[ ",
"I I I I I I I I I I I I I I I I I I I I I I I I I I I I I I I I I I I I I I I I I I I I I I I I I I I I I I I I I I I I I I I I ",
"I I I I I I I I I I I I I I I I I I I I I I I I I I I I I I I I I I I I I I I I I I I I I I I I I I I I I I I I I I I I I I I I ",
"I I I I I I I I I I I I I I I I I I I I I I I I I I I I I I I I I I I I I I I I I I I I I I I I I I I I I I I I I I I I I I I I ",
"I I I I I I I I I I I I I I I I I I I I I I I I I I I I I I I I I I I I I I I I I I I I I I I I I I I I I I I I I I I I I I I I ",
"I I I I I I I I I I I I I I I I I I I I I I I I I I I I I I I I I I I I I I I I I I I I I I I I I I I I I I I I I I I I I I I I ",
"I I I I I I I I I I I I I I I I I I I I I I I I I I I I I I I I I I I I I I I I I I I I I I I I I I I I I I I I I I I I I I I I ",
"I I I I I I I I I I I I I I I I I I I I I I I I I I I I I I I I I I I I I I I I I I I I I I I I I I I I I I I I I I I I I I I I ",
"I I I I I I I I I I I I I I I I I I I I I I I I I I I I I I I I I I I I I I I I I I I I I I I I I I I I I I I I I I I I I I I I ",
"I I I I I I I I I I I I I I I I I I I I I I I I I I I I I I I I I I I I I I I I I I I I I I I I I I I I I I I I I I I I I I I I ",
"I I I I I I I I I I I I I I I I I I I I I I I I I I I I I I I I I I I I I I I I I I I I I I I I I I I I I I I I I I I I I I I I ",
"I I I I I I I I I I I I I I I I I I I I I I I I I I I I I I I I I I I I I I I I I I I I I I I I I I I I I I I I I I I I I I I I ",
"I I I I I I I I I I I I I I I I I I I I I I I I I I I I I I I I I I I I I I I I I I I I I I I I I I I I I I I I I I I I I I I I ",
"I I I I I I I I I I I I I I I I I I I I I I I I I I I I I I I I I I I I I I I I I I I I I I I I I I I I I I I I I I I I I I I I ",
"I I I I I I I I I I I I I I I I I I I I I I I I I I I I I I I I I I I I I I I I I I I I I I I I I I I I I I I I I I I I I I I I ",
"I I I I I I I I I I I I I I I I I I I I I I I I I I I I I I I I I I I I I I I I I I I I I I I I I I I I I I I I I I I I I I I I "
};
