/* XPM */
static const char *patlamatwo[] = {
/* columns rows colors chars-per-pixel */
"64 64 253 2 ",
"   c #093E00",
".  c #0B4402",
"X  c #0B4806",
"o  c #144501",
"O  c #1B4601",
"+  c #154B04",
"@  c #1C4B04",
"#  c #164E0A",
"$  c #1A5209",
"%  c #1C520A",
"&  c #184C11",
"*  c #1B5712",
"=  c #224C04",
"-  c #2A4905",
";  c #364D05",
":  c #255106",
">  c #295307",
",  c #24540A",
"<  c #2A550A",
"1  c #24580E",
"2  c #2D590E",
"3  c #385607",
"4  c #3C560A",
"5  c #315B0E",
"6  c #3C5A0C",
"7  c #255B13",
"8  c #2C5C12",
"9  c #295B18",
"0  c #325D12",
"q  c #395D14",
"w  c #2D6015",
"e  c #24611C",
"r  c #2D631A",
"t  c #356115",
"y  c #396316",
"u  c #33641A",
"i  c #3B6519",
"p  c #356A1E",
"a  c #3D691C",
"s  c #356A23",
"d  c #346C22",
"f  c #3C6D21",
"g  c #435305",
"h  c #495607",
"j  c #4F570D",
"k  c #445C0D",
"l  c #4D5D0B",
"z  c #585606",
"x  c #535D0C",
"c  c #5C5D0B",
"v  c #655B0A",
"b  c #75590B",
"n  c #48640D",
"m  c #54620E",
"M  c #5C650D",
"N  c #456313",
"B  c #4C6412",
"V  c #436619",
"C  c #416B1C",
"Z  c #4B6A18",
"A  c #546512",
"S  c #546B15",
"D  c #5B6A15",
"F  c #5A6917",
"G  c #536B1A",
"H  c #4A721C",
"J  c #57741B",
"K  c #65620D",
"L  c #69670C",
"P  c #7B640B",
"I  c #75680C",
"U  c #6C710F",
"Y  c #7A720F",
"T  c #636A15",
"R  c #686816",
"E  c #6C6B14",
"W  c #736C11",
"Q  c #746C17",
"!  c #7B6B12",
"~  c #687518",
"^  c #797518",
"/  c #426E21",
"(  c #486A26",
")  c #457223",
"_  c #4A7425",
"`  c #47732A",
"'  c #597824",
"]  c #587534",
"[  c #6B7822",
"{  c #72762C",
"}  c #557C45",
"|  c #D13E01",
" . c #B84708",
".. c #B55A0E",
"X. c #87690D",
"o. c #946A0D",
"O. c #8C770E",
"+. c #99740E",
"@. c #846B12",
"#. c #8B6E12",
"$. c #8B6F1A",
"%. c #946C11",
"&. c #8B7315",
"*. c #877916",
"=. c #927412",
"-. c #9B7514",
";. c #9B7B13",
":. c #957A18",
">. c #AF6A0F",
",. c #A7780D",
"<. c #A77814",
"1. c #B87A14",
"2. c #B17821",
"3. c #CE4D07",
"4. c #D9580A",
"5. c #E65805",
"6. c #D1670D",
"7. c #C96511",
"8. c #C37A13",
"9. c #D97814",
"0. c #E96709",
"q. c #EE710D",
"w. c #F5780B",
"e. c #E87714",
"r. c #EE7F24",
"t. c #5D811F",
"y. c #708619",
"u. c #5E8222",
"i. c #748729",
"p. c #758949",
"a. c #8B8F17",
"s. c #8A8719",
"d. c #998517",
"f. c #9A961B",
"g. c #A88717",
"h. c #B38415",
"j. c #B88918",
"k. c #A9961B",
"l. c #B9961B",
"z. c #B0A31D",
"x. c #8B8522",
"c. c #988823",
"v. c #87902F",
"b. c #999A26",
"n. c #AD8F2C",
"m. c #A79A22",
"M. c #B59725",
"N. c #ABA523",
"B. c #B6A422",
"V. c #AEA134",
"C. c #C48414",
"Z. c #C88A16",
"A. c #C58D18",
"S. c #D78716",
"D. c #C89719",
"F. c #D4941B",
"G. c #DB9719",
"H. c #D49C1B",
"J. c #F6840D",
"K. c #F3910D",
"L. c #E78616",
"P. c #F58916",
"I. c #E89418",
"U. c #E59C1C",
"Y. c #EB9B1A",
"T. c #F79717",
"R. c #F99C1B",
"E. c #C8A41D",
"W. c #D5A31C",
"Q. c #DAA61C",
"!. c #EFAF17",
"~. c #ECA41C",
"^. c #E8A81D",
"/. c #FBA516",
"(. c #F4A41C",
"). c #FCA31B",
"_. c #F3AB1D",
"`. c #FCAC1D",
"'. c #FCB31D",
"]. c #FDB81C",
"[. c #CF982A",
"{. c #F58F2F",
"}. c #F79828",
"|. c #CAA625",
" X c #D7A925",
".X c #C9B028",
"XX c #D9B424",
"oX c #E9AB23",
"OX c #F9A626",
"+X c #F4AC22",
"@X c #FAAD22",
"#X c #E7B724",
"$X c #F5B322",
"%X c #FCB423",
"&X c #FDBB24",
"*X c #F9B829",
"=X c #FCBC2A",
"-X c #F8A835",
";X c #FCB735",
":X c #FDC41E",
">X c #F7D11E",
",X c #DDC229",
"<X c #EBC226",
"1X c #FDC324",
"2X c #FACA26",
"3X c #FDC32B",
"4X c #FDCC2C",
"5X c #FED325",
"6X c #FFD927",
"7X c #FED32B",
"8X c #FEDB2D",
"9X c #FCC937",
"0X c #FEDC34",
"qX c #FDD739",
"wX c #FEE92B",
"eX c #FFF227",
"rX c #FEE433",
"tX c #FEEB33",
"yX c #FEE63C",
"uX c #FFF43A",
"iX c #8D8F4B",
"pX c #AE994A",
"aX c #EDA144",
"sX c #F8AB49",
"dX c #FAB846",
"fX c #FCBD54",
"gX c #FCC747",
"hX c #FED947",
"jX c #FCC455",
"kX c #FDD656",
"lX c #FEE84C",
"zX c #FFF147",
"xX c #FEEA59",
"cX c #FFF45B",
"vX c #FCD469",
"bX c #FEEB67",
"nX c #FEF56A",
"mX c #FDE876",
"MX c #FEF477",
"NX c #FBD58B",
"BX c #FDE88C",
"VX c #FEF58B",
"CX c #FEF697",
"ZX c #DBCDA1",
"AX c #FEE9A8",
"SX c #FEF6A8",
"DX c #FEF9B9",
"FX c #FEEEC1",
"GX c #FEFAC7",
"HX c #FEFBD8",
"JX c #FEFEE6",
"KX c #FFFEF5",
"LX c #FFFFFE",
/* pixels */
"< : : < y a a t : < a < $ Q >.1 a y 2 = 0 a 0 = = a t + A.f.  @ x :.9 > 2 > O = a < : : : a _ w c >.= = 0 2 @ 8 y 2 2 2 2 y a 0 ",
"a = > t < t ) 0 = < y 0 y d @.c r 0 8 a t = = t a y - o A.k.+ , [ =.$ 5 a 0 < t a 2 t 0 = > C r g.~ 8 0 a y < t 2 2 t 2 = 2 t = ",
") 0 0 y < 2 / t 0 0 y 0 a ) Z ;.y < > i u = @ t _ t = + A.N.9 8 [ #.o > a a y a 5 = 2 y < = w E 1.u C y y t < 2 < : t t < 0 t @ ",
"t y 0 t y > = t y t t t y t $ d.! + @ k A 8 > 2 a 0 2 @ O.+XB 7 T #.+ = 5 a y 0 t = = 0 y y a 1.c 8 t t 0 > < y t @ > y 0 y a < ",
"= 2 2 y / < < ) 2 : 2 a a 5 @ B 1.- @ 3 N i y 0 2 > 0 0 Z _.l $ l X.1 t 8 t 2 : / 0 : 3 ! p S o.+ > 0 C y < t _ a = > y 0 2 y y ",
"@ @ > y t 2 ) ) t < > V _ t < $ g.I + 1 T i y C a = > f u._.g + ;.d.7 _ G 5 2 2 a a 1 v K 1 S.Y , < 2 ) a < y a a 0 y a 2 = 0 _ ",
"g + > < < < 0 y t y 2 3 @.y a u J l.( ( G ~ u y / 2 > , J _.k + D.f.% _ R 5 t t 5 2 2 R 8 W Z.0 i t : 0 2 8 a < 2 a y 8 8 < 0 / ",
"S.Q * < ) y : 2 > a C , ; M p C s aXj.8 a i.C = < 0 , @ 4 R.Q g A.f.# v c 8 a 2 > : l :.f j.n 1 C r P g @ 0 / < @ t < @ 0 a 0 y ",
"A S.L , ) ) t 0 < u ) y @ P D 8 < G Q.g # *.E , < > k 1 h %Xh.= D.N.* z v 1 C 5 < 1 <.B d.I.5 : u G D V 2 = 2 2 = y t @ @ 8 y a ",
"$ k L.1.0 2 < 0 = @ t y < t <.: 2 u g.,.. k %.$ @ = ~ / G %Xj.P A.N.9 &.L + a p s S G.v ^.*.7 < G #.1 ) ) = : t < 2 y 0 < < 0 8 ",
"> u Z U.C.O o 0 2 : 0 a a f D X., 1 n Q.l i :.6 O o ^ i.9 N.Z.I A.f.7 l.g @ @ m G f.L d.k.> 5 w &.x + a y : 0 / 2 : y ) a 0 u T ",
": t u t ;.A.l w a > = 2 y t $ g.,.2 , g.k.s b.O.o $ &.^ X k.D.P D.a.6 N.g 6 2 g.Y F.x Q.B 1 $ -.Y $ > > > 0 y a 2 @ 2 C w a j.*.",
"< < < 2 * :.).^ r - O < 0 > > y g.iX9 - ~.s.N g.3 x i.M.. k.Z.y.|.O.P W.; y u.;.d.k.F.;.9 t %.1.2 S V 2 2 y D K 8 - : $ E C.=.+ ",
"C 5 , k Q f *.R.*.* < y V 3 : p ' H.3 4 ,.D.: <.l M Z .Xm =.I.l.$X&.y.W.. R b.g.E.d.^.l r S C.7 D *.t t 1 P h < C % 3 h.Z.G u < ",
"_ 0 < 5 N :.S = Z.l.q u H #.3 2 7 ;.U.S V.R.L ~ k.*.6 Q.L O.`.I.'.=.B.A.5 d.j.E.g.W.g.r G H.M A &.> 8 8 :.{ . p u *.Q.U.Z p a a ",
"y : = : , N W g = Z.G.6 r ' :.k + = D.a.) @XE.E '.+.c l.<.<.`.9.@X<.~.D.T :.^.^.d._.D r H.O.N P @ @ u &.~ 8 @ V g.G.^ y p < = y ",
"< t t = 5 ) u R W 4 A.G.m u p.n.3 # x `.! g.:Xj.A.B.S.j.~.7.~.3.+X8.~.d.g.l.`.D._.g.$ Y h.A D.G & k @.m 1 7 k U.Z.= $ 2 t < < < ",
"< y y : 2 y y r E .XT a.1X&.X 5 -.S $ I Q.:.;X~.<.#X6.6.T.5.5XP.`.L.Y. .7.P.#XG._.4 E +XW ^.X.` n.7.v % 8 c.I.1.8 $ < 2 / y t < ",
": > 2 < > : < i w < ;.d.W (.,.; C -.6 - D.D.<.1XL.(.P.0.%X/.wX4X'.J.'.0.e.'. X_.<.; Y.<.oXj.- d.oXW 5 K l.`.z + t A m @ t y 2 @ ",
"= = 2 0 w , = > 5 O ` [.G.<.(.Y.N < *.v.1.&XA.Q.`.Y.eXhXOX4XrX1X4X=XhXjX/.R.].XXb F.S.D.*./ B.G.iXM ^ oXG.h   n R [ Z : < a y = ",
"t 8 D D J D , @ ] q ` ` g.F.h.#XG.z X.Z.>.7.+X6.Y.zXMXmXdX4XuX].7XqXAXJXmXT.$X4.I.`.T.j.I ,X.X2.k k.2Xg.7 k X.&.0 f i 2 : 2 0 5 ",
"2 2 < , ~ [.x.S 3 + : 0 u S H.j.G.)...3.6.0.0.L.q.gXvX%X9X@X7X-XhX:X&XmXAXrXT.R.qXdX@Xe.4X^.j.c.#X#XpX' f.H.T 9 < > < t = O : C ",
"@ @ : > u C J G.E.L o 9 ] 8 x z.*XR.2X9.q.:X*X@XtX8X9X@XJ.5.+X*X;XjX).P.*XtX=XqXOXNX@XI.+X8.k.<X.X^ x.`.m.) u < : < < t > - < f ",
": < t 5 5 2 @ 2 u.k.j.@.g # D Y O.W.#X].hXDXGXcX:X9XP.0.0.K.w.R.R.}.T.5.qX/.aX-X/./.(.L.I.#X%X[.n. XG.P * a i A 3 0 5 < + w 0 A ",
"< / a y < > K c k 1 B g.XXl.G V.#.o.S.0.%XCXjX3X}.5.{.-X+X&X}.-X`.rX4X@X4XJ.0.'.T.].+X/.>XT.6.[.H.c., > W b.d.k < 9 w @ v [ *.X.",
"< a 0 t 5 2 : x X.K 6 v.^ k. X|.1. .3.4.P.:XgX{.nX3XJ.&X=XrXlXgX:X0XhX0X).T.dXOX`.%X%XzXbXP.w.9.b D C.S.&.2 + m J M.1.%.@.E a 2 ",
"7 % $ 2 t y = L k.j.+.L.^.d.C.U.~.4.}.cX1XR.@X1XrX&X7X3X9XtXwXxXxXzXMXrX=XqX4X5.;X9X4XqXCXhX0...^.^.j.v 6 ,.l.(.F.s.T V , $ 2 2 ",
"s.X.b 3 C ) < 0 *.N.D.Y.W.P.H.6.4.0.xXmX0.0.T.9X/./.rXlXxX0XFXJXMXmXGXVXtX4X/.`.OXT.9XOX%X9X5.3.Z.,.O.Q.%XA.;.V -   > 0 < < 2 = ",
"y.~ <.-.E.R.D.y.i.E @.d.j.|.G.3.4.'.xXq.dXdXT.gXR.7X6XrXuXMXGXHXVXCXHXbXMXqX1XlX%XOX9X{.mX;XK.~.#X#XD.S T ! K I T 2 K 6 0 a t = ",
"f u w $ x Y y.D.U.#X&X*Xl.h.C.9.5.;XHXsXqXdXP.'.8XwXyX9XjXhXDXHXSXLXSXDXMXqXVXcXR.w.3XyXbX].`.P.q.>.>.C.1.U.L.#.~ t 2 = 5 C t > ",
"< < > 2 f 9 u y = h &.f.`.=X*X%X_.vXAXrX3Xw.'.sXbXxXDXGXFXCXCXLXHXLXJXBX9XkXSXfX'.T.%X8X*X{.T.T.5.e.T.#.- + + . # w $ o 1 1 $ % ",
": = o % d 7 p r $ + e 9 ; p.2. .e.:X0X0X%X5.q.=XyXCXGXHXHXGXKXLXLXLXGXwXbXSXBXbX;X}.P.7X;XgXR.I.I.F.l.a.a.*.Y a.&.:.&.@.&.@.P #.",
"< = K ! @.I ! ! ! L #.C.1.1.8.7.0.'.tXP.@X-Xr./.wXlXVXbXMXJXLXLXLXLXLXGXCXDXCXnXxX%X*X`.8XuX&X0.L.L.7.>.^ ~ D n A D D D [ A x c ",
"< 0 ~ z iXR z R E X.1.&X1X1X1X&X<XI.*X=X=X0X$X7XwXnXCXCXSXHXGXJXLXKXLXDXDXFXlXwX4X3X=X4X0XzXrX7X%X%X Xl.j.l.l.A.d.B j x D Z # X ",
"n ' g.g.g.g.k.N.B.%X%X^.^.W.U.I.+XY._.*X1XbXgXK.R.yXtXVXSXDXCXCXJXDXHXmXcXBX9X&X).*Xe.r.J.NXnX`.J.(.3X1X&X1X$X~.^.^.oXoX$X$XB.l.",
"l.b.N.B.k.B.g.h.g.d.*.q ! +.D.%X_.1XuXR.qXP.J.}.R.`.4XyXMXVXBXDXGXCXGXmX9XDXMX1Xw.L.tX3XT.vXDX%Xw...I f.H.).D.O.o.x.n 6 n =.<.g.",
"- , 1 1 + #   X J ! D.~.$XgX|.L.L.;XhX5XxXfX{.q.1X&X3XtXeXxXAXDXwXCXmXVXlXqXyX&X}.NXaX1XtXMXNX&X4.e.b.~ T A N H D D o.-.P c $ 9 ",
"1 : @ , k y.*.S.#XXXG.V.P c.n.8.9.P.R.(.gXCXnXT.T.(.5X7X&X8XVXcX2XzXxXlXyX7X*X&X%XqXgXr.%X5X].J. .! u.g.B.g.=.~ a + 2 f E K > c ",
"A l o.%.8.oXb.*.n u A @.E.|.m z ..7. .T.SXdX`.R.e.vX9XR.&XuX8XrX@X0XzX3X0X=X@X=X9X@XcXgX0.e.9.2XOX^ 4 u ` Z Y s.T X.: 0 w r y < ",
":.-.@.3 V i 8 $ M j.m.:.V ( 0 <.&XY.9.6XCXBX:XyX9XnXfX}.4X`.3X4XT.@X=X=XP.T.R./.gXsXkX@Xw.9.H.C.W.4X1X*.f 9 o @ t 6 > = < ) ) 2 ",
"9 w + @ f i : 0 J l 2 d { <.V.oX`.H.L.Y.rXcXbXmX9X9X3X@XhX{.K.R.'.%Xw.OX(.P.).OXwXjXkX5Xq.0.oX^.,.%.H.5XXX^ = + t < y / 0 t 2 t ",
"5 5 2 < 2 2 2 _ ) $ 2 D ^ pX#X#X1.C.L.L.7X}.}.=XvXr.-X3XxXsX0.).J.=X7XR.*XJ.gXmXkXnXlX(.L.7.S.F.A.S.z 4 k.*XG.I 0 1 ) ) 2 2 < 2 ",
"2 < a a = @ 2 a y 4 S M.M.XXl.:.U.`.(.2X9.4.4.0.R.e.`.yXR.;X3X=X4X8X].7X7X7XbXNXhX2X:Xe.L.Y.c |.j.#.<.T 7 6 l.R.h.4 $ 9 < y t > ",
": = ) ) < o l D 1 ; W E.Q.W :.Z.Y.&X2X>.S.9.9.S.| J.wXxXfX5X0X0.+XqXsXT./.&X`.J.5.+X4X7X8.Z.Q.q :.D.I ^ g.z X t x.A.,.h o t t = ",
"O @ 5 y y 2 5 i w h Z.d.W ^ C.-.H.#Xo.G.F.S.2X$X .L.5XlX;X]._.3.q.lXGX=XJ.`.'.5X4.6.5X&X5Xj.g.[.V Z S.Q G <.X.3 r C *.Z.X.8 u < ",
"= : : < C C , V M.=.; k g.M.;.XXH.z G.D.h.#XQ.I %.*XL.J.0.I.9.(./.+XP.K.3.9.)./.F.z ! %XR.6Xd.[  Xi 9 &.^ r R #.K , $ < ^ -.^ 3 ",
"2 < 2 5 t 7 K <.Q = 6 X.v o. XH.4 H.h.v h.D.T s g.&Xe.8.4.oXj.&X).I. .I.Z.Z.(.S._.K . *.U.l.7X:.[ U.O.7 T 2 $ k &.E @ = f i P v ",
"> 2 t 8 N o.I a f + z 1.<.&XG.3 s.*.D I g.^ 7 D oX#Xl.*.^.oX<.1X`.%X>.#Xs.;.`.l.s.E.- % s.D.1.6X;.T .X-.* a 0 @ r E > = C 8 1 0 ",
"< C y m E h @ < u T X.<.+Xh.< m 1.t &.g.B.f < T <XH.g.B.k.W.o.`.R.&X>.E.W.z L !.^ XX,.o 9 c.;.d.6Xg., j.<.u t 5 y u < 2 < < ) ` ",
"5 5 < 3 2 $ = 2 T v W @X! # n s.5 0 ~ l.i a O l.^.g.D ;.c.a.c  XZ.%Xj y.Y.o ; H.D.G ^.T 6 r ^ R k.6X;., <.&.w 8 y a 0 t 8 < / a ",
"a > : 2 0 a @ B E Y (.I . B :.5 , C f.{ ] : - Q.j.Q.@.-.D.m.* .XI.+X- h oXZ p.v._.v a.l.- O 5 D q j.5XA e Q @.1 < t 0 a t < t 0 ",
"2 = = t y _ i.8 *.(.W % ; &.V , @ ^ i.u y + I #Xm.j.d.n B.g.w z.Y Y.; . j.g.r 9 |.d.. D.n @ = u y , h.$X[ r K P @ 8 a a < = t t ",
"< : = 0 < u f &.Z.< 9 a < 2 y < l :.% a a @ g.m.N.^ U + B.-.$ &.g T.Z $ R @.+ : J Y.; D c.u < a t < @ h.`.A # M P 8 y t > > t 8 ",
"t t = < , k G.1.> @ 5 a y t C u Q Z @ 5 u A _.@.F.6 M , k.B > %.J _.l 7 T #.+ = @ 1.;.X f.[ 2 t a t < @ h.(.B 7 Q *.2 5 2 t y 0 ",
"y < > , S F.x.0 @ > < 8 y C y S ~ u = > 7 g.D.z o., 5 2 -.V C -.t.+X; , a *.V , 3 #.<.+ l &.@ < ) _ a 8 @ h.~.G s B > 8 0 2 8 y ",
") > @ k 9.^ * 2 0 t 2 = 0 a 0 = : a < @ < W.U ^ l u a 2 %.Z ) -.t.+X4 1 0 u y 0 t , g.i.7 :.g , 0 y a t @ O h._.J # 5 a 0 = - a ",
"_ 1 4 8.E r = = y y t - < y 2 > 0 a t O Y .Xq E 0 C 7 K ! f ' -.J +Xk 8 t ~ y @ 5 r ~ 1.r H #.< > 2 0 t > < / d.S.x 7 C / 0 0 y ",
"$ n &.Z w 5 : t y < t a y 2 = t C t t 7 A.k.B J p y 7 Q &.d C K J (.G u y ' C 2 < a y #.G f G M , 0 y y = < ) r ~ 9.l r _ a t 2 ",
"g #.C u 5 : = t 2 = < y a 2 = t a - O k U.B A S < 2 1 i.~ 8 0 1 6 9.B , 0 ) _ y > > $ K &.8 0 G 2 0 ) y = : 0 q r ~ S.l @ > 2 8 ",
"X.5 t 5 < : = y 2 = > < 0 y 5 2 2 = @ <.g.9 < = > = = 8 < < 0 a % &.l o = a / y < < 2 y &.= = 0 2 > / 0 = > 2 0 t 1 M -.} 0 < 8 ",
"O > t 5 < : < / t t a < < t < = : > y S.I p C 0 y < = c < a y 0 r ;.A O = t a y t ) ) u G A 2 5 : = 0 0 0 y y a t < + p.ZXp.< > ",
"@ = < 0 t 2 = 2 2 0 ) a 2 : = > 5 o L S.5 C C y a t 2 Z 0 a t < r -.A @ > 0 t y C a t 2 C ^ 5 < 2 > > 0 y y 0 a C 0 0 ` iX$.> > ",
"< < 5 0 t 2 = < < = 2 t 0 > = 5 a @ +.Y $ C y - 2 t a ) 0 2 > 2 1 %.l , 5 5 2 5 a 0 - : 1 l x y a t < 0 t < > 2 y a a a , h P 0 ",
"> 5 C y < @ = / t @ O = t a 2 5 / q 1.3 > C a = - < 0 ) 5 - @ > 1 #.m u y 2 : : 0 ) y = O 5 J ) a a < t t = - : < t a y < + c @."
};
