/* XPM */
static const char *patlamafour[] = {
/* columns rows colors chars-per-pixel */
"64 64 254 2 ",
"   c #073C00",
".  c #7B3B05",
"X  c #144402",
"o  c #1C4502",
"O  c #1C4C05",
"+  c #184D08",
"@  c #17510E",
"#  c #1B530B",
"$  c #234602",
"%  c #244B04",
"&  c #2A4D05",
"*  c #284B08",
"=  c #324D05",
"-  c #394A08",
";  c #255107",
":  c #2A5207",
">  c #24530B",
",  c #2B540A",
"<  c #2A590B",
"1  c #2D590D",
"2  c #335205",
"3  c #3B5306",
"4  c #33550B",
"5  c #3B5709",
"6  c #31590E",
"7  c #3B5B0B",
"8  c #374718",
"9  c #275610",
"0  c #245A13",
"q  c #2C5C13",
"w  c #345D12",
"e  c #3A5E13",
"r  c #355A18",
"t  c #38600F",
"y  c #2E6116",
"u  c #366115",
"i  c #3A6216",
"p  c #356319",
"a  c #3C6519",
"s  c #3D691C",
"d  c #376B20",
"f  c #434D05",
"g  c #465507",
"h  c #445C0B",
"j  c #4B5B0A",
"k  c #575706",
"l  c #525B0A",
"z  c #5B5D0A",
"x  c #514911",
"c  c #465A13",
"v  c #655C09",
"b  c #755A08",
"n  c #6A5612",
"m  c #47670D",
"M  c #4B630D",
"N  c #54620D",
"B  c #5C620C",
"V  c #58690D",
"C  c #436313",
"Z  c #4B6412",
"A  c #476816",
"S  c #4B6A14",
"D  c #42661A",
"F  c #436B1D",
"G  c #4B6B1B",
"H  c #526413",
"J  c #576A15",
"K  c #5B6C13",
"L  c #507119",
"P  c #5A7518",
"I  c #63640D",
"U  c #6C630C",
"Y  c #686A0D",
"T  c #75640C",
"R  c #7A640A",
"E  c #756B0D",
"W  c #7C6A0E",
"Q  c #6D710E",
"!  c #77720E",
"~  c #646B13",
"^  c #666B16",
"/  c #6B6D13",
"(  c #756615",
")  c #726B12",
"_  c #7B6C12",
"`  c #6C7314",
"'  c #687717",
"]  c #6C721A",
"[  c #747213",
"{  c #7C7513",
"}  c #777A18",
"|  c #456E21",
" . c #467121",
".. c #497223",
"X. c #587722",
"o. c #697822",
"O. c #627E47",
"+. c #CF3A00",
"@. c #895B0B",
"#. c #B15605",
"$. c #86650B",
"%. c #836B0D",
"&. c #8C6C0D",
"*. c #956B0C",
"=. c #88720E",
"-. c #97730E",
";. c #846B11",
":. c #8C6E12",
">. c #9B6D10",
",. c #847313",
"<. c #8B7413",
"1. c #877B16",
"2. c #8B7A13",
"3. c #937413",
"4. c #9B7413",
"5. c #947C14",
"6. c #9B7C14",
"7. c #957C19",
"8. c #B26A0D",
"9. c #A9760E",
"0. c #B7780E",
"q. c #A67914",
"w. c #A47A14",
"e. c #B37B12",
"r. c #D74901",
"t. c #C95303",
"y. c #D95A04",
"u. c #E65902",
"i. c #F15E02",
"p. c #D9680B",
"a. c #CB730D",
"s. c #DB770B",
"d. c #E96904",
"f. c #F26F08",
"g. c #EA760A",
"h. c #F47706",
"j. c #F17531",
"k. c #6C8519",
"l. c #77861A",
"z. c #76931E",
"x. c #748B22",
"c. c #6F8D54",
"v. c #8B8214",
"b. c #878718",
"n. c #978718",
"m. c #89941C",
"M. c #96951B",
"N. c #A8820F",
"B. c #A38314",
"V. c #A88817",
"C. c #AC8D19",
"Z. c #B68716",
"A. c #B48D1A",
"S. c #A8961B",
"D. c #B5961B",
"F. c #A9A21D",
"G. c #BCA31E",
"H. c #8E8C24",
"J. c #899824",
"K. c #999B22",
"L. c #A79B21",
"P. c #B19924",
"I. c #8BA226",
"U. c #99A424",
"Y. c #A8A524",
"T. c #B8A522",
"R. c #B5B328",
"E. c #D1820E",
"W. c #C58815",
"Q. c #D78815",
"!. c #C9951A",
"~. c #D79A1A",
"^. c #EE830D",
"/. c #F7850A",
"(. c #FA960B",
"). c #EA8815",
"_. c #F48C13",
"`. c #F58815",
"'. c #E8971B",
"]. c #F69817",
"[. c #C9A51E",
"{. c #D8A61D",
"}. c #FDA80B",
"|. c #E6A51C",
" X c #FCA415",
".X c #F7A718",
"XX c #FBA41B",
"oX c #FBAC1B",
"OX c #FDB51A",
"+X c #CB9C21",
"@X c #F19027",
"#X c #C7A723",
"$X c #D7A923",
"%X c #C7B326",
"&X c #D7B425",
"*X c #C9A13A",
"=X c #E6A822",
"-X c #F7AA23",
";X c #E8B524",
":X c #F7B727",
">X c #FBB423",
",X c #FDBC23",
"<X c #F9A739",
"1X c #FDB939",
"2X c #FEC61D",
"3X c #FEE918",
"4X c #D5C62D",
"5X c #EBC829",
"6X c #FDC324",
"7X c #FAC827",
"8X c #FBC42A",
"9X c #FDCC2A",
"0X c #FED42C",
"qX c #FEDA2A",
"wX c #FCC737",
"eX c #FBD333",
"rX c #FDDB32",
"tX c #FEE929",
"yX c #FEF12A",
"uX c #FEE537",
"iX c #FEEB35",
"pX c #FEED3A",
"aX c #FEF53A",
"sX c #FBB351",
"dX c #F19E66",
"fX c #F9B167",
"gX c #FBC848",
"hX c #FFDC44",
"jX c #FCD058",
"kX c #FEEC48",
"lX c #FEF246",
"zX c #FEE858",
"xX c #FEF459",
"cX c #FCD26E",
"vX c #FEE76F",
"bX c #FEF463",
"nX c #FFFB67",
"mX c #FEF46C",
"MX c #FEF578",
"NX c #B3C4A3",
"BX c #FBD892",
"VX c #FEF785",
"CX c #FEF58A",
"ZX c #FDE890",
"AX c #FEF797",
"SX c #FAD4AF",
"DX c #FEF8A4",
"FX c #FCE8B1",
"GX c #FEFBB8",
"HX c #FEFBC6",
"JX c #FEFCD7",
"KX c #FEFEEB",
"LX c #FEFFF4",
"PX c #FEFFFE",
/* pixels */
", & & , i s s i & : s , : q v _ p s 6 & w s w % % s w : i 6 X v w.,.q , 6 : $ & s 1 : : & J X.i & = &.% w 6 $ w i 6 6 , 1 a s w ",
"s % : w , i  .6 $ : s w i | & *.A q 6 a i & % w s i % % a ' , z A.,.; 6 a w : i s 6 w w % v G a > ) / > A a : w 6 1 q 1 $ 6 w % ",
" .1 e i : 1 F w 6 6 i w a | 9 / ,.O : s a % $ i  .w $ & w } i B A._ X & s D i s 6 % 6 u j g w s Z ^ p i s w : 6 : ; ^ C ; w w % ",
"w w M :.w ; & u u w w i i w : F w.= o 6 i w , 6 s 6 1 , # 4.G B w.W O % w s i 6 w % $ w n.i i , 4.h w i 6 : , i q - T w 6 i s : ",
"% 1 > ] 2.; : F 1 : 1 s F 1 % 9 <.j X : w s u q w : 1 w < N l.z w.W > i w A Y o P w : ; 1.A > k W O 1 F i , u  .G T * i 6 1 i a ",
"% $ & q ~ %.s  .u : : i  .i : % H *.> w i p ~ ] s o V x.s C %.z w.W q ..s 6 6 6 B.A > l l > , &.h : h  .s : u F <.H u s 1 % w ..",
", & ; : > B ,.p w i 6 : w i i a q %.j > D s A ) D 1 2 ;.i S e.E w.R > F u w q } { > ; 5.K X 2 n.y Z z q 1 6 0 %.I q i 6 6 1 w F ",
"F s 1 ,  .q z ,.O s F 1 $ - D F 1 g $.O A o.0 g Y > , j - i W.n.U.b.# 5 h w w } [ X N n. .M *.I y [ % o % 9 ] R o w 1 $ w s w s ",
"i u ; 1  . .q ^ W q F u o & w 1 , p 3.f % ~ L Y &.& , 4.} C / n.U.z.' [.b K a 5.7 6 3.K Z P S.o Z i w w > z ;.; $ i i % $ 6 i s ",
": 1 : 1 i - : 9 z R y } 7 q i & 2 q J 2.  W S.=.2.g w ^ } ,.' ;XU.l.J.|.B l 1 G.k.5.1.` ,.C.K , ` 7 1 a ( $.; w , 1 i w , , 6 w ",
": i i i 1 $ o 6 > B { L 3.G p 2 & P 6 W H ] H.W 2.3.0 k.C.( l.6XU.l.m.[.,.Y g S.l.A.n.W n.[.- <.P R X Z.n.O 9 F 6 & i | s w i w ",
": u i i 6 : : u i X k [ A <.; h H 7 N = !.X.n.` v.l.' b.&X{.m.,XM.l.{.` 1.v.5.Z.5.2.6.U #XV R ~ ~ ; 1.S.O > J [ j o 1 s i i a 1 ",
"1 , , 1 w i i u D 3   U } 3 k 0 } g U k 2.K.{ k.S.B.n.~ I.S.S.6XD.S.=X{ S.b.R.m.M.k.b A.D.M W &.B L ~.M 1 ^ :.: w % & 6 , w w $ ",
"F 6 : 1 i  .s : F ,.l 0 A.v.v ^ A b $ &.j G.1.Q 6.M.b.l.n.G.a.).=X~.'.Z.C.<.4XL.M.w.@.;X' W ,.-.A ~.B [ :.$.X , i 1 6 1 6 s s : ",
" .w , 1 w F i $ ; u <.^ r !.b.U N N k z $.F.D.z M.!.n.F.a.g.y.g.=X].r.t.#.9.Y.3.S.. n.=X;.,.b U '.l 6 -.b k g w D w w S F s i i ",
"q & % ; : w 5 $ $ q w <.{ , !.n.R V B n 0.b.%XD.l.#X!.d.d.d. X6X>XOX-Xd.+.).$XN.T.$.:XB.m.3.e.'.N = 1.T T 4 B G r ; I w.A > & w ",
"Y i q & 6 F e 6 ; = x o B.A.* Z.~.$.C.K v.8.&X~.a.'.'.u.8XvXlXuXlXqXgX@Xf.7Xp.d.t.$X&Xw.3.@.>XP * $.` 5.z P j c ^ W g > A h : , ",
"%.6.^ O ; S i u < - ( P / Y B.x W.=X&.M.' s.).;X+.g.uX(.<XJXzX6XoXOX,XOXcXvXd.r.^.9Xp.Q.@.'.!.( { D.T 3 H b.K 3.,.5 4 E } S w 6 ",
"O 3 I B 3 3 B L 7 O S P I { E a.$.D.|.*.W.y.r.>Xh.oXuXoXsXsX>X9X(.9XuX(.FXcX(.h.tXOXu.y..XoX,.b.[.9.Y %.z T $.2 M h I v 1 u < X ",
"% $ > H 5.j 3 , z z 1 q 1 w.{.D.D.k ;Xg.+.d.<XvXkX0XoX9X/./.9XaX0X>X XoX>X6XoX0XeX1X9X>X].u.8.Z.;.m.k.D.V.f   h ,.G s m O y ] $.",
"w w u u s L B 3.I *.1.C.P ~ A.*XC.w.p.>Xg.<XHXcXeX>X,XpXoX^./.0X7X].h.oXXX>XpXaX>XdXJXwX/._.h.a.%.K V.V.1 j T [ ` ] C m z { Z.) ",
", 6 , , L s p C ,.!.} 3.S.H k.w.!.'.y.d.9X,X,XqX`. X,X6X>X>X6XOXrX,X:X_.,X-X9XqXh.gXjX_.cXnX Xf.Z.$.R { M.6.w.<.g 2 V 3.&.k O D ",
"% X O ; ~ B.Z a 0 f V.C.[ 9.B.n.@.r.(.6XXX0X8X`.>X].bXgXqXtXxXhXuXtXtX1XuXrXOX(.].-Xf.i.BXCX(.g.0.w.S.N.S.l.B 7 m.!.=.7 : j l K ",
"R ! ) 6 # 3 o E [ / 4 z B.V.{.&Xs.h.zXcX^.g.8XOX,X XrXGXbXpXCXVXtXxXnXZX0XiXoX X9Xd.f.XXxXMXhX/.r.W.V.B.' 1.G.!.V.I ; E *.n.C < ",
"2 } [ D.V.P M 3 = K <.%.' V.A.$X-X/.hXFX:X/.i. XiXtX3XVXHXbXMXDXkXJXAXMXlXlX2X6XXXf.8XuX XBXfX(.g.#.w.!.;X;Xn.% m D.S.v % d | , ",
"7 9 > 7 } K.T.{.D.b.v m k.[.T.a.].OX1XsX@Xu.XX>XrXxXlXyXGXGXxXLXAXDXCXCXVXKXxXOX,XuX>X].`.g.].-X).|.#X~.R - v.T.J.} p # N ( ^ > ",
"/ N g B i S : I M.~.oX5XC.%.9.^.^.2XjX<X_.].0XaXiXAXLXMXxXLXGXLXGXJXHXCXJXKXmXiXaX0X>Xh.:X-XpX|.).].Q.C.b.e.b.{ C 2 _ 4.$.j 6 5 ",
", 2 % h n.Y.!.m.z.n.{ N.C.:X>X].'.9XOX.XoX,XrXpXyXtXAXPXGXAXPXPXHXLXLXDXKXxX3XxXxX2XuX9X(.oX0X-X/.r.a.!.' ` I ,.n.*.U Z ; > h k ",
"a 1 1 o > 0 5 S H.%XM.:.Y 0.p.].zX8XoXwX]. XzXmXmXDXlXCXLXKXPXPXPXPXPXLXCXbXmXHXbXaXaXeX_.`.`.mXzX^.y.K.Y.=XC.S # + O O q i / $ ",
"w.w.w.4.w.E.W.C.b.K m b B.8.r.OXBXj..X:X].7XqXbXJXPXKXMXHXPXPXPXPXPXPXLXDXAXLXHXvXrX9X`._.-XzXAXzX(.d.e.S.:.E v ] k.' V e.w.4.>.",
"% ; O > F _ H.J.k.n.'.Q.{.{.s.`.sXjX_.XX_.kXnXkXkXDXLXPXPXPXPXPXPXPXPXPXPXLXDXlXzXmXoX(.wXjXZXHXwX/.'.T.U.z.S.=XT.z.z.[ I ; 2 4 ",
"&.%.R 3.6.m.I.J.l.b.Y.Y.T.=X'.=X>XOXoX/.].qXaXbXMXVXDXLXPXPXPXPXPXPXPXPXLXHXAXMXbXpXOX7XXXeX2XOX8X].y.W.B.6.3.n.5.<.<.%.<.W : e ",
"a.I T a.E.!.!.!.~.W.Z.Z.!.)._. X0XwX1XrXiXuXqXkXbXCXGXLXPXPXPXPXPXPXPXPXKXVXCXGXMXtX7X].8XwXmXnXqX9X>X-X>X0X4XD.#X#X#X&X&X%XK.K.",
"> y y + + X X + > m S n.S.+X'.(.mXFXwXOX].oXhXAXGXJXKXJXPXPXPXPXPXPXPXPXJXAXLXHXMXlX0Xh.f.-Xj.FXBX(.:XXXXX,X=XA.!.' 7 O 0 0 > O ",
", F ..N N n.U.U.V.V.k.M.E 8.h.6XVXsX_.h._.iXaXiXtXAXCXpXHXPXPXPXPXPXPXPXKXlXbXAXxXuXiXuX@Xf.sX1XvXXXr.W.M.k.m.;X>X>X'.>.n.K.*.*.",
", i L 6.2.Z < A ' l.l.[.Z.p.d.OXZXdX].9X_.,X0XiXlXAXGXJXKXPXPXPXPXPXPXLXJXJXmXpXaX2XXX-XsX:XwXj.vX].r.e.C.b f 7 e & & g M C 5 h ",
", 6 1 1 O Z T M n.C.#XR.M.0.s./.hX-X-X]._.8X6X9XmXmXAXLXGXLXPXLXLXPXHXHXAXVXPXGX0XuXuX,X_.-X7XXX Xd.y.e.V.n.!.C.b.' , q q ; > u ",
"6 ; $ $.w.v.I P P B [ E W.Y.~.u.(.oX^.eXlX>X].6XpXGXLXCXMXPXLXGXLXKXJXxXDXkXkXmX>X(.XX].,XrX9X,Xy.f.Q.J.!.#Xl.%.,.b.m.X.k.; , , ",
"6 , : % 7 u 9 q J 5.B.=.D.%XY.Q.u.'.eX0XXX`.eXrXuXMXkXpXJXJXJXCXDXCXPXmXpXDXiXyXqX_.>X_. X:XeX:X).y.F.G.D.K.Y.J.' l $ l.M.K p , ",
"i u w ; i p P S N M } ;XS.v.$.$X-X,X9X@X^.8X`.6X9XtXyXxXLXCXDXMXCXkXAXxXtXiXiXrXjX`.].sXjXcXd.g.7X5XD.V.M.!.w.! S 2.= Q Q F L 6 ",
"i i & % F s : - q j S.C.b Q &X9X).d.zXSX@X].f.:X0XiXpX2XCXCXMXxXmXyXmXzXqXOX9XoXwX:X^.kXFXsXh.+.a.b.#X{.M.:.f $ # / K.} V 6 Y C ",
"6 6 , : 1 , c H.} Y l I =X-XB.6.#.p.0XgXzX:X8XoX`.6X0XOXaXzXiXaXqX,XrX>XOX9XpX_.(.`.<XZXCX}.f.t.#.Z.b.n.#X=XM.' ~ + P x.< / , , ",
"6 , s A 2 f ^ x.q 5 Z.{.n.2.Z.,.R y.r.(. X,X6Xi.oX].>X>XuX].0X0XrX/.OX9Xf.].7XuX_.<XdXgXhX'.=XQ.C.w.!.} :.D.b.{.{.j O 0 % i i : ",
"& % P l.j $ O , 2.|.,.Q v.n.*.z <..Xa.s.,X).).cXfXf.uXuX>X`.6X].].h.].rXi.^.9X6X:XlXd./.g.].W.=XZ.' T.w.~ n.e.{ [ b.-.R & q w % ",
"$ $ 7 i 9 : E n.-.E b I n.T h B.!.v.b |.8Xu.sXAXZX0XaX_.`.`.oX9X`._.XXeXh.h.0XaX>X8X:Xs.g.Q.7X9.|.'.K L.|.h M w./ q 7 Y *.{ i O ",
"$ : % > K 1.I ` %.R k $.= C ~.Q.,.k $XwX!.8.p.}.OX6X X X1XfX`.rX-X].:XrXsXjXgXOXeX+.^.e.4Xe.;.>XQ.w.~.!.H w.,.@ 7 E U O w / W.{ ",
"; # B w.1.V h 2.M g z 7 7 A.e.,.z $X4XA.M.` 8.y.-Xg.f.}.kXKXBX>XrXeX8X].MXmX1Xu.:X].t.e.L.|.9.$.;X!.B {.A.4 l I C C v -.] 9 N E ",
"j &.{ u N l g y s & % w } Q ! 5 w.;XW.w.b V.D.w.9Xt.p.g.].}.1XhXiX9X7Xg.(.(.d.y.).8X>.z W.4.>XZ.v |.{.6 3.0., % / s O & ] 6 > 9 ",
":.' p ; h $ o , i > l ;.^ n x { T.N.0.9.k !.} 8X8.E S.Q.t.u.d.).iXd.u.g.s.r.y.D.C.&XV.R >.1.b |.,.T ~.|.4 H 3.4 w s , 1 ; : | ..",
"9 1 : % 1 : $ 6 1 h z v x 8 4.;X,.b 6.N B.:.%X|.- 2 [.S.D.9.p.p.>Xg.t.'.V.>.T.=.S.l.&XK n z &.3.{.9.= A.!.i w Y Z.p w i g , G D ",
"a : : 1 w i ; w 1 g = X X ~ =XW f ( W.n 3.t {.U @ %.%XB.M.b.|.|.|.W.C.5X[.e $Xn.-.e.D.S.N - n V.5.w.j + } W.Z > j / w a i , c w ",
"6 % % u i F i u i ; < < 3.[.K X U n.] ( w.E w.y s K.m.m.B 4.|.a.#XA.z.#X,X` C.G.l.M.Y W.K ,.- c K v %.B F 2.3.g X w ] G , % u e ",
", : % w , i i : w , 9 ] 0.: q _ T z , 6.H 5.7 | a J.Y.1.M.v S.[ P.D.I.$XA.z.j T.b.2.C.W L.L 8.8 ~ { Q R H @ 6 $.g 9 A i : , e w ",
"u w & , , w i & & X h 7.e 0 { [ ~ 7 v ) ' T X 1 J D.b.Q ,., b.m T.A.J.L.S.} X W %.[ v.k D.o.( x G w E I N $.> e 3.j > 1 1 w i w ",
"i , : , a F F w X 5 ,.7 q P 7.c r S f 3 n.7 & X M M.R I [ z.U.0 %XZ.l.B 1.2.i ` } ~ l E E { 3 _ d  .D -.2 *.5 p G W j w w 6 6 a ",
" .: : 1 F F 6 ; h 3.7 X j 7.i $ & ] , z _ 9 7 $ 3 I <.S V G Y.0 +XT.z.U ( I.P A v.v K n.K Z.X 7 e a s J b X 1 F s > I <.q % & a ",
"| 1 $ & u i $ & 7.i q % z A 9 : w p u -.& F s & n.,.v P l...L.+ W.R.} ) [ I.S X I K ' _ ( H.' h g < u w 4 , G u a 6 > ] 2.w 9 a ",
": 1 i w w 6 O _ ) O w s p 1 % w s i ,.B w s e s ] ,.7 { ` | A X !.T.;.H 2.J.} < > D ,.2 6.P 6.& % 6 s s O 5 } p i w 6 q ] [ H < ",
"$ 1 s i 6 O U [ < $ & i s w & i i & b ; s e ; ~ Y + 7 w.w w w > ' Y.:.O l.X.} p , ; g l ] H Y [ > 6  .a % * 1 w i i 6 : O , _ 7 ",
"& 6 i 6 ; v U p 6 % : , w i 6 7 # v g ; 6 i > T j O % H h I q w S Y.:.o - A P a 1 : 1 ^ p $ $ 6.4 & F w % : 1 w i w : 1 O.9 4 Y ",
"$ : w 1 4 z % F i w s 1 , w , % K Y S w 6 a ] K q 1 % > , D s 1 P L.;.X k C D s a | | p a i < j j X w w w i i s i , & c.NXc., 4 ",
"$ % , w u > % 6 6 w | s 6 : % : C $ : i w s x.P a i w i w s i ; K 4.9.3 O e / u F a e w s a 6 : &., : w a i w a D w w ..c.a : : ",
"1 : 6 w u 6 % , , % 1 w w : % 6 a & % , , F a & 6 w s  .w 6 , > B W $.I > w 1 6 s w & & 1 w 1 p { [ # w i , : 1 i s a s : $ : i ",
": 6 F i , $ % F w $ $ % i s 1 w | w w , & F F % & : w  .6 & $ O B E v [ p 7 : : w  .a % $ 1 F ..F n.4 w i % & : 1 i s i : & 1 w "
};
