/* XPM */
static const char *patlamathree[] = {
/* columns rows colors chars-per-pixel */
"64 64 256 2 ",
"   c #093D00",
".  c #0D4805",
"X  c #144402",
"o  c #1B4501",
"O  c #174C06",
"+  c #1C4B04",
"@  c #1B5107",
"#  c #1C520B",
"$  c #175711",
"%  c #214701",
"&  c #234B04",
"*  c #2B4D04",
"=  c #244F09",
"-  c #354D04",
";  c #245106",
":  c #2A5107",
">  c #23540B",
",  c #2B540A",
"<  c #25590E",
"1  c #2E590E",
"2  c #345204",
"3  c #3B5305",
"4  c #32560B",
"5  c #3A5708",
"6  c #315A0E",
"7  c #3B5B0C",
"8  c #255913",
"9  c #2C5C12",
"0  c #335D12",
"q  c #385D12",
"w  c #3A620D",
"e  c #2D6117",
"r  c #2C6218",
"t  c #356115",
"y  c #3A6216",
"u  c #336419",
"i  c #3C6519",
"p  c #376A1D",
"a  c #3D691C",
"s  c #386D22",
"d  c #3D7023",
"f  c #4E4C02",
"g  c #445506",
"h  c #4C5404",
"j  c #445C0C",
"k  c #4B5C0A",
"l  c #575805",
"z  c #535D0A",
"x  c #5C5D0A",
"c  c #425E11",
"v  c #665C08",
"b  c #775D08",
"n  c #45660D",
"m  c #4C630D",
"M  c #54630C",
"N  c #5C630C",
"B  c #576A0D",
"V  c #446414",
"C  c #4C6513",
"Z  c #426B1D",
"A  c #486A18",
"S  c #586713",
"D  c #546A13",
"F  c #5B6C14",
"G  c #526C19",
"H  c #4E7416",
"J  c #5B7618",
"K  c #63640D",
"L  c #6C630B",
"P  c #686A0C",
"I  c #74670B",
"U  c #7B640B",
"Y  c #7B6B0E",
"T  c #6B710D",
"R  c #7B730E",
"E  c #656913",
"W  c #646C13",
"Q  c #6A6B13",
"!  c #746411",
"~  c #746B12",
"^  c #7B6D13",
"/  c #687517",
"(  c #767617",
")  c #7B7313",
"_  c #7C7C14",
"`  c #446E21",
"'  c #526E21",
"]  c #467122",
"[  c #4B7323",
"{  c #4B7328",
"}  c #567527",
"|  c #6A7B23",
" . c #5B7C46",
".. c #BF3C00",
"X. c #CB3700",
"o. c #915808",
"O. c #B44D05",
"+. c #89670B",
"@. c #836B0D",
"#. c #956B0C",
"$. c #89730D",
"%. c #98760D",
"&. c #886D12",
"*. c #946D11",
"=. c #847413",
"-. c #8C7413",
";. c #867917",
":. c #8B7B12",
">. c #947412",
",. c #937B13",
"<. c #9A7C13",
"1. c #987816",
"2. c #A86C0C",
"3. c #B8690B",
"4. c #A4770E",
"5. c #B8780E",
"6. c #A57913",
"7. c #B77B13",
"8. c #9E7E2C",
"9. c #D54B02",
"0. c #C85205",
"q. c #DB5704",
"w. c #EA4F00",
"e. c #E65902",
"r. c #C9680C",
"t. c #DA6709",
"y. c #C6770E",
"u. c #D7740C",
"i. c #C47411",
"p. c #DA7A13",
"a. c #E96706",
"s. c #F46A06",
"d. c #E8750C",
"f. c #F57906",
"g. c #ED7813",
"h. c #F37925",
"j. c #58811C",
"k. c #6A8419",
"l. c #778518",
"z. c #7D921C",
"x. c #5D8128",
"c. c #708A29",
"v. c #6B8A4D",
"b. c #91810D",
"n. c #8A8619",
"m. c #978717",
"M. c #9B8C19",
"N. c #8B961B",
"B. c #98971B",
"V. c #B4830E",
"C. c #A38514",
"Z. c #A88716",
"A. c #AB8B15",
"S. c #B68915",
"D. c #A9961A",
"F. c #B8971A",
"G. c #9DA31D",
"H. c #ADA61E",
"J. c #B6A31C",
"K. c #889124",
"L. c #979A23",
"P. c #AB9626",
"I. c #85A022",
"U. c #97A223",
"Y. c #A8A628",
"T. c #B9A523",
"R. c #CB850E",
"E. c #C68915",
"W. c #D78914",
"Q. c #C69519",
"!. c #D79819",
"~. c #EC870C",
"^. c #F6870B",
"/. c #FB980E",
"(. c #E88813",
"). c #F58A15",
"_. c #E7981A",
"`. c #FB9C14",
"'. c #F59419",
"]. c #F79818",
"[. c #C9A51D",
"{. c #D9A51C",
"}. c #E9A71C",
"|. c #F9A717",
" X c #F2AA12",
".X c #F5A31B",
"XX c #FCA31B",
"oX c #FBAA1C",
"OX c #FAB31C",
"+X c #FCBC1D",
"@X c #CC9C2F",
"#X c #F7982C",
"$X c #C6A923",
"%X c #D7A921",
"&X c #D7B322",
"*X c #CAA734",
"=X c #F5AA23",
"-X c #FAAC22",
";X c #EAB122",
":X c #FCB423",
">X c #FCBB23",
",X c #F8B826",
"<X c #FAAC3A",
"1X c #FCB835",
"2X c #FDC71C",
"3X c #DECD2D",
"4X c #E7C72C",
"5X c #FDC324",
"6X c #FECB24",
"7X c #FBC62A",
"8X c #FDCB2B",
"9X c #FED225",
"0X c #FED32C",
"qX c #FEDB2C",
"wX c #FCC835",
"eX c #FED433",
"rX c #FEDB35",
"tX c #FEE72A",
"yX c #FEF12E",
"uX c #FEE233",
"iX c #FEEC34",
"pX c #FEE63A",
"aX c #FEED3B",
"sX c #FFF338",
"dX c #AB9745",
"fX c #FAB247",
"gX c #EAA052",
"hX c #FBB958",
"jX c #F9B66D",
"kX c #FCC547",
"lX c #FED346",
"zX c #FDCF56",
"xX c #FEEB47",
"cX c #FEF348",
"vX c #FEE959",
"bX c #FEF257",
"nX c #FDD76B",
"mX c #FEEA67",
"MX c #FEF566",
"NX c #FEE972",
"BX c #FEF678",
"VX c #B4C5A4",
"CX c #FBD799",
"ZX c #FDE88D",
"AX c #FEF785",
"SX c #FEF58B",
"DX c #FEF99A",
"FX c #FDE6AF",
"GX c #FEF8A9",
"HX c #FEFAB8",
"JX c #FEFCC5",
"KX c #FEFBCC",
"LX c #FEFDD7",
"PX c #FEFDE6",
"IX c #FEFEF4",
"UX c #FFFFFE",
/* pixels */
", * * , y i i t * : a ; g >.+ 1 i i 1 * 6 i 0 & & i 0 ; y > b x # i q : 1 : % * i 1 : : ; i ] t ; % * * >.1 + 6 y 6 1 > , y i 0 ",
"i + : 0 , y ] 0 % : i 0 e 1.h + i 0 1 i y * & q a i & % i e U v a i : 1 i 0 , y i 6 0 0 % ; A i : 6 < Y ( e : 0 6 6 0 K 3 < 0 & ",
"[ K 9 i : 1 Z t 0 0 i 0 u } *.u Z & : i i % % y [ t % * y u -.K 1.V o : i a i i 6 & 1 y , + S G t u / =.u q : 6 , ; V ~ : 0 t % ",
"0 ~ ~ u y : & t y q t y i 9 U / Q l X 6 t 0 : 6 i 0 1 : , 8 N.J *.7 & % 1 i i 0 q & % q i Z D 1 0 1 *.V 1 : , i 9 v x 8 6 i i : ",
"& > L ) p : , Z 1 ; 1 Z a < - &.M +.% ; 0 i y 0 0 : 6 0 m K z._ +.5 9 t 0 y 1 * a Q 3 : 9 :.E + * #.M p i : y d ( v ; i 6 1 i i ",
"* % + ~ ~ > Z ] t : : u l.F O N ) I K < y u y Z a & ; p | Y l.!.+.5 q [ a 6 1 1 A / 1 & g *., O Q 4.1 [ i , e Q ^ < i i 1 % 0 ] ",
", * : # L v < y 0 t 6 ; C ~ u u >.k +.< G / t y ` < k j F =.N.!.*.5 < ` i 0 y 0 Q 7 1 < =.N O C W.F U c 1 > ( 2.@ i y 1 6 1 0 Z ",
"` Z 0 , p ^ v > ; i a , X x ( s W #.b N u n.A + , 8 =.l - &XU.E.,.w n 5 & 0 i j #., < G M.: X <.S.i 2 o + 0 6.g o t 1 % 0 i q i ",
"y t ; 1 ] s ^ ~ # q ` y % * Q 7 @ A.R @.O ^ V M v O m :.g {.G.Q.B.A W 3 o j 9 n./ = u n.W $ ;.Q.C / 9 t 9 +.j # * i y & % 6 y a ",
": 1 ; 1 y j @ ~ v X y i , 9 C @.> / D.v z N _ z U X 0 M.j.{.4.[.B.a ) z z ;.V S.} ; 3 <.t V Q.;.v.0 1 ] C.g + t ; 1 i 0 , , 1 0 ",
": y i y < h b # ~ v < Z a [ 0 m b.+ D.A.@.a M.w R N ' 7.;.{.6.[.N.w 7.Q z 2 W b.t 1 U x $ Q.C.V / ; + 7.%.+ 1 Z 7 * t ` i 0 t q ",
": t y t 6 @ x =.r L v > u / 5 t Z.h I $X#.| c.I m.) x.K.M.{.M.[.N.T D.% _ R :.F.N ) ,.@ ) F.E l.> < 5.#.+ 1 F V K % 1 i y u i 1 ",
", , : 1 0 y 9 W =.X 3.:.0 : I A Z y.l A.A.>.t m.V.m.K c.D.[.A.OXJ.;.N.- T.@.$Xn.@.,.h l ,X=.i.j y 5.6.> > / @.: 9 % * 6 ; m q + ",
"Z 6 : 1 i [ G # ( Y * _.M.. z :.a S $.v &X+.h _ m.{.2.k.}.M.u..X}.R.W.E.;.+.;X/ l n.* W.F.A.K A _.6.8 y Q U o , i 6 1 # N ;.i : ",
"[ 0 , 1 0 ] / % # Q ~ q !.n.x b F.@ +.U A.S.U j.[.!..X,.}.0.9.oX_._.t.q.o.E.[.b C.P _ ;X4.A.D D.W.h 1 =.b o + i Z 8 y ,.;.p i i ",
"y * % ; : t 9 % % 9 Q Y y [.M.+.V.<.B D.=.+XW.L.P.!.p.3._.f.|.6Xf..X^.9.O.W.Q.7.J.U ;XY.D./ <.F.U 6.^ 5.L g + i e Q &./ a , * t ",
"> 0 0 * 1 ` i < & * M N Y J !.!.U F.C.M M.4X>Xi.2.].9.e.wXNXbXiXpX9X1X#Xe.+Xd.p.o.%X{.F.M.A.{.~ ~ :.5.C., t > V U U 5 @ t 1 , , ",
"Y G e ; 6 t 9 ( n @ F D K %XZ.!.!.;.Q.4.#.!.5Xr.X.q.+X^.:XJXvX+XpXXXXXOXhXBX~.X.d.0Xt.o.6.oXE.&.n.8.8.: t s ^ 1.P O # L J u 0 , ",
"v L N 5 O j j D D z y A ) v D.S.!.!.%.!.t.t.(.2Xa.^.pXXX1XoX-X8X`.-XrX/.FXNX/.f.6X X9.t.oX_.P.M.S.~ X U T 1.x + 8 M K l 0 i < X ",
"+ X K $.W K g k Y 3 P n.k.C.$.T.7.!..X0.q.e.hXBXvX/.8X:X).^.^.sX5X:X].`.:X>X|.qXeX<XoXOX].a.p.T.( :.S *.m.2 . k >.m.A + + e Q b ",
"y 0 0 9 | n.$.x +.4.N.n.Z.n.E.S.T.u.XX).f.nXCXkXeXOXqXuX/.a.s.qX>X^.s.:X|.5XaX,X'.CXLX<Xe.].e.*.$.7.@X2.c j @.-.M p u < x ^ 7.~ ",
"6 6 , , u s A -.,.6.A.n.M ) k b u.d.a./.|.,XwXqX.XwXlXXX).>X^.>X8X8X>XiX>XoXiX^.a.1XMX0XnXMXOXu.m.o.b ~ n.-.Q n j 5 F 1.@.v & r ",
"X X ; : i m.F u A =.V.A.E.$.V.3.O.a.2X,X/.0X`.7X].].MX2X|.rXbX9X0XiXpX8X5XcX-Xf.|.>X'.f.NXHX+Xa.E.v %.Q.J F m.I B.{.4.4 . * 4 / ",
"@.W 9 ; ; j +.P _ : 5 R R.;X X~.X.>XNX#Xe.].7X:X0X/.tXbXaXvXDXxXaXGXMX6X7XcXXX>X,X].s.'.uXAX7Xf.t.5.-.( =.>.[.Q.C./ 4 ( b 1.N 6 ",
"L F.!.B.J ; . + x M.Q._ M 4.!.+X(. XDXjX+Xa.=XsXiXqXtXSXIXSXGXJXcXPXSXaXxXbX9XeX7X8Xs.wX5XhX<X/.q.O.3.W.{.%Xn./ k.Z.M.K v [ d ; ",
"# 0 W N.{.G.S.S.H N ~ l.A.-.%.a.`.,XhX<X].w..XiXvXSXMXiXGXJXSXIXMXJXHXbXSXPXbXiXrXoXs.).).oX=Xa.d.=X}.[.Z.6.=.Z.L.( / j # i i 1 ",
"t 1 + = 0 G $.N.Q.,X;XB.C.Q.W.d.`.kXhX<X'.,X:X>XuXHXUXKXbXIXLXPXAXLXHXBXPXLXMXtXeX-X>XXX-XqXiX.X.X_.7.7.L.:.l ) :.n.:.Q ; : 1 1 ",
", % o ; e / 4 M B.D.S.[.>X;X.XOXaX`./.^.0XqXiXaXiXtXHXUXLXGXUXUXKXIXIXKXHXcXtXiXiXiXuX0XsXkX:X=Xa.X.r.!.N.Q.n.T 5 3 = 9 , , 1 X ",
"y 1 n 3 M Z + M c.m.R D.2.r.).>X+X`.8X,X^.`.qXBXHXSXMXGXUXPXUXUXUXUXUXIXGXSXJXbXyXqX8X:X].hX'.mXvX^.t.$XZ.#.K >.P : M @ 0 u y v ",
"] i G 7 N ^ Z @ -.Z.B :.7.0.^.6Xh.).>XXX8XqXtXbXDXUXIXHXUXUXUXUXUXUXUXIXGXGXUXJXxXeX>Xf.^.'.vXJXZX^.t.M.Q.d.i.4.M.k./ y.D.Y.1.I ",
"@ @ . @ p u v.e l R M._.W.O.f.#XnXkX6X).>XiXaXxXxXDXIXUXUXUXUXUXUXUXUXUXIXHXSXMXZXSXqX7XXX7XDXLXrXs.!.T.N.z.D.!.l.z.l.U 7 ; o . ",
"@.@.U &.;.^ ^ n.k./ K.L.P.W.XX=X|.|.8X|.oXqXMXAXBXGXJXIXUXUXUXUXUXUXUXUXIXAXAXSXBXeXOX>X`.7XuXqX0X,X'.W.C.Z.<.<.+.,.N.@.#.n.N.B.",
"x z M K 4.4.M.B.Y.%X,X6X5X8X5XtXeXwXwX-XoXsXtXcXMXSXGXIXUXUXUXUXUXUXUXUXUXPXJXLXMXiX0X'./.:XMXvX+X0X6X>X;XT.T.J.$X[.Q.R.W.!.Q.Q.",
"*.>.>.*.p.p.!.%X!.Q.Q.Q.i.(.`.eXDXnX8X`.XXrXlXMXGXPXIXUXUXUXUXUXUXUXUXUXLXPXPXKXSXiX0X.Xe.].h.FXFX^..X5X.XF.j.n n A h 4 8 8 . . ",
"4 A ' 7 ; 9 + > = 2 m b E.r.a.vXCX).^.e.].eX0XcXBXHXHXLXPXUXUXUXUXUXUXUXAXcXBXGXvX+X>XuX#Xs.#XfXnX).9.3.D.L.k.D.;X.X).E.U.U.B.B.",
"; t u 9 7 V ) B.U.{.H.J.5.a.'.DXgX^.wXe.a.oXpXtXMXSXbXSXIXUXUXUXUXUXUXUXLXJXbXiXsX8XoX-XgX).].g.mX`.0.+.n.;.R $.;.5 : 5 A n n A ",
", 1 Q =.,.4.x n N.C.D.l.b 0.^.6X-X/.'.s.e..XxXbXAXHXIXIXGXIXUXIXUXUXHXLXDXHXUXBX+X0XqX8X^.`.,X).^.q.r.~ a j B _ / # , u t ; ; q ",
">.2 l x ; 9 o J G k.l.l <.i.d.f.,X'.].,X7X,XqXuXtXMXJXbXSXUXIXJXIXIXKXBXGXaXMXrX0XOX].).5XuX5X5Xp.u._.F.!.n.4 A i ; < ` i : : , ",
"6 , + X 6 i y t A G ( W.$X*XV.9.`.pX6X8X'.).].5XsXcXyXMXIXJXIXSXKXSXUXAXbXHXaXtXOX>XOXf.XX0X8X-X=Xp.A.D.A.D.A.I.D * 5 q 0 i y : ",
"t t y : i i 0 ; I D.A.B.S.Q.>XoXOX'.hX).).'.^.:XpX0XtXBXPXBXHXAXKXBXJXGXtXNXxX5XzX].#XhX<XlXs.t.XX}.F.Z.B.Q.J.n.D g z - ; ` ` 1 ",
"y t & & ` a % F M.<.M.V.(.+X_.(.w.OXHXgX<Xs.'.1X:X8XiXiXBXNXBXbXmXcXMXwX0XOX+XOX1Xe.'.cXFXfXf.q.y.S.F.Q.!.W T *X!.5 t p 1 0 1 q ",
"6 1 , , 6 ~ 3 l.n.@.M.%X!.>.m.E.9..X0XzXfX`.eXg.'..XuXwXxXtXcX6X0X>XuXXX^.+XeX|.|.].eXSXZX Xa.0.3.#.k.m.S.&Xm.M D h C.n.6 , , 1 ",
"1 , Z i % f / A.Y [.D.R o.R ) 6.u.q.e.f.|.rX>X/.6Xg.].oX0XoXqX>XpX).oXOXw.f.5X8X`.kXjXfXlX.X].y.F.6.-.$Xn.=.[.F.,.5 o W 6 t y : ",
": + ] ` N ) m.V.W.T l ,.m @.F.$.!.(.9.~.>X].lXzXhXf.0X>XXX-X,Xf.-Xa.oXuX^.a.oX8XnXvXgX^.a.'._.7XF.m.E.I j _ $.:.;.F.4.3 X 9 y & ",
"o h n 8 S $.b.W K $.I 6 ,.:.F F.F.o.W.0X_.a.kXFXFX<XiX:XXX^.,X5XoX^.'.wXf./.+XiX1XxX~.a.u.p.OXA.}.C.7 A.Z.V 6 #.F D =.#.U D u = ",
"X 2 j R m.W > W @.: o #.$.B F.D.$.7.>X}.(.9.f.XX/.1XuXrX1XjX`.5X'.).`.qXzXmXkX.X5XXXd...}.E.3.OXR.J.&XQ J =._ < 6 L L + C -.,.D ",
"j R ,.W u F L / > 2 #.m =.[.-.M m 3XS.5.v Q.~.0.e.oX(.|.zXFXnXrX7X(.].-XAXMX1Xw.=X_.u.3.S.}.#.#.8XQ.A.OXy + I @.y 9 3 l / 0 m &.",
":.Q 0 9 ) +.5 y J h - D m.6 n 3 [.D.Q.@.k ,X7.E.3.oXp.d.XX-XnXeXOXt.+Xf.~.`.9.r.!._.t.I S.%..X<._ {.!.) D.| $ h C i * : J m # 9 ",
", u W 7 / X + 5 m.t Y m.Z 9 4 }.A.A.M.B Z.].,.m.V..X}.t.0.a.a.OXOXd.d.9.d.q.r.6.D.&X!.+.] n.) E.N ;.{.Q.K dX/ @ y i 5 W # ; ` [ ",
"7 S 5 + < , % < M #.z O 6 # B.E.[.C.T 5 A.7.:.N ,XXXF.m.&.i.r.g..X6Xy.r.!.<.T.) J.{.&X#.Y C ( ! W.m & !.F.$ =.K e i 1 0 0 , ` a ",
"( g & 1 0 y ; 0 q g X & X m.A.C.M.>.W m.J =.:.m.>X{.C.E.u n.%XW.}.>XS.Q.{.J T.-.Z.c.M.F.*.% v ( ( y.# 7 E.,.8 @.P 9 9 i t , y 0 ",
"6 + * t y ` y y t ; 6 # #.7.Q Q.U S c.;.6 E.x Q.[.[.C.b.. P.V.F..XXXD.F.:XK.n.Q.C S.l [.:.b - ( a E Y r ' 1.~ + h W G i , & t t ",
", : & 0 , y i ; t , < 1.5.* 7.U l ; } } W :.2 $XA.B.{.M   M.Y B.{._.U.$XP.c.l H.8 -.l <.&X<.5 u ( + v ^ r r L L . =./ u : : q 0 ",
"t 0 & , : 0 i * * X j 6.c 4.C N < / 2 O <.- l.$XZ.F.N.: m T.w I.$XA.z.P.D.l.X =.n i #.o %Xm.U y G y O v U ; > ~ ) 6 1 0 1 q i 0 ",
"y , ; : i ` Z t o 5 @.6 -.J ( D u i o z m.; {.T n.T ,.@ <.1.u U.$XS.l.J K.:.y / k.# j g W F.R P s [ i > v v < p ) L & < q 1 1 i ",
"] * : 1 Z ] 6 > 7 >.1 U N u K % = i ; h j V J.3 z W ( O m L.Z L.Q.J.l./ k.N.J c <., q 6.> C.$.@.7 i a t o h q ` p z P Q 0 & * i ",
"Z 1 % & t y + * 1.0 S U 4 / > : 0 a V v X Z.Z.m _ S c + 7 c.] ,.Q.T._ L ) n.M X N Z u _ ;.Z <.v 5 > t t = @ ` y y > 7 >.G 9 0 i ",
": 1 y 0 t 6 O Y Q j -.i i j & q Z 0 W C 9 S.F ;./ V 7 i 1 a A *.Q.$X@.Q ( x.M.< z Z t 4 ) d ;.2.: M u i & : ` i y 0 < e ;.F 0 1 ",
"% 1 a y 6 & v ) # v k u i 9 * y i * x > ( A.= =.1 < 1 Z } y 6 4 C.T.&.: N { x.i h : : ; C K # &.x ;.x.u & * 0 0 y y 6 ; 2 U 6 1 ",
"* 1 y 6 ; l L e 1 + ; , 0 y 6 6 1 % : # 4.Q # & : & & 0 } 1 0 v.H G.+.X h Z a i ; : 1 i i % o C &.; | 9 & : 1 0 t 1 : 1  .1 : 0 ",
"% : 0 6 , : ; Z y 0 i 1 , 0 : & * : u C -.a a 0 i , % : & i i 0 J Y.+.X o 0 / G t ] ] i i t 6 > @.l < 0 0 i i i y : * v.VXv., : ",
"% % , 0 y 1 % 1 6 6 ` i 6 : % : 1 % > -.K a Z y i q 6 y 0 a y & J L.&.5 * 0 V V a Z q 6 i a 1 ; 7 5.4 9 i i 0 i Z 0 0 { v.i : : ",
"1 : 6 0 0 1 % , , % 1 q 0 : & 6 i & & _ , Z i * 6 q a ] 0 1 , = J z.L K < 0 1 1 i 0 * * 1 1 1 i u Q @.> y , : 1 i i a i : % : y ",
": 1 Z y : % % Z 0 % o & y i 1 6 ` 9 Q k & Z Z % * : 0 ] 6 * % + F z.v Q u 6 * * 0 ] i % o 1 Z [ a i =.D 0 & * : 1 y i y : * 1 q "
};
