/* XPM */
static const char *patlamafive[] = {
/* columns rows colors chars-per-pixel */
"64 64 251 2 ",
"   c #0D131A",
".  c #191617",
"X  c #1C1618",
"o  c #1E1A1A",
"O  c #231917",
"+  c #2B1A16",
"@  c #221718",
"#  c #241B1B",
"$  c #2A1E1C",
"%  c #341D17",
"&  c #3A1E17",
"*  c #311D19",
"=  c #163F03",
"-  c #1B3013",
";  c #26390E",
":  c #262917",
">  c #222D14",
",  c #26221B",
"<  c #2C211E",
"1  c #2A2B1A",
"2  c #3A2116",
"3  c #33221C",
"4  c #3C231B",
"5  c #293717",
"6  c #33341A",
"7  c #35391B",
"8  c #281F20",
"9  c #301E21",
"0  c #262122",
"q  c #2D2322",
"w  c #2E2827",
"e  c #332522",
"r  c #3A2621",
"t  c #352925",
"y  c #3A2A25",
"u  c #362629",
"i  c #342B2A",
"p  c #3B2D2A",
"a  c #383926",
"s  c #3D312D",
"d  c #3E3432",
"f  c #411F14",
"g  c #442315",
"h  c #4A2516",
"j  c #44261B",
"k  c #44291D",
"l  c #4C2A1C",
"z  c #532715",
"x  c #5B2A16",
"c  c #532B1A",
"v  c #5D2D1A",
"b  c #41301A",
"n  c #59351C",
"m  c #642D15",
"M  c #6C2D13",
"N  c #63321C",
"B  c #6C351C",
"V  c #753214",
"C  c #773519",
"Z  c #7D3C1E",
"A  c #402720",
"S  c #432C23",
"D  c #4B2D22",
"F  c #422F29",
"G  c #562E20",
"H  c #4D3027",
"J  c #43322D",
"K  c #4C342C",
"L  c #453B2E",
"P  c #543223",
"I  c #5A3424",
"U  c #53362A",
"Y  c #543A2E",
"T  c #5A3828",
"R  c #5C3A2C",
"E  c #432E30",
"W  c #453531",
"Q  c #493732",
"!  c #453934",
"~  c #4B3B35",
"^  c #443B3C",
"/  c #4C3D39",
"(  c #533D34",
")  c #5A3E32",
"_  c #513F39",
"`  c #643926",
"'  c #6C3B24",
"]  c #693D2A",
"[  c #733B23",
"{  c #7D3C21",
"}  c #623E31",
"|  c #1E4401",
" . c #1A4606",
".. c #1D4B04",
"X. c #1E5108",
"o. c #224602",
"O. c #254B05",
"+. c #294E06",
"@. c #284609",
"#. c #254C09",
"$. c #294D09",
"%. c #334B0B",
"&. c #374809",
"*. c #255106",
"=. c #295207",
"-. c #255209",
";. c #2C540B",
":. c #225B0B",
">. c #2E590D",
",. c #3E5006",
"<. c #32550C",
"1. c #3A540A",
"2. c #315A0E",
"3. c #3C5B0D",
"4. c #2C4412",
"5. c #2A4B11",
"6. c #334C14",
"7. c #364619",
"8. c #265710",
"9. c #2D5312",
"0. c #2E5B11",
"q. c #335412",
"w. c #345C12",
"e. c #3A5D13",
"r. c #375518",
"t. c #3C5D1A",
"y. c #366013",
"u. c #396216",
"i. c #3A6216",
"p. c #3E6816",
"a. c #336318",
"s. c #3D6519",
"d. c #3E6619",
"f. c #3E691A",
"g. c #3B4825",
"h. c #3D4030",
"j. c #414D08",
"k. c #465509",
"l. c #44560B",
"z. c #445B0C",
"x. c #4B5B0C",
"c. c #5A570B",
"v. c #535C0D",
"b. c #494617",
"n. c #56421A",
"m. c #4B5414",
"M. c #435C13",
"N. c #455915",
"B. c #525912",
"V. c #655C0C",
"C. c #644A17",
"Z. c #785D15",
"A. c #57620D",
"S. c #456314",
"D. c #4A6312",
"F. c #41651B",
"G. c #426B1C",
"H. c #4A691A",
"J. c #546414",
"K. c #536B15",
"L. c #5A6817",
"P. c #46701F",
"I. c #48721D",
"U. c #67630D",
"Y. c #78630C",
"T. c #676714",
"R. c #626C19",
"E. c #736B15",
"W. c #796812",
"Q. c #6D7119",
"!. c #4E4927",
"~. c #4D433B",
"^. c #5D4236",
"/. c #574836",
"(. c #54433C",
"). c #59443D",
"_. c #69452A",
"`. c #76432A",
"'. c #79432B",
"]. c #71522F",
"[. c #634334",
"{. c #6B4434",
"}. c #64483B",
"|. c #6B4A3A",
" X c #754936",
".X c #7B4B34",
"XX c #7A523C",
"oX c #466E22",
"OX c #476A27",
"+X c #467020",
"@X c #4A7222",
"#X c #4D712C",
"$X c #546E33",
"%X c #657021",
"&X c #4F4441",
"*X c #544442",
"=X c #594643",
"-X c #574945",
";X c #5C4A43",
":X c #5B4D49",
">X c #5E5047",
",X c #5B514E",
"<X c #624D44",
"1X c #654D47",
"2X c #675045",
"3X c #64524B",
"4X c #6A544C",
"5X c #765749",
"6X c #685753",
"7X c #6E5B53",
"8X c #715D55",
"9X c #755C56",
"0X c #5E7C46",
"qX c #6A615E",
"wX c #74625B",
"eX c #7C6258",
"rX c #776763",
"tX c #7C6A63",
"yX c #87310F",
"uX c #863714",
"iX c #963C16",
"pX c #8F401C",
"aX c #964418",
"sX c #B14811",
"dX c #886912",
"fX c #8F6A14",
"gX c #947515",
"hX c #A87317",
"jX c #854528",
"kX c #9B4A24",
"lX c #915927",
"zX c #894D32",
"xX c #8B5439",
"cX c #935739",
"vX c #AF5124",
"bX c #8F6B2F",
"nX c #C04F1D",
"mX c #D46B16",
"MX c #8C5943",
"NX c #A45E40",
"BX c #87634E",
"VX c #956249",
"CX c #856558",
"ZX c #95765B",
"AX c #A4714E",
"SX c #8B756B",
"DX c #71894F",
"FX c #6C8852",
"GX c #7F9569",
"HX c #869671",
"JX c #B3C4A2",
/* pixels */
";.O.O.;.u.d.d.y.O.=.d.=.=.u.#.>.d.d.>.O.2.u.w.O.O.d.w.$.e.w.o.=.d.F.w.=.2.;.o.O.d.>.=.=.O.d.@Xu.=.O.O.o.w.w.o.w.u.2.>.;.;.u.d.w.",
"d.o.=.w.;.w.G.2.o.*.d.w.u.+X$.O.d.w.>.u.y.O.O.y.f.y.O.o.d.d.$.;.@Xu.=.>.d.w.;.w.u.2.w.w.O.=.G.u.=.2.w.>.G.u.=.w.2.>.w.>.o.>.w.O.",
"G.>.w.u.=.>.d.w.2.2.u.w.u.G.w.y.d.=.$.u.u.O.o.u.@XF.O.O.w.F.w.w.@Xw.o.=.d.d.u.d.2.O.>.u.=.O.u.d.w.w.d.u.d.w.=.>.=.O.w.w.O.2.w.O.",
"w.w.>.y.y.O.O.y.y.w.w.u.u.w.=.G.d.$.o.>.u.2.=.;.#XHXq.O.=.u.y.OX$XO.+.O.w.d.y.2.w.O.O.w.u.u.y.;.2.2.w.u.2.=.;.u.w.o.#.y.2.y.u.=.",
"o.;.;.u.f.*.=.G.>.-.>.d.G.>.o.w.y.$.o.=.w.u.u.w.2.O.;.u.2.2.0.x.v.$.w.w.w.d./.@.K.w.O.=.w.d.2.o.=.O.>.G.u.=.w.+Xd.O.#.u.>.>.y.u.",
"o.o.O.w.w.;.G.@Xw.=.=.y.P.u.-.=.w.=.;.2.u.y.u.G.d.O.$.G.G.w.=.-.<.%.w.@Xd.w.N.q.R.d.>.=.;.;.=.=.>.;.A.P.u.=.y.d.w.>.u.u.>.O.w.+X",
"=.O.O.*.;.=.w.u.w.w.2.=.w.u.u.u.w.O.O.>.d.oXd.e.G.>.O.>.u.d.;.v.2.O.w.G.u.w.y.t.q.;.=.u.d.O.O.>.S.x.+.w.>.;.u.;.=.u.y.>.>.>.w.G.",
"G.f.>.;.G.u.=.>.O.d.G.>.o.>.f.G.e.l.| $.2.FXOXo.=.>.=.O.=.p.>.W.J.;.2.;.=.e.a.T.V...2.P.G.O.o.;.R.S...o.o.2.d.O.o.w.>.o.2.u.w.d.",
"y.w.*.>.G.G.w.w.>.w.G.u.o.O.y.>.B.L.0.O.O.3.W.8.<.1.#.2.>.7.a _.n.h.~.7 o.d.FXA.z.;.u.d.2.>.;...D.u.w.w.>.O.=.=.O.w.w.O.o.2.u.G.",
"=.>.=.>.u.;.O.w.=.O.u.u.;.w.u.=.;.t.t...| w.gXJ.=.c.e.u.7.=XwX3XQ (.5X_ 6 o.z.E.w.;.;.2.w.2.>.v.D.>.2.G.d.o.O.w.=.>.u.w.;.;.2.w.",
"=.u.u.u.>.o.o.>.>.=.w.u.d.G.u.=.<.;.r.&.O.f.R.Y.X.l.I.r.*XtX8XwX;X( R ;X~ - Y.lX^ >X7 4.y.>.b.fX2.O.o.u.y.O.>.G.>.O.w.G.d.w.u.w.",
"=.w.u.u.2.=.=.w.u.=.O.>.y.>.+.-.v.1.v.c.=.I.g.K ~.g.r.d =X7X(.(.;X;XJ ~ Q t /.3X9XBX:Xp 5.D.hXx.w.1.=.>.=.;.y.u.2.o.>.d.u.u.u.>.",
";.;.=.>.w.u.u.y.u.O.o.>.w.$.| w.u.2.l.V.z.7.1X7X6X<XE =X;XJ J / |..Xq q p _ 4X}.}.|.>X_ 1 Z.dX:.N.N.2.2.;.w.2.;.w.O.O.>.=.w.w.O.",
"G.2.=.>.y.@Xf.;.d.2.O.y.d.m.%.w.d.$.= &.j.! tX4X).J ~ ~ ,XJ p J ( Q W t t p 1X'./ *X5X4X/ e s FX;.>.2.w.>.;.o.=.u.2.>.2.2.d.u.=.",
"P.2.=.>.d.G.u.o.=.w.D.L.a.2.%.#.L :X-X:Xa -X<X/ (.p ).~ '.F e ~ (.).7X_ t / 8X.X~ s  X}.~ W u a +.O.>.2.=.| | y.y.w.w.u.f.u.u.u.",
"w.O.| d.0X>.w.O.| 0.e.U.u.>.#.L 8XwX<X8X1X(.~ q J / p e A S c i _.cX~.y i eXXX:X<XW p p t J J y ~.! ;.q.4.w.$X2.y.2.;.w.d.=.O.w.",
";.w.2.O.;.G.y.3.V.o.O...v.A.6.=X7X).4XJ p _ ! K '.r s ;X:X=Xt J `.[.p p / 1X} W J y A h t t e ).4X3Xs 5 6.d.OXq.q.;.O.=.y.=.=.=.",
";.y.y.O.;.y.S.u.z.j.e.2.O.l.6 *X4X).7XJ ~ [.zX^.T p 3XtX8X).e e J t e (.<X~ w e e t J l j # O p ~ ).).t 6.2.=.r.;.$.=.>.d.w.w.=.",
"O.=.;.*.O...,.gXx.1.D.7.7 T ^.&XrX3XJ !  XaXs t n ~ qX;X;X(.p J i ~ J )._ # $ p J e # O + O @ $ t e ~ p 4.q.2.;.;.6.>.O.2.y.>.o.",
"O.o.>.>.2.O.| 1.Y.A.5 *XrXCX3XK 5X6XJ i pXI 3 < 0 p XX|.~ (  X5XT i J J < $ h U (.~ W m 2 j $ e ! J y p 1 =.6 6 >.p.d.=.=.u.w.O.",
"w.2.w.w.G.G.;.DXJ.V.K *XeXVXi F Z { H p ) H m o J s ] `.P e [.}.|./.$ O ~ 1X*Xs J p t P e e e F {.l e W p 6 4.$.;.F.u.>.=.w.w.>.",
";.;.;.;.d.+Xu.y.2...L ).7X8X;X(.F [ uX(./ w J ] ) -XCXzX~ W 6X,XxX5Xi p 6XCXSX:XJ q s 3X(.e < t l $ i ;X4X( 1 $.O.O.;.D.>.O.O.u.",
"o.o.O.*.w.u.2.y.y.5 s ~ (.3X;X;X*Xt B ! Y ] {.mXB d <X).p / rXtXeXMXMX/ (.2X5X5XY I R 3X;XJ t p s ~ D }.;X/ u > *.x.V.J.-.O.O.d.",
"O.;.e.3.;.;.o.;.!.6X7X<Xt ! =X[.{.$ n P ;XxX.XI J s W ) ( {.jXt ).2X5X).y ;X<X) r K ] H W ~ t y 2XQ K J t J p > dXhX2.*.+.w.2.2.",
"=.G.S.u.=.=.=.@.=XwX3X'.Y S T ` r q t 5X8X).J d wX8X6X{.VXZXBX/ W ;X<X/ t (.] [.! e w # $ < < e / (.(.i q < # n.E.d.y.+.=.P.G.;.",
";.y.>.>.3.A.z.m./ 4X;X).Y U ).;Xi $ Q 4X2X/ p BXZXqX3X'.5XSX,X3XJ p J J ).(.D Y W e y 2 + . # e t ~ J # $ @ + < 9.d.N.q.;.w.u.;.",
"2.;.=.;.y.y.<.;.a 1X).q ( XX;XW e 3 ^.}.~.) ~ 8XVXF (.kXp ;X X/ J e @ t 7X3X~.q < e # x yXuX# e p _ / p @ $ p e , 5.>.7.7 O.2.$.",
";.O.o.=.y.%XB.*.q.a ).t _ 2X:X*Xt $ ' ].[.'.`.zX^.p / K J ).pX[ ~ / / p ~.ZXCX^ c C   4 m C K t p _ _ p O # e e t o x.e.$.=.3.@.",
"d.2.;.O.>.H.;.e.F.! ! t ~ ;XwXSX3XQ k d cXT J ( w D 1Xs 4XtX,XY ;X3XrX(.q XXMX6XF 3 X # 0 e Y J t W W t e @ $ e e O 3.2.w.d.w.o.",
"P.d.y.>.w.>.=.6./ CX1X` y :XrX7X;Xr k B .X:Xt ~ *X[.^.7XSXCXVX&XW 3X5X/ e ! =X(.D S % 4 e 0 X F ` K Y t $ O $ e # 5 ;.o.2.G.w.=.",
"=.=.*.O.f.>.8.a 7XMX` ).t  X2X;X).w P Z W 7XJ =X8X/ [ tXrX4X<X~ d cXvXd r kXT t 2 j O # $ @ z 4 B S ' # + * @ @ : u.>.o.-.>.=.;.",
";.<.+.0X%XU.Q.n.NX3XJ p e .X|.;X<X< ( ).` {.( ~ / t (  X X*XW t ~ Y F i t f c 3 X $ , y t X e g g p R r 4 h X * 1 e.N.3.3.<.%.<.",
"1.T.W.bXT.1.U.n xXcX^.T i s ;X<X~ O K kXV e '.(.t t p ' ) p e e s t e e # k t n aXg w P 2 , , + 4 y / XXx   4 c n T.U.hXhXfX$.c.",
"2.u.u.O.*.*.*.a {.<X}.Y ).p ~ ;XW $ t H ' S ! t /.AX).e Q p 0 i t q y q + m # z C o D c # @ @ # # B F ~ H # $ e v m.;.;.d.F.q.>.",
";.p.P.2.=.w.2.7 ! _ (.q J <Xs Y _.0 8 K { G s Q wXAX5Xi k p k Z / p F K J X @ $ q p 4 8 j g x c e e r J t < # $ 4.w.1.@.q.w.$.O.",
"=.u.u.2.>.w.;.q.e J J J t W } T q c m p J q e t Y } _ w N { ` [ ~ i h S i $ $ $ 4 c m C.# $ g V aX0 Z P e < # : 2.;. .=.2.;.O.>.",
"=.=.OX$Xq.2.| ;.r.q p t t W ) ) 0 v v o t e 0 # , o @ < 0 e k P e , . % & 4 v * Q ^.{ sXA o @ g 4 q r r , $ e @ > H.GXG.u.>.>.u.",
">.O.r.d.*.y.OX2.u.6., @ J ) Z K P 3 * # v y D 4 @ p t $ o q q l # < 2 + g x $ $ w `.iXv 3 @ # h K s # e $ J e $ > 0.FX@Xd.=.=.;.",
"2.=.O.o.>.R.DX0.2.5 p e e ( } R I t 3 # $ t D 4 @ ~ ~ e j 0 I I K [ m r 3 * e 0 % 3 l % $ , j jX` 0 y 4 3 H t 8 &.@.= w.w.u.u.=.",
"y.w.w.=.y.L.l.;.$., ~ s O q q t T G S s p X . X e J R ` H e $ l {.T z c c @ y I N 4 g x l # H K t < w l k j e , l.%X$Xo.=.G.G.;.",
"u.y.O.O.f.R.V.l.y.< Q ;Xe $ @ , 4 o q <X2Xp c $ # p F e @ $ < , # , 3 t p t J H H N j 0 $ e e $ @ X @ # $ # # ; >.0.oXw.;.w.>.w.",
"2.>.;.=.>.3.2.y.u.> t ).(., 2 4 # < p (.{.K j @ O 4 , # x $ l C q O 4 p t F J J t # l $ q 4 j . # r l X : @...$.e.;.F.P.;.2.=.;.",
">.=.d.u.O.| ;.D.J.U.b e ).! 2 A # 4 3 W J J w # r r o $ X x 4 # $ < 3 # o t J 0 k N P q t , $ h J J # $ # Z.gX8.0.O.+.w.=.u.w.$.",
"O.o.G.G.-.O.*.2.W.U.#.1 Q ( $ S q j + q W p j 2 e 0 # P l o g 2 8 W v iX4 < $ e e r w , e e e # t e O $ 9 7.dXfXJ...O.=.o.u.e.O.",
"o.o.>.w.w.-.1.mXE.1.1.5 $ u r G e # @ # 0 { nX4   3 q r r e j 4 N w e ' jXJ e t e 0 ` sXS e t C 2 F c @ < 5.:.z.U.T.3.O.O.w.u.$.",
"o.+.=.;.y.S.U.E.v.l.%.6 @.> 5 : @ $ # $ o 2 P + x t e q q r $ h M z F W d p t < # D Z iXe c U V < 0 D * > 2.6.>.X.c.c...2.w.w.$.",
"=.;.2.w.e.W.<.0.2.O.*.4.6 r.2.@.3 r z # @ @ h D ' p 4 3 # 0 o . $ yXA t 3 t e @ M B Q d J , e 4 e @ : 4.2.q.7 =.w.0.O.+.Q.w.=.O.",
"+.2.u.w.2.O.O.d.G.O.o.e.7.q.q.@.4 r $ @ z e S K F c % c @ X # x 3 k # < 3 t # X c v S K W r 3 ` q O q.2.w.y.>.o.u.d.#.O.d.>.>.w.",
"=.f.y.=.w.o.O.;.u.>.z.D.2.Z.B.z.- p t $ + # # , r 3 V V 0 3 l D S 0 e $ < q c g x c $ $ , j p U & > 2.t 7.u.w.=.u.d.=.>.=.=.G.@X",
"w.>.+.o.>.=.o.>.w.=.O.O.$.7.b.z.l.< q 8 : 1 e e < < h # $ r * q 3 < t t q e [ S 4 e $ @ # e W r 1 >.;.$.q.y.OXw.y.d.2.u.2.=.G.G.",
"u.=.O.>.w.u.*.w.w.O.o.o.o.N.t.$.l.e.4.4.M.6 e J , < # $ h e 0 @ 3 uXl q F p J J q $ # , $ e e , N.2.;.;.2.u.y.;.=.w.w.d.w.=.u.w.",
"2.O.O.w.u.G.u.w.w.=.=.-.,.v.y.v.O.x.3.9.B.$.> w p < $ # # $ @ 3 e r e @ $ < t F e < $ 4.6.; ; 9.T.B.-.w.G.d.w.+.| 2.d.d.;.O.w.w.",
";.=.o.2.;.u.u.=.w.=.>.L.v.+.w.<.O.=.;.2.w.O.O.C.q $ : > $ < $ , $ @ . 1 q e e e J p @ @.G.G.;.>.0.M.x.-.y.w.>.$.$.w.d.u.=.=.w.w.",
"y.w.O.=.=.w.u.O.O.o.x.S.>.J.S.0.e.x.| =.K.+.j.dX6.q.6.; $ p F p e 3 b.y.7., $ t y 8 ; o.e.H.$.=.d.d.M.>.;.=.;.w.w.=.>.>.>.w.w.w.",
"u.;.O.=.u.G.G.w.o.+.z.;.e.d.u.>.u.K.o.O.J.2.1.o.<.w.2.O.4.7 1 6 7.e.W.e.d.e.6.5.m.V...+.w.w.O.=.G.G.d.w.O.o.;.d.d.=.#.>.w.>.>.u.",
"G.O.+.;.f.G.2.=.>.w.>.o.;.d.w.o.O.a.;.o.q.e.A.o.O.N.e.*.@.G.f.T.Q.u.W.N.w.p.d.w.H.E.;.w.y.=.o.>.2.u.f.y.o.o.2.G.d.;.>.d.w.O.O.u.",
"G.>.o.O.w.u.O.| w.y.w.O.=.u.>.=.w.d.u.+...R.J.-.w.2.6.5 ;.@X+Xx.L.F.E.w.d.OX2.%.9.T.E.0.u.u.2.+.O.>.w.u.$.$.G.y.d.>.>.d.oXw.2.u.",
"=.>.u.w.w.>.O.>.w.=.w.u.d.w.O.w.d.w.2.2.w.H.e.d.e.>.4.7.u.@Xu.+.S.I.R.>.t.oXd.>.=.u.M.O.e.G.u.+.O.>.d.u.O.$.G.d.u.w.>.w.G.d.w.>.",
"o.>.d.u.2.$.O.w.2.o.$.u.d.w.O.e.u.O.o.;.H.L.-.w.=.=.;.P.w.w.w.q.>.G.u.O.>.P.@Xu.=.=.#.=.w.w.>.w.=.>.G.u.O.O.>.w.u.w.>.$.O.$.>.=.",
"O.>.u.w.=.O.O.u.>.O.=.;.w.u.2.2.2.O.$.=.>.u.>.O.=.O.O.w.>.>.w.F.;.u.2.o.o.d.G.d.>.;.2.L.d.O.o.w.=.O.G.w.O.=.>.w.u.w.=.9.0Xq.=.;.",
"o.$.w.w.=.O.$.G.w.w.u.>.;.w.=.O.=.=.u.w.>.d.d.2.u.>.O.=.>.d.d.r.t.d.>.o.o.u.F.d.d.oXoXd.u.u.>.>.$.o.w.w.w.u.u.d.d.;.O.FXJXFX;.;.",
"o.o.;.w.u.2.O.>.w.w.G.d.>.=.O.=.w.O.;.y.2.G.G.u.d.e.w.u.w.d.e.$.e.u.;.+.$.w.d.u.d.F.e.w.d.d.2.=.w.=.=.w.u.u.w.d.d.w.2.@XDXd.=.;.",
">.=.w.w.w.>.O.;.;.O.>.w.w.=.O.2.d.#.O.;.=.F.F.$.2.e.d.@Xw.>.;.;.w.w.+.;.w.w.q.2.d.w.$.$.>.w.>.d.d.w.=.w.u.>.$.;.u.d.d.d.=.O.=.w.",
"=.>.G.u.;.O.O.G.w.o.o.O.u.d.>.2.oXw.w.;.+.F.G.O.+.;.w.@X2.O.o.O.w.2.+.u.d.w.$.$.2.oXd.o.o.>.G.@XG.d.=.w.u.o.O.$.>.u.d.e.=.O.;.w."
};
