/* XPM */
static const char *patlamaone[] = {
/* columns rows colors chars-per-pixel */
"64 64 254 2 ",
"   c #154702",
".  c #154A02",
"X  c #1E4B02",
"o  c #135006",
"O  c #1E5205",
"+  c #1B540B",
"@  c #214E03",
"#  c #284D04",
"$  c #334F03",
"%  c #255306",
"&  c #295407",
"*  c #2A5907",
"=  c #265509",
"-  c #295609",
";  c #255A0D",
":  c #2D5A0D",
">  c #325305",
",  c #3B5408",
"<  c #315C0D",
"1  c #3B5C0C",
"2  c #265A17",
"3  c #2E5D10",
"4  c #315E11",
"5  c #3A5D10",
"6  c #3A620A",
"7  c #2D6215",
"8  c #2E641A",
"9  c #2D6819",
"0  c #336012",
"q  c #356215",
"w  c #356315",
"e  c #376416",
"r  c #396416",
"t  c #386517",
"y  c #346519",
"u  c #396618",
"i  c #3A6619",
"p  c #36681B",
"a  c #3B681A",
"s  c #3C691B",
"d  c #3D6A1C",
"f  c #3E6B1C",
"g  c #326D23",
"h  c #346B24",
"j  c #3C6D21",
"k  c #4A5706",
"l  c #4D530A",
"z  c #445B0A",
"x  c #4B5D0B",
"c  c #535A07",
"v  c #575C0A",
"b  c #655C0B",
"n  c #695D08",
"m  c #705D0C",
"M  c #47630D",
"N  c #54630D",
"B  c #58630B",
"V  c #5F750F",
"C  c #436413",
"Z  c #4B6513",
"A  c #496A14",
"S  c #416C1D",
"D  c #4C6C1A",
"F  c #536412",
"G  c #566B16",
"H  c #4B721B",
"J  c #577518",
"K  c #5A721E",
"L  c #64620D",
"P  c #68670C",
"I  c #78670C",
"U  c #6D710F",
"Y  c #626914",
"T  c #686B15",
"R  c #756A15",
"E  c #687418",
"W  c #797619",
"Q  c #426F21",
"!  c #4D6C26",
"~  c #447223",
"^  c #467425",
"/  c #497525",
"(  c #4A752A",
")  c #577827",
"_  c #4E7230",
"`  c #587C35",
"'  c #667824",
"]  c #767828",
"[  c #9D4D0C",
"{  c #885C0D",
"}  c #98570E",
"|  c #8C5712",
" . c #9A5B11",
".. c #AF4205",
"X. c #B64A0C",
"o. c #A7570D",
"O. c #B9530D",
"+. c #A85712",
"@. c #B65811",
"#. c #87680E",
"$. c #93670E",
"%. c #8E750F",
"&. c #886915",
"*. c #966D14",
"=. c #877716",
"-. c #987915",
";. c #AB6C10",
":. c #A97915",
">. c #907828",
",. c #AD792B",
"<. c #C7480B",
"1. c #C44D0C",
"2. c #D44909",
"3. c #C8550D",
"4. c #D75408",
"5. c #D55C0D",
"6. c #DC5B0C",
"7. c #D65A14",
"8. c #E24400",
"9. c #E55905",
"0. c #EB5D05",
"q. c #E55914",
"w. c #DE630C",
"e. c #C96712",
"r. c #CF7311",
"t. c #C97913",
"y. c #E76507",
"u. c #EC640A",
"i. c #EC6D0B",
"p. c #F26805",
"a. c #ED7104",
"s. c #ED740B",
"d. c #EC7A0C",
"f. c #F87807",
"g. c #F4750C",
"h. c #F37C0C",
"j. c #E76A12",
"k. c #F26D11",
"l. c #EC7614",
"z. c #F27210",
"x. c #F47B15",
"c. c #EB782A",
"v. c #74811B",
"b. c #5E8336",
"n. c #6A8331",
"m. c #5E8046",
"M. c #658546",
"N. c #709152",
"B. c #9B860B",
"V. c #8D871C",
"C. c #9B851A",
"Z. c #95991B",
"A. c #A3891A",
"S. c #B0801C",
"D. c #A6931C",
"F. c #BA981B",
"G. c #8B8B2B",
"H. c #AD9731",
"J. c #ACA42A",
"K. c #C58D1A",
"L. c #D78918",
"P. c #D99315",
"I. c #EE880E",
"U. c #FB8A03",
"Y. c #F68609",
"T. c #FC8B0C",
"R. c #F99608",
"E. c #FA930D",
"W. c #FD9B0B",
"Q. c #EE8312",
"!. c #E88B15",
"~. c #F58615",
"^. c #F48C13",
"/. c #E59919",
"(. c #F59314",
"). c #FC9512",
"_. c #F59B13",
"`. c #FA9D14",
"'. c #FB951B",
"]. c #F7991B",
"[. c #CCAB1D",
"{. c #FCA90E",
"}. c #FFB30D",
"|. c #E4A41C",
" X c #FAA215",
".X c #F9A819",
"XX c #FCAB1C",
"oX c #FDB315",
"OX c #FAB916",
"+X c #FCB51A",
"@X c #FDBA1C",
"#X c #CD9634",
"$X c #EF8C2E",
"%X c #F78A27",
"&X c #FA9926",
"*X c #F89435",
"=X c #D5AC24",
"-X c #EAA325",
";X c #F5A527",
":X c #FCA323",
">X c #FCAC22",
",X c #E8B622",
"<X c #FBB423",
"1X c #FDBC23",
"2X c #FBB82A",
"3X c #F9AB35",
"4X c #FDB637",
"5X c #FECB1A",
"6X c #FED91C",
"7X c #E9C728",
"8X c #FEC726",
"9X c #FDD52A",
"0X c #FDC638",
"qX c #FED838",
"wX c #FEE529",
"eX c #FFE536",
"rX c #FFF938",
"tX c #999850",
"yX c #F9A746",
"uX c #FCB744",
"iX c #EEA15C",
"pX c #FBBC57",
"aX c #C7B36A",
"sX c #FCBA66",
"dX c #FBB476",
"fX c #FDC648",
"gX c #FDDB44",
"hX c #FED34D",
"jX c #FCC55A",
"kX c #FDD658",
"lX c #FDE957",
"zX c #FDCD66",
"xX c #FDD467",
"cX c #FCC977",
"vX c #FCD777",
"bX c #FDE569",
"nX c #FDF36D",
"mX c #FDE879",
"MX c #F7B58B",
"NX c #B3C7A5",
"BX c #FDC884",
"VX c #FDD783",
"CX c #FDD49A",
"ZX c #FDE581",
"AX c #FDF786",
"SX c #FDE796",
"DX c #FDFA97",
"FX c #FDE3AB",
"GX c #FEF7A5",
"HX c #FDF7BB",
"JX c #FDEBC3",
"KX c #FEFFC8",
"LX c #FEF7D3",
"PX c #FDF7F1",
/* pixels */
"- % % - t f s e % - s * * 0 X - u u : @ : s 0 X @ s w = w 3 X % : f w - : - X @ f : % = % f ^ e % @ % @ 3 : X 3 u : : : : u f w ",
"s @ - w * e ^ 4 X - s 3 u ~ @ @ s 4 : s w @ @ w f u @ @ s u % - ~ s - : s 4 - t s : w 0 @ = f s * : w 4 f s - w 3 : e : @ : w @ ",
"^ 4 w s - : Q e 0 4 s 4 s ~ 4 u f - - f u X X t / w X % w S w 4 ^ u X % f f t s < @ : t - @ w f t u f u u e - : - - t w = 4 e X ",
"w t 4 t u % @ e u w e e t w * ~ e % X : w 4 - 4 s 4 : = % u f 4 w : % X : f u 4 w @ X w u u u 4 w 4 w t 4 - - t w X = t 4 u s - ",
"@ : : s ~ - * ~ : % : f S : @ 0 4 % @ = 4 s u 4 : % : e - - 4 - % - 4 w 4 u : % ~ 0 % - w f w @ % = 3 f u - w / f @ - s 3 : t t ",
"% X - s w : ~ / e - % u ^ u - * w - : 3 w e t S f @ - ~ f - % - : - w / f 4 : : s s : % - : : - : - 3 ^ f - u f s 4 u s : X 4 ^ ",
"* % = - - - w t w u : = w s s s e % % : f f e t Q : % : u t < = 0 - 4 ~ u 4 t w < : : 4 w - % w s w - 4 : 4 s * : s u 4 : - 3 f ",
"~ ~ 0 * ~ u % * % f f - X : S ~ 4 - @ - f ^ u % * w - X @ s y , Z 3 < - - w s : % - 4 ^ ~ - @ : f f % X X 0 ~ - @ w * X 0 s 0 u ",
"e e - : ^ ~ 0 w : w ^ u X - e 4 : p t % - e u : * - - : - 4 ; v R p t @ X < f : - : u f 0 4 4 % w f w u : @ : : @ u e X X : u f ",
"- : - 4 t : - 0 @ X t s * e u % 1 T 7 @ X : e * @ . w s s f 0 - : t S : X % u f ~ - X : s s 3 * s 4 : ^ ~ X % w - : u 4 = - : 0 ",
"% t u t : X X : : % 0 f f ^ u % - z N . - f S <   k t b.b.0 ; b P ; f S & X @ - s : @ - u 4 : u f % x D y % 4 ~ : % u ^ s 4 t e ",
"% w u t : % - e s - @ : s e - - w 3 V > : / ^ : X , Y ( t - 7 P n   % z x : < X : s w : 4 % % w e : , : = 4 f u : X : f t u s : ",
"- - - : 4 e u t f @ X * w - % s / y 6 c : S e @ O < W y % : 7 R R + : m . E J Z : w : * w ` w : 4 w e : : u w - 0 @ % : - 4 w @ ",
"f 4 % : s / f : S 3 = t s % % s ^ t % -.C w < % v < #.G._ % X v.V.s D :.@ s ) B : @ X 4 t ` u u f 4 t w : = X * s : : < 4 s s - ",
"^ w : : e ^ s @ : s e s S 4 - : 0 - % D V.: % 7 C O N G 7 < # =XZ.z =.=X+ S M.; : X @ s s * : a s - 4 e * X X s S w e f f s s f ",
"u % @ % - u e X X w e : s ^ s : % X - y V.x   B j : M , ; H T P.J.` =.J.z O n Y 7 5 u Q s p K 1 % % u f w % @ s t : : s f - % e ",
"- w 0 @ : ~ s : % % - @ * ^ f - - - - < 2 Z.J ] W y a =.k W tXP.H.2 W ' E - k > w 0 3 %   G =.: X - 4 : : e : w % X = : e * * - ",
": u t % : s u f 4 : s w - : = - ~ f - - < D.,X_ U k G K.o.3.3.5.;.k B.-.E C.-.. < F E 9 N t.6 7 < % X - w ~ e u 0 % * 3 ~ e w : ",
"% % : - - % - u w * u s 4 % X - ~ ~ J   x I .XB.$.o.o.@.w.f.Y.f.O.+.X.O.[ t.E ` ) D.M ) $XY ; 4 0 1 @ - 4 w % - e 4 : % w t : @ ",
"@ @ : 4 w = X = ; @ 4 s u : % : w < Y , 1 Y K.:X1.j.y.4.h.kXnXqXd.4.a.U.u.3.{ &.&.n L !.tXj u X G E C y w % X : e ^ s % - s t @ ",
"e w t u ^ f = > z % u s t w 4 3 n.! P =.W aX>.3.k.}.eXuX X&XcXDXR.*XLXZX9X~.3.3.4.X.!.F.% y / z -.= 0 t u : @ w 0 ~ f : % : w : ",
": : : * f / p A F % P , = y 4 - / _ % W G.>.} 4.>XGXJXcX0XqX>XuXXXyXAXLXKX.Xd.2X2X^.e.L , J.Z.N < X % * f s 4 w - % * w @ X % f ",
"X X % % e f w s a % @ b #.G ;   A V b $. ...1.1.j.pX*XXX&X;Xg. XgX(.Y.h.zX1X X*X4XoX<.} &.[.#.< A : * - ^ ^ u : = * - w = % - ~ ",
"% * w : : : @ 4 ~ * = % k $.=.6   z { O.4.(.XXy.iX4XOX].U.0.l.^.yX~.d.I.&XfXE.p.z.g.9.9.1.[ b I %.0 0 % e f t : @ 0 4 - @ w 0 4 ",
"* ~ f u - % * - * 0 * - . + =./.Z.c } 2.W.GXDX8X'.uXz.l.Q._.XX9.a.8X+X~.$Xq.y.XXQ.s.9XhXT.w.@.m ; Q 4 - - s u % - s w @ = ^ ~ * ",
": s 0 e 3 : = * : w 4 w : < 7 U F.L.3.Y.mXPXsXyXR.:X;X~.].`.fX$X(.wX_.2X2Xa.Q.9X@X&X2XHXnXE.1.b M.0 % O @ % = w f ~ f w : s f < ",
"w : % : t u @ = 4 w 3 D Y + & V z $.e.U.bXdXf.*X3XW.^.h.;X4XT.wX'.1XE.9X_.OX^.s..XpXE.vXDXU.O.L ) , & N : n v j t - w u - % : : ",
"* @ X % s ~ : w s s 4 s K B   L -.+.X.2.T.4XyX8X!.f.@X9XE.zXSXbX>X3X'. X1X1XI.I.x.d.+XvXhXy.@.L F #.=.*.C , 1 e - X - w - - : @ ",
"s 4 : @ : s - : ~ y : w y P P R o.y.).XX1X~.&X%XU.g.).rXkX>XAXyXfXbXxXsXlX6X.X(.y.I.vXyXU.6.X.t.A.W M + m.3 s 0 w 3 : : w u w X ",
"~ f t - : 4 - * t z % % D B -.:.1.~.eX Xj.~.3Xx. X@X%X.XlXVX<XlXSXSXsXmX>XyX3X@X0.]. Xx.q.9.h.3.R n.: % _ 4 S 4 u u : X : f w % ",
"- - % : ~ e f a > c : % K K.@X|.1.>XJXc.3XjX2.0.).+XnXyXpXZXJXBXvXLXVXXXXXvXMX{.;Xu.<X&Xl..XT.3.v + ) t # - - % - s - @ : 3 - : ",
"% % X ; ~ w f y % % Q f 2 g D $.O.&XnXgX8Xi.9.9.h.8X6Xf.>XhXAXFXHXGXkXkX2XSXSXgX^.9.<X Xu.).w.j.-.I -.C E : % > : j y 3 s : X w ",
"% % = N t % M A 0 : - w S W W *.5.i.}.wX{.uX$Xh.pX1XqXzXvXCXvXcXJXSXSXfXBXzX3X'.h.p.XXrX1Xs.5.<X8X1X@X/.!./.P.$.F E G A ~ 4 @ - ",
": u s x : % 6 -.A.-.Z.-.A.7X,X,X,XL.2.^.+X$Xc.(.&X{.4XyXCXPXBXpXSXHXmX~.3X&XoXyXd.i.u.0XGX9Xg.5.;.L x U W G.R X , L x t f s : - ",
"- f ^ : = w = t t & < < & A A C &.@.4.g.9.d.<X1X0.(.XXW.'.AXZXmXBXGXxX<X4XzXXXx.9.i.3XU.VXLXXX9.| W #.& 4 7 2 - 0 7 ; % : 4 - @ ",
"% u S t * w - w ~ w 4 s y . l #. .2.`..X*X&X@X].Q.^.@XwXXXzXHXfX8XkX%XhX8XoX~.y.c.*Xx.@XDXFX+X6. .T F 1 Y : - 4 f t - - : : - : ",
"- : : 0 * 0 @ % ^ s < y E Y I A.X.u.5X~.mXzX*X7.c.].8XwX0X}.fX4X1XeX8X&X1X`.d.E.;XjX&X2XuXXXY.X.,.H.v C D G : 4 s : : f s : : s ",
": % X % * 0 @ _ ~ 7 x x N N ; T } 6.Q.h.0XyX4X3Xq.Q._. X:X3X0XgXW.hXlX.X0.`.@XQ.E.>XqXz.w.5.5.e.' h % y ) D 3 s s : : ^ f - - - ",
": - = @ : u w M.a u 4 - =   # =.*.@.2.a.GXyXR.'.u.Q.c.;Xp.z.<X).f.~.XX;Xi.T.].0.uXzXuXT.5.| H.-XF.I t y ^ y - u 4 @ % 0 w u t % ",
"w e e - u s w % @ w f u s 3 U =XD.L.j.R.DXGX;Xp.xXvXfXh.9.p.0.y.^.a.)._.a.u.Y.W.U.:XhX{.5.{ =.Z ' S.;.1 / u @ - w % % @ - ^ ~ : ",
"t t @ @ ~ s % 4 u - w w u M.9 D.F.:.X.h.8XmXqX+Xx.$X{.g.^.yXq.&X$X8.u.].l.^.8XuXdXjXhXT.3.{ L x K 8 z c x 2 % @ w : u ~ 4 w : w ",
"4 : : - : : : ^ ^ - : < . = -.;.U F. .4.g.f.T.&Xl.x.pXU.Q.uX]. XXXE.&X2X>X0XgXxXKX0X9.3.+.:.H.2 X t 7 X . 5 F : w : ~ ^ : : - : ",
": - f f X X : f u = 0 w > B I G #XV Z | @.X.4.g.u. XnXsX4X5X9Xu.`.0X1X).oXlX2Xh.R.9.6.L.&.=.v = & % : t 0 > F ~ u @ - w - u e = ",
"% @ ^ ^ - X % 4 : @ 5 j Y >   _ ` ; f -.!.P.{ o.<.~.5XAXfXW.d.2.OXGXdXW.z.{.wXQ.<.+.t.1Xm U Z W u @ @ u f = = u ^ 3 - % @ u w @ ",
"X X : t u : = w w % I G 7 w : : . : =.F G.#XN *.L.<.p.}.W.u.5.@.i.jX0XI.1.6.d.5. .R z :..XB 3 A s w 4 t f f w : ~ u w : X 4 s - ",
"X % % - f s - s : J A # - u : - & I N O 2 n.C.=.-X{ O.3.O.3..X;.3.4.9.3.@.r.| } =XD L v D.P.A . t e u f f s t w 4 * = - w u Q : ",
": : : : u w - f 0 % = % - : @ = A Z ; @ X G E /.:.  T =.{ :.,X:.:.|  .|.$./.W - Y x C tX8 E |.x % : 4 u t : - : u w X @ ~ u : @ ",
"- : u w 4 % % s ~ % @ f ^ 4 X - s p f w 5 2 U ,X/ 1 v % v D ,XC.W -.N C.L -.:.+ y O . 4 N.j [.K.+ s t : 4 s 0 @ u f % @ j 4 : 4 ",
"- S s * w @ % * u w 4 f ^ u : w 4 t u 4 f j F.E + L x ; - f ,XC.b.R P T R & t., 0 Q - % Q ^ t W ~ y : 4 u f t : y s * : - - ^ ( ",
"4 4 - @ : % X 4 : - - - 3 4 - - : 0 w @ 3 E $.x : . @ H V.Z D.v.n.t W E #.  I x p / w : % s p K G x & - 4 u e 5 Y s 4 u : * ~ s ",
"s % % : 4 u % w : @ X X @ : w - - f S - : *.$ z 4 - % H / A -.8 s w = % C.D 8 J f 3 3 w @ X : t y N & : s f e < k 0 4 s e - e 4 ",
": X @ w u ~ u e t - : : X : s - X s ^ s Z x = y f s w % ; D -.; - - @ X v./ s E u - @ s 4 X X w s + J H ~ S w =   3 u s - @ w w ",
"- % X 4 * u s % e - w f - - u : @ - ; Y W o - ^ Q f u - X > L . - u w = V.t % % u u - u ^ f - s t - < 4 u u : - - w u t % - w 4 ",
"w w @ - - 4 s % % @ : f e w f u 0 : @ Y A - @ : w 4 : : : 1 v : 4 u w w S 4 = X - s - % s ^ 4 e f w = % - - : w u 4 : : * w u : ",
"e - % - f ^ ^ e @ % - : u S f w s s @ M e : % @ = * 3 3 w u f S u - X - e ~ s - - 4 - - * w = - ^ / u : % X : S f - - 4 w : : t ",
"~ % = : ~ ^ 4 : 4 w : X : f 4 X % s -   - 4 : % - s f - @ u Q f s - % : 4 s s w w : w ~ u - @ : 4 u f w @ X 4 ~ f - : s 4 @ @ u ",
"~ 3 @ % e s @ @ t t w @ - s : = : f e @ % ~ f : 4 f 4 % @ ^ ^ : u u 4 4 w u 4 @ : u f f f u 4 : - : 4 w % - ~ w u : 3 S S 4 : u ",
"- < u w w : % w t - w f u : @ w f w w w u f u ~ f t 4 u w ^ u @ u / f t s / f : - s u - u ^ f - - 3 u u @ - ~ u u 4 3 u ^ f w : ",
"X : f u < % @ w : X - u s : @ u s @ X < f w - w 4 : 4 ~ 4 4 4 : 4 u w - 3 / ( u - & % - w 4 3 w : 4 ^ u X % : 4 t t : - % - : : ",
"% : t < - % @ t * @ % - 4 u : : : @ % - 4 u - @ - X @ w - - 4 u : 3 - X @ u Q u - - : u u @ @ t : - ~ 4 @ - - 4 w : % : m.: - : ",
"X % w : - % - Q e w f - - w - @ % - s w 4 f f 4 u - X % - u u 4 u f w X X w s u t ^ ^ u u u : : % @ 0 4 3 t e f w - % N.NXN.* = ",
"X X - < t : @ : : 4 ^ f : % X - : @ : w 4 f S w f w : w 4 f w - u s w % % 4 w u f f w < f f : - : - - 3 t u 4 u f 4 < ( N.u % - ",
"* - : 4 w : @ - - @ : w < - @ 4 s @ @ - - f u @ : w f ^ 4 : - : : - - - : : : 4 s 4 @ % : 3 : u s w - 4 w - % - t u f u - X - e ",
"% : s e - X @ ~ w X X @ w s : 4 ^ 4 w : = f s X % - 4 ^ 4 % X % : % : u u : % % 4 ^ u X X : f / f s - w w @ % % - w s u - % : w "
};
