/* XPM */
static const char *player_right[] = {
/* columns rows colors chars-per-pixel */
"64 64 254 2 ",
"   c #11110C",
".  c #171817",
"X  c #300F0A",
"o  c #381807",
"O  c #163B0C",
"+  c #132B10",
"@  c #1A3915",
"#  c #29280C",
"$  c #342A0A",
"%  c #28370C",
"&  c #32380B",
"*  c #282616",
"=  c #3B2912",
"-  c #263519",
";  c #373816",
":  c #1F142E",
">  c #192F2F",
",  c #272A24",
"<  c #33352D",
"1  c #4E0504",
"2  c #450B04",
"3  c #4B0B04",
"4  c #440B09",
"5  c #540603",
"6  c #590502",
"7  c #540903",
"8  c #451307",
"9  c #561608",
"0  c #471911",
"q  c #58270A",
"w  c #512D0F",
"e  c #442917",
"r  c #463517",
"t  c #622B16",
"y  c #683410",
"u  c #453228",
"i  c #463B35",
"p  c #164A0B",
"a  c #0E500B",
"s  c #13540B",
"d  c #1B540C",
"f  c #135A08",
"g  c #145B0B",
"h  c #194715",
"j  c #185815",
"k  c #26460B",
"l  c #36430A",
"z  c #245409",
"x  c #26540B",
"c  c #29560C",
"v  c #2C5A0E",
"b  c #335B0A",
"n  c #264A16",
"m  c #344618",
"M  c #2A5613",
"N  c #245815",
"B  c #2E5C11",
"V  c #2A551A",
"C  c #2D5C1A",
"Z  c #315E13",
"A  c #39571B",
"S  c #335D19",
"D  c #14630B",
"F  c #176809",
"G  c #146B0B",
"H  c #0F7A01",
"J  c #127505",
"K  c #117B04",
"L  c #16750A",
"P  c #1B760D",
"I  c #1C790D",
"U  c #186415",
"Y  c #197713",
"T  c #396806",
"R  c #2D7109",
"E  c #2A6417",
"W  c #336115",
"Q  c #356319",
"!  c #39651B",
"~  c #35691A",
"^  c #3A6A1A",
"/  c #237314",
"(  c #227C16",
")  c #17522D",
"_  c #274928",
"`  c #365A26",
"'  c #305030",
"]  c #136824",
"[  c #166B38",
"{  c #177633",
"}  c #396525",
"|  c #306D29",
" . c #3E753A",
".. c #514F0B",
"X. c #6F520C",
"o. c #516207",
"O. c #73680B",
"+. c #47523A",
"@. c #734E34",
"#. c #43763B",
"$. c #0C0C52",
"%. c #370A4B",
"&. c #163251",
"*. c #2B2654",
"=. c #181E7A",
"-. c #281768",
";. c #1B3069",
":. c #182772",
">. c #173977",
",. c #243469",
"<. c #164A4A",
"1. c #155748",
"2. c #144C5B",
"3. c #175657",
"4. c #375244",
"5. c #304E55",
"6. c #196A4E",
"7. c #376644",
"8. c #164769",
"9. c #14506D",
"0. c #174578",
"q. c #1B5976",
"w. c #324C6E",
"e. c #395263",
"r. c #486C48",
"t. c #517150",
"y. c #67765C",
"u. c #455A63",
"i. c #506C72",
"p. c #6C776B",
"a. c #874A13",
"s. c #885513",
"d. c #96690B",
"f. c #956815",
"g. c #AB7113",
"h. c #8F5D20",
"j. c #138305",
"k. c #1A840C",
"l. c #158A08",
"z. c #1B8C0C",
"x. c #1A940A",
"c. c #179909",
"v. c #188916",
"b. c #1B9515",
"n. c #22930F",
"m. c #228913",
"M. c #19A606",
"N. c #1CA40B",
"B. c #1DAB0A",
"V. c #1BB406",
"C. c #1BBC03",
"Z. c #1DB209",
"A. c #1EB908",
"S. c #1CA917",
"D. c #20AB0C",
"F. c #21B411",
"G. c #1A892D",
"H. c #1D9537",
"J. c #218A3A",
"K. c #1AC000",
"L. c #1BC102",
"P. c #26CE0E",
"I. c #2BD712",
"U. c #36E91E",
"Y. c #3BEC21",
"T. c #42F626",
"R. c #5F855F",
"E. c #698066",
"W. c #6E816C",
"Q. c #778A76",
"!. c #AE8F13",
"~. c #CD9414",
"^. c #E2960E",
"/. c #CFAC12",
"(. c #EDB711",
"). c #DFC916",
"_. c #143290",
"`. c #17379A",
"'. c #26358E",
"]. c #1E1EA1",
"[. c #1B17AB",
"{. c #1838A4",
"}. c #192AB2",
"|. c #153BB7",
" X c #2733B3",
".X c #2934B2",
"XX c #17548D",
"oX c #16479A",
"OX c #25508C",
"+X c #116990",
"@X c #2E6D91",
"#X c #1643A4",
"$X c #144CB5",
"%X c #254AA8",
"&X c #314FB5",
"*X c #2A58BC",
"=X c #3268AE",
"-X c #485388",
";X c #56718F",
":X c #5C74AE",
">X c #1C1AD0",
",X c #1737C7",
"<X c #1728D1",
"1X c #1637D5",
"2X c #2839C3",
"3X c #1548C5",
"4X c #1343CB",
"5X c #1350CD",
"6X c #1449D6",
"7X c #0E55D8",
"8X c #1558D4",
"9X c #1153DD",
"0X c #2849C4",
"qX c #2F51CE",
"wX c #3558CB",
"eX c #0B69DC",
"rX c #106CD5",
"tX c #2F67CD",
"yX c #3768D2",
"uX c #3777DA",
"iX c #067CE1",
"pX c #1577E1",
"aX c #2C71E1",
"sX c #3A77E4",
"dX c #4A51C9",
"fX c #486DD0",
"gX c #6B6DCA",
"hX c #6B92B4",
"jX c #0284DF",
"kX c #358BDD",
"lX c #0D8BE2",
"zX c #1A87E4",
"xX c #3D86E7",
"cX c #2599E6",
"vX c #2F93EE",
"bX c #3896ED",
"nX c #2CA2F0",
"mX c #37A5F3",
"MX c #498DDB",
"NX c #7AA4D5",
"BX c #4289E9",
"VX c #4494ED",
"CX c #459CF2",
"ZX c #44A7F7",
"AX c #48B0F7",
"SX c #889986",
"DX c #9EA89E",
"FX c #9B9FA2",
"GX c #A5A9A9",
"HX c #BDC4BC",
"JX c #8A92D1",
"KX c #C0BFE4",
"LX c #A8CAE2",
"PX c #ECECF3",
/* pixels */
"Z W v W Q W Z v ^ B v W W W v v v W W W W B W W W Z Z B Z W W c Z B Z Z v c W W Z W Z x Z Z B W Z Z v Q Z Z W W W W Q ^ W W Q ^ ",
"W Q v v W W v v v v Q v v Z v v Z v W W v W B Z v v Q v Z W W ^ ^ Q W Q W W W Z Z Z W Z v Z W v Z W Z B Z v v W v v Q v v v Q v ",
"W v Z W v W W W Q W B Z v W ^ v B Z v W v Z v c Z c Z W B ^ ^ ^ ^ W ^ ^ ^ ^ Z W Z ^ Q ^ Z ^ Z c v Z Z M B Q W Q B W W Z B W W Z ",
"B v W B v v W v W W v B v v Q v v W v Q v Z W Q Q Z W ( I I I P I I I P I P / ~ Z M W v v Z Z v Z Z c Z W W B W W v W v W v W v ",
"Q W Z W v v W v W v B W v Q Q W Q W v v v Q S ~ | / I N.A.A.A.A.A.A.A.A.A.A.B.k.P / ~ ! W W ^ c Z v W W c ^ W W W W v Z W W v Z ",
"W v B v v W W Q W W v v B B v B v B Q W Z C E / n.Z.V.C.C.K.K.K.K.K.K.K.P.I.I.P.F.D.( ~ B B W B B Z Z W B Z x v Q W W Q Q W W Q ",
"W W v v W Q v v v W B W B W B B c v W W E P z.B.C.K.K.K.K.K.K.K.K.K.C.K.I.Y.T.T.U.P.D.m.~ Q v Z W Z W Z Z c c W v W B c v W B c ",
"W v W W W v Z B B ! Z W v v B B W Z M x G c.V.C.K.K.K.K.K.K.C.K.K.K.C.K.P.I.Y.T.T.Y.P.V.m.E Q v Z v W c c Q Q Q v W Q v v W Q v ",
"Q W W v W W Q } 5.w.8.5.' B Q Z W B V d K M.C.C.C.C.C.C.C.C.C.C.K.K.K.K.C.K.I.Y.T.Y.P.K.N./ ` W ^ W W v v W v W Z W ^ Q Z W ^ Q ",
"v B B W W } t.@XyXuXtXtXOXw.e.' ~ C N G j.M.N.b.v.v.v.v.v.b.B.C.C.C.K.K.K.K.K.P.I.P.K.C.B.Y V ` } B Z Q ^ Z Z W v W v v v W v v ",
"W M 4.e.w.w.=XMXZXZXmXvXuXtX*XOX5._ j L K v.{ 2.8.8.8.8.8.3.{ b.c.V.C.C.K.K.K.K.K.A.N.x.G.3.>.w.t.Q Z v v W W v W W v v W W v v ",
"v ` w.&XwXyXxXmXnXcXvXaXaXaXpX8X#X:.&.2.2.2.OX*XwXwXwXwXwX*XOX2.1.G.c.M.V.K.C.C.V.b.6.3.9.%XwXwX;Xr.Z Z Q B v B W Q W Q W Q W Q ",
"W Q w.wXsXVXZXmXcXlXrX6X6X6X9X9X6X,X|.$X0X0XyXVXCXBXsXsXxXBXyX0X%Xq.1.[ b.B.M.N.G.3.%X&XwXBXZXBX&Xe.S v v Q Z W v v W v v v W v ",
"B Q  .i.=XMXBXbXmXcXzXpXpX7X1X1X6XeXeXpXvXbXZXZXVXfXdXdXfXBXsXxXxXwX%XoX3.[ [ [ q.%XyXsXsXBXZXVX0Xw.S W v W v v W v W v W v W v ",
"W Q B } 7.w.%XwXBXbXbXvXzX9X<X6XeXjXjXjXlXmXAXZXwXgXKXKXJX.X XwXBXBXBXxX*X{.{.{.*XyX0X2XqXqXuXBX0Xw.S Z W Z Z v Q v v Q Q v v Q ",
"B c B W Z } r.;XdXwXwXwX0X<X<X9XiXjXjXjXlXnXAXCXqXgXPXPXGX*.$.=.2XqXsXCXVXxXxXsXyX.X:.-XJXfXaXBX&Xe.Q Q v v ^ Q W W Q v W W Q v ",
"v B B B v B W #.i.;X;XgXdX>X>X7XiXiXiXiXlXnXAXCXqXgXPXPXFX.   $.}.qXxXZXAXZXZXZX=X$.: p.KXMXrXwX:Xr.v W W v W v B W v v B W v v ",
"B W B W Z B v Q } #.R.:XfXqX<X9XeX7X5X7XpXnXZXZXxXNXPXPXFX,   $.}.sXbXcXcXcXcXcXOX    p.LXMX7X.Xi.} W B W v W W v v Q ^ v v Q ^ ",
"v B W v M B W c ` t.;XfXBXsX1X1X$X_._.#X5XaXxXvXbXAXLXLXhX;.&._.$X=X@X+X+X+X+X+X2.  . i.NXkX6X.Xu.} v W v W B W W v v v W v v v ",
"B B Q B B B M + &.'.yXVXBXaX,X}.;.) ] 1.0._.#X8X8X8X8X8X8X$X+X+X+X6.] U ] ] ] ] U g j 6.+X8X$X>.) } Q B Z W S S v W Q c v W Q c ",
"v c v c Z v k : ].tXCXZXaX8X8X0.) D J L ] { 6.XX#X#X#X{.{._.2.) ] b.B.B.B.B.B.B.B.B.N.v.1.>.8.[ U j M v v A ; - k v W v k v W v ",
"W v B B c Z V &. XsXAXmXzXeXrX2.a G K K j.c.S.H.H.H.H.{ [ { v.N.M.V.C.K.K.K.K.K.K.K.C.Z.b.] ] L K f x Q A ; 8 X k Q W W k Q W W ",
"W W B W W Z _ OXyXbXmXzXpXeX#X,.j G J H j.M.C.C.C.K.C.B.c.c.M.V.C.K.K.K.K.K.K.K.C.C.V.V.Z.c.l.K J s h m r 8 1 o m B v B m B v B ",
"v W Q v W Q ' %XaXvXpX5X,X{.:.u.t.E G J K l.M.V.C.C.Z.z./ / ( m.D.A.A.A.A.A.A.A.V.B.z.b.Z.Z.c.J f O . X 2 1 0 ; S v W v S v W v ",
"B v B v B v _ _.3X3X#X:.-.%.: +.y.R.| d f G j.c.Z.N.m.t.p.W.Q.R.( P P P P P I P P | t.#.I z.I a +   X 1 3 = m M Q v W Z Q v W Z ",
"^ v W W v Z ` 5.5.5.<._ ; 4 1 4 i y.y.` @ p g G c.c.( t.Q.SXHXHXQ.p.E.E.E.E.E.E.E.W.W.r.j f p + X X 1 2 = A Z B Q W v W Q W v W ",
"v Z v v Q Q v W Z W W W Z ; 8 1 4 , t.y.< + + O P x.b.( |  .SXGXDXDXDXDXDXDXDXDXDXSXr.j s O . X 2 1 8 ; Z W Q B Z Z W v Z Z W v ",
"v W B W Z W v W c W B c W Q ..0 X   , +.i *   # % x R I k.m.| #. .#.#.#.#. . . . . .N p +   X 1 1 0 m ! Q c c B c v W v c v W v ",
"v Z v v B B W Q v v v v Z W Q -   . < i u o X X o 8 8 l x N / k.k.k.k.k.k.k.l.l.z.I j O     X 4 e m } Q W B Z W B B v W B B v W ",
"v Z W v v W v Z v Z c Z Q B ~ n , < i u r = # # o 3 5 7 3 8 & x D G G G G D D D g d @ < < .   * ` ! W v c v Z c v W v v v W v v ",
"Q Z B v W Z v Z Z W v Z Z Z } ' i u e e r & k d d & 8 7 6 6 8 # d P k.k.k.P d % o o # - ' < , - Z Z c Z Z Q Z B v v v Z v v v Z ",
"W c B W B B v Z Z v Z ! Z v Q ` < = e r % p G x.x.k.v e 7 6 7 o k I c.c.x.P k o 7 5 o # @ < < ' S W v W B v Z v Z Q W W Z Q W W ",
"Z Z Z Z B B W B W c v v Z W W k * = r ; O g l.V.A.B.z.c $ 3 5 3 $ b T T T l $ 7 6 3 o % O + , ' S W W B v B W B W Q B v W Q B v ",
"W v Q B W Z v v Z B W B v Z B m = r r & O G c.V.V.c.j.G % o 5 5 8 w X.O.X.w 3 5 7 o $ x g p - ` B W v v B Z W B Z v B W Z v B W ",
"B v Z c W v c Q Z c v Z W Z v m = r ; % p z.V.V.c.j.J s % w 9 6 6 9 X.f.y 9 6 6 9 q ..o.G d ` Q Q B v v Q B v v Z v Z Z Z v Z Z ",
"W B Z Z v c W Z B v W Z Z Z Q m e r ; p L M.C.V.l.K G x o.!.s.9 6 6 9 t 9 5 6 9 a.g.d.o.G d ` B B v B W v v W B v B B c v B B c ",
"W c c B B W Q c B Z Z B Z Z A r r r % g x.C.C.V.l.G p ..d.)./.f.9 5 6 5 1 2 9 f.~.^.d.o.G j } Z W B v B W Z Z M W B W Z W B W Z ",
"B W v B Z B Z B W Z B B Z c l e r = - j v.S.B.c.j.f O ..g.(.(.g.q 2 5 6 5 3 q g.^.^.d.o.P I | ~ Z v Z Z B v B v W Z B B W Z B B ",
"Z W v Q B c Z W ^ B v W W B & = r , &.;.8.6.6.Y D p % ..d.g.g.a.9 3 7 7 6 5 9 s.g.g.X.b k.b.( n c v v W B v Z B B v B W B v B W ",
"W W Z Z v v Q B B W B B W B ; < *.;.`.,X,X3XoX8.&.> - r y y q 7 6 5 t y 9 5 6 9 q y & p Y 6.3._ M W Q Z v B W Q Z v v Z Z v v Z ",
"v B B B Z B Z B B c B Z B B - -.[.,X6X9X9X9X4X}.[.=., o 8 8 3 5 7 2 y h.t 2 5 5 3 8 o - <.oX|.OX7.} Z c B Z v W Z v W c Z v W c ",
"c v B Q W Q v c Z W v c c Z - -.}.6X1X,X|.{.}.[.[.:., o 3 2 2 3 2 4 w y t e w 3 3 3 o *.{.5X9X6X%X5.M Z W B v ^ Q Q Z v Q Q Z v ",
"B W B B v B W W Z B B v Z B % > ;.{.}._.3.1.1.&.&.> * 8 5 5 1 5 1 1 t @.@.@.@.q 5 5 o ,.3X3X|.|.{.5.B v W W v Q Z v Z v Z v Z v ",
"v B Z B B W B W Z B W B B c k - > <.3.[ b.M.c.l.k.G O o 8 3 3 9 9 9 t @.@.@.@.q 8 o * ;.oX0.3.6.6.| E Z v Z Z W v v Z Z v v Z Z ",
"B W B B Z W v Z v v Z v B v Z V p L z.M.C.C.C.C.Z.k.p k l y s.f.f.f.s.X.s.f.f.X.r k @ > 1.] x.Z.F.( N B B Z v B B W B B B W B B ",
"B B c W W B v W v v W v Z c Q V s J M.V.M.V.C.V.x.L g G T O.~.(.(.(.!.d.~.(./.d.o.G p p g G l.x.k./ E B v B B Z Z Q v c Z Q v c ",
"B Q B B v B B c W Z B c B Z B M s J M.c.K x.B.B.G s G J b o.!./././.!.d.!./.!.O.T G p O p D G / ~ W W v B B c B Z B W Z Z B W Z ",
"B Z B Q M B B B W Z c v B v Z Q C G z.k.f G c.N.D a J j.G k ..X.X.X.X.X.X.O.O.R I L a O O d E C Q W Z B B v B B B Z W B B Z W B ",
"Z Q B W c c B B B Z B Z Z B B Z } N D D p f k.b.D f j.c.k.p % & & & & % % x R j.c.x.j @ _ V S Z W W Z B ^ Z W Z v B Q Z v B Q Z ",
"B v B B Z B Q Z v Z B v v v Z c Z n h h O p s D G j.M.Z.z.p % $ $ $ % O s G j.c.V.N.U +.t.` Z W v c v B B Z v v B B W v B B W v ",
"W B v W v B B v c v Q W B v c B B M V ` _ h j U v.b.S.S.v.@ * $ $ $ * @ j Y Y S.S.b.j ' +.Q B Q B B Z Z c v Z v B B B B B B B B ",
"c B W W Z Z B Z v B v B v W W B Q v M 4.,.>.>.0.q.q.q.q.0.,.4.S x Z 4.,.>.0.0.q.q.q.>.e.` B B v B Z Z W Z v Z B Q v v Z Q v v Z ",
"W ^ W Z Z Z c Z Z B B Q B W v c B B Z 4.].,X4X4X4X4X4X4X,X.Xu.Q B Q e..X,X4X4X4X4X,X X-X` B B v W W W v Z W Z B B B v c B B v c ",
"B W v v Z W Z v Z Z Z W Z B v B B Z B ` '.1X9X9X9X9X9X9X1X.Xu.B B M e. X1X9X9X7X9X6X2X-XV v Z Z c W W v Z W B Z v W W Z v W W Z ",
"Z Z Z v Z W B Z W Z B B c B W B Q B v } ,.`.{.`.#XoXoX#X`.'.r.Q Z B 4.'.`.{.`.#X#X{.'.e.V W W B B W Z v B Q B v W Z c c W Z c c ",
"c Z v Z W B W Z W B v B W Z v v Z B v x _ ) [ [ J.H.H.H.[ _ ` v B M ` ' ) [ [ J.H.J.) ` Q B Z Z B v Z Q B Z W B W B B B W B B B ",
"Z W B c v W B B v B B Z B v v Z B v B Z d D K j.B.C.K.A.z.d c B W W v d D K l.B.C.N.D Q B B B W v W B Z B B Q Z B c Z v B c Z v ",
"c Z Z Z Z W Z B Z v v B W v Z Z Q B B M d D j.c.B.V.V.Z.k.d Z B c W B d D l.M.V.V.N.G B B B B Z c W Q B c W B c B c B v B c B v ",
"x Z Z W Z Z Z v Z B Q v B W B c W B Z c p D l.B.x.k.I I P / ~ S c Z W d D l.B.x.I I P ~ S B v Q B Z W c B B Q B Z Z Z W Z Z Z W ",
"Z Z ^ W v v W B W B B B W B B v Q v B Z n D x.B.z.P G s G n.m.N M Z Z x D x.D.k.g s m.n./ N Z v Z c W B B Q B v Z Q v Q Z Q v Q ",
"v v Z Z Z Q Z Z v v v c v v Z B Q v c B M E P z.z.m.( d g z.m./ x c B M U P z.m.U p I n.( N c v Z v Q B v Q W B W B c B W B c B ",
"Z v Z v Z Z v B Z v B c B Z Z x c B v B v S C N E E C V V N C M M c B Q M N E C V V C E C M v Z ^ B Z B W B B v W B v W W B v W ",
"Z Z Z Z Z Z Z Z c B Z B W c v B Z Z c ^ B Z ! ! ! } Q ! } ! } S c S Z M Q S Q S } } S Q ! c v W W c Z c B Z v c W W W B W W W B ",
"v W v c Z Z c v B W v Q Q B Q W Q W W B c B Z Z Z Z W c Q Z Z Z B M M M Z B B v Q M B B Z Z Z Z Z Z Z Z c v B B v B Q c v B Q c "
};
