/* XPM */
static const char *player_left[] = {
/* columns rows colors chars-per-pixel */
"64 64 255 2 ",
"   c #121110",
".  c #300C09",
"X  c #29150A",
"o  c #391707",
"O  c #14280A",
"+  c #16380C",
"@  c #122C11",
"#  c #193614",
"$  c #28290C",
"%  c #37260A",
"&  c #28370B",
"*  c #36370A",
"=  c #262A18",
"-  c #3C2714",
";  c #283714",
":  c #393415",
">  c #220839",
",  c #1A3033",
"<  c #293028",
"1  c #363934",
"2  c #4C0604",
"3  c #460A05",
"4  c #4B0A04",
"5  c #540602",
"6  c #590402",
"7  c #510A04",
"8  c #5A0D06",
"9  c #451507",
"0  c #561708",
"q  c #481417",
"w  c #56250A",
"e  c #432C17",
"r  c #522911",
"t  c #473517",
"y  c #652B0C",
"u  c #6D3210",
"i  c #45362F",
"p  c #613825",
"a  c #18460C",
"s  c #134C0B",
"d  c #0E5906",
"f  c #15550A",
"g  c #135B0B",
"h  c #0F4514",
"j  c #194B16",
"k  c #1A5614",
"l  c #24490C",
"z  c #275509",
"x  c #26540A",
"c  c #2A560C",
"v  c #2C5A0E",
"b  c #33510C",
"n  c #274A16",
"m  c #314B17",
"M  c #245312",
"N  c #2E5C11",
"B  c #295618",
"V  c #315E13",
"C  c #35541A",
"Z  c #335E1A",
"A  c #13640B",
"S  c #176908",
"D  c #146B0B",
"F  c #0F7C03",
"G  c #127405",
"H  c #117B04",
"J  c #18770B",
"K  c #196916",
"L  c #147515",
"P  c #177A1A",
"I  c #23680B",
"U  c #2C7409",
"Y  c #286519",
"T  c #256B1C",
"R  c #336115",
"E  c #356419",
"W  c #39641B",
"Q  c #356918",
"!  c #3B691B",
"~  c #237C13",
"^  c #247319",
"/  c #165727",
"(  c #144C33",
")  c #284B26",
"_  c #3A4C24",
"`  c #375825",
"'  c #284738",
"]  c #334F37",
"[  c #187A26",
"{  c #156831",
"}  c #187A37",
"|  c #366726",
" . c #3B6321",
".. c #356D2B",
"X. c #297422",
"o. c #2A7326",
"O. c #484409",
"+. c #4F4C08",
"@. c #724C12",
"#. c #4A6204",
"$. c #566D07",
"%. c #706910",
"&. c #415131",
"*. c #6E4931",
"=. c #456D32",
"-. c #0F124C",
";. c #1F185C",
":. c #192D4E",
">. c #292549",
",. c #173767",
"<. c #14306B",
"1. c #26396F",
"2. c #155B4D",
"3. c #154F53",
"4. c #315250",
"5. c #196A43",
"6. c #1D7E41",
"7. c #16476A",
"8. c #195968",
"9. c #184676",
"0. c #165679",
"q. c #324B72",
"w. c #14656F",
"e. c #3A6060",
"r. c #51504D",
"t. c #7E5D40",
"y. c #4E7543",
"u. c #517242",
"i. c #57764A",
"p. c #4F6E51",
"a. c #66775C",
"s. c #4E736F",
"d. c #6A766C",
"f. c #89590D",
"g. c #8F551C",
"h. c #946B0C",
"j. c #AA7116",
"k. c #148C06",
"l. c #1B850C",
"z. c #178809",
"x. c #169707",
"c. c #1B920C",
"v. c #1C9D0B",
"b. c #198518",
"n. c #199715",
"m. c #218F0B",
"M. c #248717",
"N. c #229913",
"B. c #1BAD06",
"V. c #17A408",
"C. c #1CA40B",
"Z. c #1CAA0A",
"A. c #1BB405",
"S. c #1BBC03",
"D. c #1DB309",
"F. c #1CAB15",
"G. c #21AC0F",
"H. c #188625",
"J. c #1D9034",
"K. c #278E29",
"L. c #1DA425",
"P. c #46823A",
"I. c #1BC000",
"U. c #1BC101",
"Y. c #25CD0C",
"T. c #2CD614",
"R. c #38E91E",
"E. c #3DF021",
"W. c #42F726",
"Q. c #528E49",
"!. c #6A9351",
"~. c #4EA246",
"^. c #53A446",
"/. c #70B045",
"(. c #6D866F",
"). c #968810",
"_. c #A98913",
"`. c #CE9313",
"'. c #D3AE17",
"]. c #E7A610",
"[. c #E8C211",
"{. c #191A86",
"}. c #163787",
"|. c #1A2C91",
" X c #263395",
".X c #1E19B3",
"XX c #1739A6",
"oX c #1631B3",
"OX c #2733B2",
"+X c #184683",
"@X c #164F8D",
"#X c #325588",
"$X c #156082",
"%X c #236B8F",
"&X c #1646A6",
"*X c #154AB9",
"=X c #1253B4",
"-X c #2445B6",
";X c #2C52B4",
":X c #3365B4",
">X c #516597",
",X c #506B98",
"<X c #425ABA",
"1X c #1A1BCE",
"2X c #163AC7",
"3X c #1532D4",
"4X c #262FCD",
"5X c #1347C8",
"6X c #1054CF",
"7X c #1348D6",
"8X c #114EDB",
"9X c #1252D7",
"0X c #2E55CF",
"qX c #1267D9",
"wX c #0978DE",
"eX c #3666CC",
"rX c #2A6BD3",
"tX c #3667D7",
"yX c #3B79DC",
"uX c #0978E1",
"iX c #1575E2",
"pX c #3171E2",
"aX c #3C79E3",
"sX c #4D57C6",
"dX c #516FD0",
"fX c #646CCE",
"gX c #7688AB",
"hX c #0384DF",
"jX c #1E8DD4",
"kX c #2E88D8",
"lX c #168DE5",
"zX c #268CE8",
"xX c #3886E7",
"cX c #259AEC",
"vX c #3999ED",
"bX c #2EA0F1",
"nX c #3BA9F6",
"mX c #4D90D5",
"MX c #6FA7DB",
"NX c #428BEA",
"BX c #4293ED",
"VX c #4399EB",
"CX c #429DF1",
"ZX c #44A7F7",
"AX c #41B2FA",
"SX c #828E82",
"DX c #889886",
"FX c #91A18F",
"GX c #ACB1B3",
"HX c #A1A8D6",
"JX c #C0BFE3",
"KX c #B5D1E1",
"LX c #CCD1CB",
"PX c #D2D9EC",
"IX c #F1F5F6",
/* pixels */
"c c N E v R N v N R R R N v V E N R N v R V c V E v V R V N V v x R V W N N R v v V V v R v R c v R x R R N R R R R R R R R R R ",
"N N R R V N N V v N V N V V v N R V c v V R R ! ! R Q R Q Q ! E V N R V N N V v R V c V R R V v R V v R R v R v v v R R R R R R ",
"E E v c E R R v V R v N v E N v V E V E E E R R Q Q Q R Q R Q N R N v W V R V R R W N V v R R R c E R R v R R c E v v v R R R R ",
"N N v R R R N v v v v v N R N R N R E M T ~ l.l.l.l.l.l.l.l.l.l.X.N N W N N R R c R N v R c v R v R v v R v v v R c R R R R R R ",
"N N N R R v V R c v N E N N V V E Y ~ l.c.D.S.S.S.S.S.S.S.S.S.D.v.l.~ X.E B V N v V R v R v R N v N R v v R ! v c R v v R R R R ",
"R R R v R v v R v R N R V R N E Q M.G.Y.T.T.T.Y.U.S.U.U.U.U.U.S.S.D.A.N.~ Y E E N R V R R v R R v R N R R v v c v R R R R R R R ",
"R R R c R V v R R V N v R N E T m.D.T.R.W.W.R.T.U.S.S.U.U.U.U.U.U.U.S.S.Z.c.J v N ! R N V R v R R R W R v ! v R R R v R R R R R ",
"x x v R R v R v v N E N N N Y N.D.Y.E.W.W.R.T.U.U.U.S.U.U.S.U.S.U.S.S.S.S.A.x.D M V N v V R v c Z B Z N c R v R v v v v R R R R ",
"N N R ! c R R v v c N N E | K Z.U.Y.R.E.R.Y.U.S.S.S.U.S.S.S.A.A.A.A.A.A.A.A.v.G k Z Q N  .Z | 4.q.q.q.4...E R c v c V R R R R R ",
"R R V R R R R v R R R  .` ) P Z.S.U.Y.Y.Y.U.S.U.U.U.S.S.A.V.b.P P P b.P b.C.x.H D M | | e.q.#X:XrXkXxX:X#Xp.|  .E V V v R R R R ",
"R R N v R v v v v V W p.q.}.8.[ b.n.D.S.U.U.U.S.S.S.C.n.b.5.9.+X+X+X+X+X8.} P L K j ' q.;XrXtXxXvXnXZXCXyX:X#X#Xq.] v V R R R R ",
"x x v x R v v c R R p.,XeXtX:X9.7.2.H.Z.S.S.S.B.x.n.} 8.9.@XeXtXtXtXtXtXeX@X9.7.7.<.|.*XqXiXrXtXpXzXcXbXnXxXtXtX-X4.N R R R R R ",
"R R R v R R R v N N e.;XNXZXNX0X0X;X8.} v.v.v.H.2.8.@X;X0XyXVXaXtXaXVXZXVXtX0X0X5X5X5X7X8X8X7X7X9XwXlXbXnXZXNXtX>X4.N R R R R R ",
"R R v R v R R v v R q.;XBXBXaXpXtXtX;X0.2.2.2.0.;X;XtXNXaXaXdXdXfXfXdXBXZXZXvXzXuXuXqX7X3X3XqXlXlXlXbXvXxXdX:X#Xp.E E R R R R R ",
"R R N R c R v v v R q.;XNXyX0XsXOXOXeX0X-X-X-XeXNXNXaXaX-X|. XHXPXJXsXtXZXAXcXhXhXhXwXwX3X3X9XpXxXxXxXdX;Xq.4.E R v N c R R R R ",
"V V R R c N c N N V 4.<XaXpXmXHX>X;. XeXNXBXBXCXZXpX0XOX;.> >.GXIXPXsX0XZXAXcXhXhXhXhXuX7X1X1X0XsX<X<X,Xs.| E R c v R N R R R R ",
"R R v V v V x E V V y.,X0XqXmXPXd.  -.:XZXnXnXnXnXvX0X.X-.  = GXIXPXfXtXZXAXcXhXwXwXwXuX7X1X4XfXgX(.s.p.| N c R R v N N R R R R ",
"v v v V V V v V N R ! s.OX9XVXKXd.    0.jXjXjXjXjXvXtXoX-.  , GXIXPXMXxXZXZXzXqX5X2X5XqX7X4XtXdX,XQ.E V N v R R R c V N R R R R ",
"N N V V N c V R v N | e.OX7XkXMXs.@ @ 3.w.w.w.w.w.%X%X=X+X,.9.mXMXMXVXcXzXpX0X*X+X<.}.oX3X4XNXaXdX,X' n B V R v c v v N R R R R ",
"N N R C m n Z v V E Y ( 7.&X=X$X5.K J L L L L L L P 5.w.0.@X5X6X6X6X7X7X*X@X9.3.{ A ( <.XX7XpXBXBXeX}.-.# N v v N R c V R R R R ",
"N N v n $ : &.V V M g D K 3.,.{ n.D.D.A.D.D.D.D.D.D.n.P { 2.9.}.+X@X$X$Xw.} P L G G A ( @XqX9XxXZXVX0X{.@ c R x N v v R R R R R ",
"x x V ; . 3 - C  .l d G H K K v.D.S.U.U.U.U.U.U.U.S.S.B.Z.n.H.[ H.L.L.L.F.Z.x.H H H A h 9.qXwXzXnXZXtX X:.N N N c R v R R R R R ",
"c c W _ - 2 4 e : # s D H c.Z.S.A.B.S.S.S.U.U.U.U.U.U.D.Z.v.c.c.Z.S.U.U.S.D.x.F H G K ] 1.oXqXiXzXvXvXeX1.B v N v R v R R R R R ",
"R R E V C - 9 2 . X O s D x.Z.Z.M.M.N.Z.Z.Z.B.B.B.Z.Z.N.K.o.o.o.M.Z.S.S.B.x.z.G D K ..(.r.;.|.oX5XiXiXrX}.` V R N R N v R R R R ",
"N N V R W C : 9 2 3 . O a D J K y.(...T T T T T T T T ..DXFXSX(.i.P C.B.k.H g s M i.(.r.e q > >.<.&X&XXX1.B v R R v v v R R R R ",
"c c V R E N V m 9 2 3 .   + s g ..a.SXDXDXDXDXDXDXDXDXFXLXGXd.a.=.M.C.l.g s + ; i.a.r.q 2 4 - m ) ' 4.] ) N R N V N N R R R R R ",
"V V R N N V N E _ - 2 2 . X O s k ..(.DXDXDXDXDXDXDXDXDXFX!.X.^ M.c.l.M O O = ] p.] X 3 4 e C N N N E R v v N N V R N R R R R R ",
"N N V v V c R N W ` e 3 2 .   O a k X.X.X.X.X.X.X.X.X.X.X.^ ~ ~ I b * % X X < i 1 =   . : ` N N V N V R N R N v E N c V R R R R ",
"R R v c R R c x N W ` : 9 .   @ # j J l.l.l.l.l.l.l.l.l.~ I l & % 0 4 o X X - e i 1     C R N V R v R E R R v c N v c E R R R R ",
"N N E R N N V N R v E ` $   = ] 1 ; & a s f A A A A A f & % 4 5 5 7 o $ & $ e t e i i < C N N N E N V R c V v R R v R E R R R R ",
"V V N R N V R v N x v N ; < 1 1 = o 9 o $ f J c.c.c.J x % 4 6 6 9 * x S D a & : e e i &._ N R N N N R N v N R V c V N N R R R R ",
"V V N V x N V v N c V V _ 1 < # $ o 5 5 9 & I m.k.m.I & 9 6 6 9 m ~ v.C.c.J a ; t e - < ` E N N V N v N R N N c v V R R R R R R ",
"V v v V v N V N N v R x _ < @ s & o 3 6 5 9 O.#.#.#.O.o 5 5 9 & D x.A.S.A.k.g & t t - $ l R V v V v R V R V c N N R N N R R R R ",
"N N N v E N v v N V V N B ) a S c t 9 7 6 4 w @.h.@.w 7 6 7 o l A z.x.B.A.v.D + : t e - m N N v R c v N V R R N R v N V R R R R ",
"x x N N R N c N N v R R R ` j S #.@.@.y 5 6 7 u g.u 7 6 5 y @.b f G z.x.S.S.z.s & : e - C E V V N N R v V V N N N N N R R R R R ",
"c c R N N V N N N N N v R ` j S #.h.`.j.u 8 5 7 0 8 6 8 u _.'.%.l A G x.D.S.V.J a : t t C E v R E V V N v E V E V R N v R R R R ",
"N N E v v V V v N v N x R | K D #.h.].].j.w 3 2 5 6 2 w _.[.[.h.O.a D x.B.D.A.z.s ; t t t b N v N v N v N R v R N N c N R R R R ",
"V V N N x v E N N v v R N ^ c.J #.f.`.`.j.0 2 5 5 2 3 w j.].`.h.+.+ g H z.L.J.{ , = : t % m V N c N N N v N V E N N N N R R R R ",
"V V N V N N N V N R N N n [ n.J x +.f.f.u 8 6 8 0 7 7 8 u f.h.@.O.# h k { 8.@X}.}.:.< i - m N R N N N R V v N V v R V V R R R R ",
"V v v V N v V E V V c W 4.9.8.{ l % w 0 5 6 7 u g.u 7 6 5 0 w w % , <.<.}.*X9X8X7XXX|.1.>.C v v E N R v N V v R R V v V R R R R ",
"V V V c R R N V v N ] e.;X5X=X9., o 3 4 4 3 9 r @.r 3 2 4 3 o 3 o , {..X1X2X7X7X7X7X3X.X;.C v N E v N c R V V R V V v v R R R R ",
"V V N R R N v V x E 4.OX7X8X7X*X:.o 5 5 0 p *.*.*.r 3 2 4 2 2 7 o < <.{.{.}.+X|.oX3X2X|.>.m N N E R v V R v x R V v R v R R R R ",
"V V R N R N N N R E 4.+X@X@X&X*X,.o 4 7 r *.t.t.*.r 4 7 7 7 5 7 o # j / / [ [ { 9.|.<., = n R R v R R V V N V R R V v R R R R R ",
"R R N N N v N R v M X.J.J.} 2.+X:.= % 9 w @.@.@.p y y y y w 9 % $ a l.C.V.B.A.C.H.{ / # ; C N v N V V V x V v N c W V V R R R R ",
"R R V v V N N N V M ~ C.D.x.L / j a x +.f.`.`.j.f.j.`.`.`.j.@.b f f c.D.S.U.S.A.Z.c.D a B ! V x N V v N v v N R V V V x R R R R ",
"V V V v R v E v R W Y K J H D s + s S #.h.'.[.`.h.`.[.[.[._.%.I D A A z.D.A.V.x.B.x.D a M R N v R N R v E V R V v R V v R R R R ",
"R R R N N N v N N v N E Y A A + + s D U $.)._.h.f.h._._._.%.O.I H D s J Z.v.G G v.x.D M c V E v E V N N W v V W x N N V R R R R ",
"E E v R v v v v v R N v E Y k # # f l.k.U #.+.O.O.O.O.O.O.* a J k.G s J C.k.d s J J B  .V R V c R R V V R c V R V R x v R R R R ",
"N N N V v N N c V N N x N Z ` =.) g C.V.k.G g a + & & & & # a c.C.k.A D J D s a f a B =.V V V V R v v N E v R R N V V V R R R R ",
"N N V N v V N R V c N V E V Z i.&.k C.D.C.z.G g + $ % % % $ a c.D.D.c.J d s a j n n B R v c N x V N v V N E V x N R R W R R R R ",
"V v N c V V v R N V R V R N V ` ' 3.6.J.6.{ { ( , ] _ _ _ 1 :.5.J.J.J.5.( 2., '  .N V V V V R v x v N x N V v N v W v W R R R R ",
"V V E v x v x x N c x V c x N =.q.|.XX&X&XXXXXXX Xs.~.~.~.s. XXX&X&X&X&XXXXX|.4.N N c x v R V c E x N N V V c V v c V R R R R R ",
"E E v N N N V V V N N V V N N ` #X4X7X8X8X8X8X3X4Xs.^.~.~.,X4X3X8X8X8X8X8X8X2X1.c V R v V V N V V N V V V N c N R N W V R R R R ",
"V V V V R V V R V v V N N V c B q.oX2X5X5X5X5X2XOXs.^.~.~.,XOX2X5X5X5X5X5X5XoXq.Z R V R v V V W v V V x c V ! W V v W c R R R R ",
"V R V V V V V v V V c v c Z V Z 4.,.8.w.8.7.7.<.1.(.^.^.~.s.1.8.w.w.w.8.7.7.,.' c V V x v x v V v c N c V V W V V v v R R R R R ",
"c c N V V v E V V V c W V c c V Z k N.F.n.P L k ) Q./.^.~.i.) b.F.F.F.n.L K k n V V W x V N V R R N Z V c c N V v V x V R R R R ",
"R R x N v N N N v V N V N V V V c g C.S.A.x.z.d B Q.^.~.~.y.M c.S.U.S.B.k.H d l V V V V V c N v V E v v c V x N V R V V R R R R ",
"E E v N v E V c V E V V N V V v N K c.v.C.Z.k.d B Q.~.~.~.P.Y l.v.v.v.C.C.z.g M R x E N v V R V V N N V c V W V R v V c R R R R ",
"N N N V V V c V V c c c V V l M ~ M.A A l.Z.x.d B Q.Q...T M.M.K g D J c.Z.k.d l R N v c x v V V v c V V c E V V V c V c R R R R ",
"V v V R V v V V V V N N E V M ~ N.M.f K N.C.l.g ` Q.Q.B K N.N.g g l.c.v.C.l.g l V R v V v R V x v W V c v N v V v V E N R R R R ",
"W W V R V V V R V N E V R V M Y ^ Y j B ^ T Y =.!./.Q.` Y ^ T j M T ^ ^ T Y | ! V R V W V c R R V V N V V v V V V R V V R R R R ",
"V V c V c v V V V c V V R V  .=.u.u.u.u.u.u.u.!././.!.i.=.=.u.u.u.u.=.u.u.u.=.V x V v V V V R c N V c V R V V N V E c R R R R R ",
"V V x V V N V V v c R v V x V =. . .W  .W W W ! ! W =. .Z ` Z Z W W W Z W  .Z V x x N v x V R v v N N N V V v R V V V x R R R R ",
"x x N R V V R V v V R c c V c v V x c W c V v N N V N N V Z V N N V N V v V V V V v V V v x R W x v N v V v v N c V R v R R R R "
};
